<?xml version="1.0" encoding="utf-8"?>
<!-- Generator: Adobe Illustrator 27.5.0, SVG Export Plug-In . SVG Version: 6.00 Build 0)  -->
<svg version="1.1" xmlns="http://www.w3.org/2000/svg" xmlns:xlink="http://www.w3.org/1999/xlink" x="0px" y="0px"
	 viewBox="0 0 3000 2000" style="enable-background:new 0 0 3000 2000;" xml:space="preserve">
<g id="BACKGROUND">
	<rect style="fill:#FFFFFF;" width="3000" height="2000"/>
</g>
<g id="OBJECTS">
	<g>
		<g>
			<g>
				<path style="fill:#F6F5F5;" d="M2598.39,1003.614c-110.271-79.449-242.407-117.89-364.059-175.436
					c-116.997-55.344-200.249-144.266-304.926-217.541c-171.044-119.733-368.74-209.508-569.937-264.299
					c-203.45-55.404-451.974-86.09-637.423,36.717c-91.213,60.402-165.447,154.081-195.694,259.871
					c-35.991,125.88-0.77,254.495,16.493,380.295c14.027,102.222-51.601,158.612-128.925,216.697
					c-181.05,136.005-176.021,382.096-64.148,558.489h2330.107C2818.244,1547.735,2879.092,1205.863,2598.39,1003.614z"/>
			</g>
			<circle style="fill:#F6F5F5;" cx="361.402" cy="1016.404" r="86.365"/>
			<circle style="fill:#F6F5F5;" cx="2406.457" cy="587.775" r="127.664"/>
			
				<ellipse transform="matrix(0.1562 -0.9877 0.9877 0.1562 -461.0227 1037.8102)" style="fill:#F6F5F5;" cx="376.933" cy="788.748" rx="38.258" ry="38.258"/>
			
				<ellipse transform="matrix(0.9239 -0.3827 0.3827 0.9239 -119.2474 1020.4237)" style="fill:#F6F5F5;" cx="2505.384" cy="809.96" rx="38.258" ry="38.258"/>
			<path style="fill:#DADADA;" d="M272.141,1792.471c-110.809-94.538-111.827-259.953-63.682-381.946
				c53.608-135.838,179.265-247.652,344.753-306.771c4.02-1.429,8.037-2.841,12.063-4.244l1.491,4.297
				c-4.013,1.394-8.021,2.805-12.027,4.226c-164.252,58.679-288.926,169.543-342.052,304.161
				c-47.553,120.488-46.698,283.733,62.406,376.818L272.141,1792.471z"/>
			<path style="fill:#DADADA;" d="M2604.373,1797.762l-4.039-2.078c81.833-159.076,130.307-319.498,140.175-463.921
				c9.726-142.381-18.52-259.82-81.682-339.615c-57.321-72.414-171.377-147.373-389.265-93.239l-1.092-4.412
				c220.219-54.711,335.771,21.369,393.922,94.831c63.877,80.694,92.456,199.216,82.65,342.747
				C2735.133,1477.111,2686.49,1638.144,2604.373,1797.762z"/>
			<path style="fill:#DADADA;" d="M782.551,526.049l-4.404-1.128c0.306-1.194,7.777-29.684,32.755-67.351
				c23.012-34.698,65.853-83.826,139.278-120.832c84.088-42.379,189.927-60.357,314.575-53.446
				c155.98,8.656,341.981,56.551,552.834,142.359l-1.714,4.208c-210.387-85.615-395.897-133.401-551.371-142.028
				c-123.862-6.878-228.913,10.949-312.277,52.966c-72.536,36.555-114.828,85.045-137.536,119.285
				C790.133,497.113,782.625,525.765,782.551,526.049z"/>
		</g>
		<g>
			<path style="fill:#D3DFFF;" d="M2387.428,558.304v1143.659c0,15.955-12.955,28.91-28.91,28.91H733.123
				c-15.955,0-28.91-12.955-28.91-28.91V558.304c0-15.955,12.955-28.91,28.91-28.91h1625.396
				C2374.473,529.394,2387.428,542.349,2387.428,558.304z"/>
			<g>
				<g>
					<rect x="755.336" y="624.981" style="fill:#FFFFFF;" width="1580.957" height="958.414"/>
					<path style="fill:#86A7FF;" d="M2338.566,1585.667H753.063V622.708h1585.503V1585.667z M757.609,1581.121H2334.02V627.254
						H757.609V1581.121z"/>
				</g>
				<g>
					<rect x="755.336" y="565.385" style="fill:#FFFFFF;" width="1580.957" height="59.596"/>
					<path style="fill:#86A7FF;" d="M2338.566,627.254H753.063v-64.142h1585.503V627.254z M757.609,622.708H2334.02v-55.05H757.609
						V622.708z"/>
				</g>
			</g>
			<g>
				<path style="fill:#86A7FF;" d="M829.651,608.952c-7.591,0-13.768-6.177-13.768-13.768c0-7.593,6.177-13.77,13.768-13.77
					c7.593,0,13.77,6.177,13.77,13.77C843.421,602.775,837.244,608.952,829.651,608.952z M829.651,585.96
					c-5.085,0-9.222,4.137-9.222,9.224c0,5.085,4.137,9.222,9.222,9.222c5.087,0,9.224-4.137,9.224-9.222
					C838.876,590.097,834.739,585.96,829.651,585.96z"/>
				<path style="fill:#86A7FF;" d="M875.633,608.952c-7.591,0-13.768-6.177-13.768-13.768c0-7.593,6.177-13.77,13.768-13.77
					s13.768,6.177,13.768,13.77C889.401,602.775,883.224,608.952,875.633,608.952z M875.633,585.96
					c-5.085,0-9.222,4.137-9.222,9.224c0,5.085,4.137,9.222,9.222,9.222s9.222-4.137,9.222-9.222
					C884.855,590.097,880.718,585.96,875.633,585.96z"/>
				<path style="fill:#86A7FF;" d="M921.614,608.952c-7.591,0-13.768-6.177-13.768-13.768c0-7.593,6.177-13.77,13.768-13.77
					s13.768,6.177,13.768,13.77C935.382,602.775,929.205,608.952,921.614,608.952z M921.614,585.96
					c-5.085,0-9.222,4.137-9.222,9.224c0,5.085,4.137,9.222,9.222,9.222s9.222-4.137,9.222-9.222
					C930.836,590.097,926.699,585.96,921.614,585.96z"/>
			</g>
			<g>
				<rect x="621.218" y="1712.831" style="fill:#D3DFFF;" width="1849.193" height="85.755"/>
				<path style="fill:#86A7FF;" d="M2472.965,1801.14h-1854.3v-90.862h1854.3V1801.14z M623.77,1796.036h1844.09v-80.652H623.77
					V1796.036z"/>
			</g>
			<g>
				<path style="fill:#FFFFFF;" d="M1627.229,1672.098H1464.4c-10.16,0-18.473-8.313-18.473-18.473v-11.031
					c0-10.16,8.313-18.473,18.473-18.473h162.829c10.16,0,18.473,8.313,18.473,18.473v11.031
					C1645.702,1663.786,1637.389,1672.098,1627.229,1672.098z"/>
				<path style="fill:#86A7FF;" d="M1624.711,1674.371H1466.92c-12.829,0-23.265-10.436-23.265-23.265v-5.993
					c0-12.829,10.436-23.265,23.265-23.265h157.791c12.829,0,23.265,10.436,23.265,23.265v5.993
					C1647.976,1663.935,1637.54,1674.371,1624.711,1674.371z M1466.92,1626.394c-10.323,0-18.719,8.399-18.719,18.719v5.993
					c0,10.321,8.396,18.719,18.719,18.719h157.791c10.321,0,18.719-8.399,18.719-18.719v-5.993c0-10.321-8.399-18.719-18.719-18.719
					H1466.92z"/>
			</g>
			<g>
				<path style="fill:#86A7FF;" d="M2112.176,1047.539H979.452c-40.934,0-74.238-33.304-74.238-74.238v-4.961
					c0-40.934,33.304-74.238,74.238-74.238h1132.724c40.937,0,74.238,33.304,74.238,74.238v4.961
					C2186.414,1014.235,2153.113,1047.539,2112.176,1047.539z M979.452,898.648c-38.428,0-69.692,31.264-69.692,69.693v4.961
					c0,38.428,31.264,69.693,69.692,69.693h1132.724c38.428,0,69.692-31.264,69.692-69.693v-4.961
					c0-38.428-31.264-69.693-69.692-69.693H979.452z"/>
				<path style="fill:#D3DFFF;" d="M1113.92,998.557H976.951c-12.568,0-22.852-10.283-22.852-22.852v-9.77
					c0-12.568,10.283-22.852,22.852-22.852h136.969c12.568,0,22.852,10.283,22.852,22.852v9.77
					C1136.771,988.274,1126.488,998.557,1113.92,998.557z"/>
				<path style="fill:#D3DFFF;" d="M1335.85,998.557h-119.734c-12.735,0-23.154-10.419-23.154-23.154v-9.165
					c0-12.735,10.419-23.154,23.154-23.154h119.734c12.735,0,23.154,10.419,23.154,23.154v9.165
					C1359.004,988.138,1348.585,998.557,1335.85,998.557z"/>
				<path style="fill:#D3DFFF;" d="M1591.018,998.557H1429.69c-13.424,0-24.408-10.984-24.408-24.408v-6.658
					c0-13.424,10.984-24.408,24.408-24.408h161.328c13.424,0,24.408,10.984,24.408,24.408v6.658
					C1615.426,987.574,1604.443,998.557,1591.018,998.557z"/>
				<path style="fill:#D3DFFF;" d="M1945.065,998.255h-239.727c-13.424,0-24.408-10.983-24.408-24.408v-6.658
					c0-13.424,10.984-24.408,24.408-24.408h239.727c13.424,0,24.408,10.984,24.408,24.408v6.658
					C1969.472,987.272,1958.489,998.255,1945.065,998.255z"/>
			</g>
			<rect x="1354.906" y="778.9" style="fill:#86A7FF;" width="381.816" height="39.981"/>
			<g>
				<rect x="1417.927" y="1290.924" style="fill:#ADC3FF;" width="67.654" height="129.542"/>
				<rect x="1557.465" y="1213.863" style="fill:#D3DFFF;" width="67.654" height="206.603"/>
				<rect x="1697.002" y="1168.495" style="fill:#ADC3FF;" width="67.654" height="251.97"/>
				<rect x="1836.539" y="1278.136" style="fill:#D3DFFF;" width="67.654" height="142.33"/>
				<rect x="1976.076" y="1195.916" style="fill:#ADC3FF;" width="67.654" height="224.55"/>
				<rect x="2115.613" y="1110.615" style="fill:#D3DFFF;" width="67.654" height="309.851"/>
			</g>
			<g>
				<rect x="887.346" y="1102.744" style="fill:#E5ECFF;" width="381.816" height="24.379"/>
				<rect x="887.346" y="1171.187" style="fill:#E5ECFF;" width="381.816" height="249.278"/>
				<g>
					<path style="fill:#86A7FF;" d="M1095.554,1263.848c-14.382-5.677-29.165-1.216-39.72,9.099
						c-9.616,9.398-10.972,22.685-15.498,34.547c9.352,2.554,17.76,8.091,27.951,6.503c13.242-2.063,13.589-14.415,21.094-22.831
						c6.431-7.211,14.13-11.856,23.327-13.094C1108.76,1272.255,1103.938,1267.157,1095.554,1263.848z"/>
					<path style="fill:#86A7FF;" d="M1203.692,1250.918c-13.022,2.834-26.703,7.464-35.99,16.954
						c-7.986,8.16-7.703,22.366-13.504,30.947c6.552,4.364,13.926,6.397,21.107,2.518c7.031-3.798,11.3-12.346,18.877-16.073
						c6.093-2.996,14.845-4.89,21.474-6.078c1.526-0.273,3.087-0.448,4.636-0.66v-30.299
						C1214.728,1248.857,1209.19,1249.721,1203.692,1250.918z"/>
					<path style="fill:#ADC3FF;" d="M1215.656,1279.186c-6.628,1.188-15.381,3.082-21.474,6.078
						c-7.578,3.726-11.846,12.274-18.877,16.073c-7.181,3.88-14.555,1.847-21.107-2.518c-2.58-1.718-5.036-3.787-7.297-6.015
						c-8.961-8.833-11.764-13.825-25.936-14.969c-2.888-0.233-5.625-0.115-8.258,0.239c-9.197,1.238-16.897,5.883-23.327,13.094
						c-7.505,8.416-7.852,20.768-21.094,22.831c-10.19,1.588-18.598-3.949-27.951-6.503c-3.73-1.019-7.605-1.577-11.811-0.999
						c-9.86,1.357-16.099,7.276-22.974,11.766c-4.787,3.126-9.879,5.566-16.729,5.264c-15.286-0.673-35-9.48-52.607-10.046v68.083
						h284.077v-103.036C1218.744,1278.737,1217.182,1278.912,1215.656,1279.186z"/>
					<path style="fill:#86A7FF;" d="M1005.551,1318.261c-1.118-0.975-2.179-2.033-3.13-3.213
						c-7.034-8.725-7.598-19.807-15.382-27.992c-15.151-15.93-35.844-9.629-50.823,3.924v22.498
						c17.607,0.566,37.321,9.373,52.607,10.046C995.672,1323.827,1000.764,1321.387,1005.551,1318.261z"/>
				</g>
			</g>
		</g>
		<g>
			<g>
				<path style="fill:#F9B384;" d="M595.363,1156.167l-72.592,14.234l16.568-106.752l44.637,0.911
					c-0.285,1.879-0.569,3.701-0.74,5.58c-1.651,14.347-0.797,28.752,1.025,41.619
					C587.904,1137.037,595.363,1156.167,595.363,1156.167z"/>
				<path style="fill:#102048;" d="M584.26,1111.758c-27.898-13.152-38.26-40.765-38.26-40.765l37.235-0.854
					C581.584,1084.486,582.439,1098.89,584.26,1111.758z"/>
				<path style="fill:#F9B384;" d="M599.614,1002.899c2.847,9.964,18.978,73.066-10.438,80.183
					c-29.416,7.117-59.781-19.927-59.781-19.927l9.964-60.73l42.701-12.81L599.614,1002.899z"/>
				<path style="fill:#EB5D60;" d="M560.65,1037.238c0,0,7.65-50.47,38.964-34.339c-1.118-0.576-2.743-5.615-3.44-6.756
					c-3.162-5.176-7.221-9.879-12.126-13.474c-17.822-13.062-47.867-8.314-62.244,6.708c-14.154,14.789-14.587,41.072-7.296,60.181
					c1.179,3.089,2.672,6.057,4.46,8.838c1.625,2.529,3.551,4.631,5.718,6.714c1.862,1.79,15.832,12.795,15.978,4.332
					C541.019,1048.802,560.65,1037.238,560.65,1037.238z"/>
				
					<ellipse transform="matrix(0.7741 -0.6331 0.6331 0.7741 -530.4147 587.4005)" style="fill:#F9B384;" cx="557.771" cy="1036.839" rx="12.459" ry="15.434"/>
				<ellipse style="fill:#F9B384;" cx="605.537" cy="1038.753" rx="6.629" ry="7.197"/>
			</g>
			<g>
				<g>
					<path style="fill:#102048;" d="M510.416,1567.975l-86.351,37.007c0,0,71.168,181.242,92.044,192.629
						c20.876,11.387,10.438-89.198,24.672-119.563l18.029-71.168L510.416,1567.975z"/>
					
						<rect x="517.493" y="1657.958" transform="matrix(0.0694 -0.9976 0.9976 0.0694 -1186.8715 2081.2388)" style="fill:#FFFFFF;" width="9.095" height="37.571"/>
				</g>
				<path style="fill:#7D69ED;" d="M488.591,1554.69l52.19,123.358c0,0,203.067-106.278,253.359-203.067l-79.708-104.38
					L488.591,1554.69z"/>
				<path style="fill:#102048;" d="M760.929,1654.326c0,0,94.891,3.796,138.541-71.168l-96.789-14.234L760.929,1654.326z"/>
				<g>
					<polygon style="fill:#F9B384;" points="909.354,1667.28 802.306,1705.099 793.669,1674.553 777.987,1619.234 867.216,1577.005 
						873.489,1590.46 					"/>
					<polygon style="fill:#102048;" points="1044.653,1798.56 927.463,1706.042 909.372,1667.297 802.315,1705.082 828.776,1798.56 
											"/>
					
						<rect x="895.765" y="1716.917" transform="matrix(0.6173 -0.7867 0.7867 0.6173 -1004.0217 1378.9982)" style="fill:#FFFFFF;" width="39.198" height="9.09"/>
					<polygon style="fill:#E28B6D;" points="873.489,1590.46 793.669,1674.553 777.987,1619.234 867.216,1577.005 					"/>
				</g>
				<path style="fill:#7D69ED;" d="M899.49,1583.142c-50.456,12.727-96.593,36.501-138.548,71.183l-72.138-189.776
					c0,0-145.548,138.73-232.459,115.775c-82.592-21.819-46.546-158.503-46.546-158.503
					c113.411-79.411,293.824-186.049,372.871-101.593c0.409,0.364,0.727,0.682,1.045,1.046c16.182,17.773,34.455,52.91,51.637,91.82
					C869.625,1490.595,899.49,1583.142,899.49,1583.142z"/>
				<path style="fill:#5B4DAD;" d="M835.352,1413.093c-78.638,18.5-159.548-68.865-159.548-68.865l81.274-26.682l25.591,2.682
					c0.409,0.364,0.727,0.682,1.045,1.046C799.897,1339.046,818.17,1374.183,835.352,1413.093z"/>
				<path style="fill:#5B4DAD;" d="M758.818,1655.132l-70.915-186.558c-15.377,14.613-99.056,91.177-187.282,114.433l-1.159-4.395
					c96.029-25.311,186.833-114.775,187.739-115.676l2.484-2.468l73.381,193.048L758.818,1655.132z"/>
			</g>
			<g>
				<path style="fill:#FBC343;" d="M526.755,1116.542l-31.864,103.002l-42.865,138.548c0,0-31.273,11.228-58.865,7.727
					c-24.364-3.091-45.865-17.728-40.046-61.956C365.934,1206.362,526.755,1116.542,526.755,1116.542z"/>
				<path style="fill:#E49B31;" d="M494.891,1219.544l-42.865,138.548c0,0-31.273,11.228-58.865,7.727
					c23.137-142.23,99.684-202.822,99.684-202.822L494.891,1219.544z"/>
				<polygon style="fill:#FBC343;" points="838.488,1218.498 814.761,1308.864 734.668,1233.317 766.442,1180.043 809.397,1202.953 
									"/>
				<polygon style="fill:#F9B384;" points="766.622,1180.136 797.018,1131.557 858.429,1105.381 838.307,1218.68 				"/>
				<g>
					<path style="fill:#1F3C88;" d="M1064.993,1087.178c-16.137-3.864-30.682-3.227-43.819,1.591
						c-8.682,3.182-16.773,8.227-24.228,15.046l-29.683-68.82c10.319-1.818,19.728-4.909,28.228-9.409
						c12.318-6.5,22.591-15.909,30.591-28.682L1064.993,1087.178z"/>
					<polygon style="fill:#1F3C88;" points="997.016,1103.756 967.358,1034.953 530.371,1242.389 546.163,1279.025 
						997.016,1103.756 967.358,1034.953 					"/>
					<path style="fill:#102048;" d="M1064.993,1087.178c-16.137-3.864-30.682-3.227-43.819,1.591l-25.682-63.183
						c12.318-6.5,22.591-15.909,30.591-28.682L1064.993,1087.178z"/>
					
						<ellipse transform="matrix(0.7071 -0.7071 0.7071 0.7071 -314.2217 1157.6226)" style="fill:#1F3C88;" cx="1240.263" cy="958.11" rx="233.445" ry="233.445"/>
					
						<ellipse transform="matrix(0.7071 -0.7071 0.7071 0.7071 -314.2216 1157.6226)" style="fill:#FFFFFF;" cx="1240.263" cy="958.11" rx="194.49" ry="194.49"/>
					<g>
						<path style="fill:#86A7FF;" d="M1062.965,878.191h354.549c-0.767-1.703-1.533-3.408-2.343-5.078h-349.783
							C1064.569,874.8,1063.735,876.481,1062.965,878.191z"/>
						<path style="fill:#86A7FF;" d="M1416.929,1039.402h-353.283c0.781,1.698,1.538,3.413,2.361,5.078h348.469
							C1415.31,1042.796,1416.143,1041.11,1416.929,1039.402z"/>
						<path style="fill:#D3DFFF;" d="M1095.02,960.771v-3.95c0-15.952-13.051-29.003-29.003-29.003h-17.841
							c-3.215,20.26-3.265,41.157,0.183,61.956h17.658C1081.968,989.774,1095.02,976.723,1095.02,960.771z"/>
						<path style="fill:#D3DFFF;" d="M1187.164,927.818c-16.163,0-29.387,13.224-29.387,29.387v3.182
							c0,16.163,13.224,29.387,29.387,29.387h126.672c16.163,0,29.387-13.224,29.387-29.387v-3.182
							c0-16.163-13.224-29.387-29.387-29.387H1187.164z"/>
						<path style="fill:#D3DFFF;" d="M1432.418,927.818h-6.53c-17.038,0-30.978,13.94-30.978,30.978
							c0,17.038,13.94,30.978,30.978,30.978h6.238C1435.486,969.531,1435.714,948.634,1432.418,927.818z"/>
					</g>
				</g>
				<path style="fill:#F9B384;" d="M838.488,1218.498l-29.091-15.546l17.727-38.501c0,0,24.682-44.592,37.001-42.683
					C876.444,1123.633,838.488,1218.498,838.488,1218.498z"/>
				<path style="fill:#FBC343;" d="M734.687,1233.312l-6.04,10.136c-12.013-16.511-38.488-51.696-71.795-79.651v0
					c-29.948-25.108-70.581-64.163-106.051-58.754c-94.967,14.405-140.988,316.782-140.988,316.782l245.728-88.948l55.047,42.887
					c11.973,9.328,27.029,13.787,42.151,12.484h0c25.403-2.19,46.669-20.152,53.076-44.832l8.964-34.53L734.687,1233.312z"/>
				
					<rect x="619.934" y="1258.796" transform="matrix(0.6632 -0.7484 0.7484 0.6632 -765.8901 904.5674)" style="fill:#E49B31;" width="4.544" height="89.082"/>
				
					<rect x="739.822" y="1228.971" transform="matrix(0.8167 -0.5771 0.5771 0.8167 -593.2832 659.9722)" style="fill:#E49B31;" width="4.542" height="69.575"/>
			</g>
		</g>
		<g>
			<g>
				<path style="fill:#E28B6D;" d="M1979.106,646.464c0,0-11.494,35.983-40.48,51.975s-67.467,32.984-54.474,38.481
					c12.994,5.497,47.727,1.999,47.727,1.999s-67.218,51.975-48.227,57.472c18.991,5.497,64.969-31.985,64.969-31.985
					s-6.247,13.993,3.249,16.992c9.495,2.998,27.737-0.5,27.737-0.5s-2.499,9.995,16.492,7.496
					c18.991-2.499,68.467-62.47,68.467-62.47l3.498-54.974L1979.106,646.464z"/>
				<path style="fill:#3A6BEA;" d="M1920.634,337.612c0,0,74.964-19.491,187.41,50.975
					c101.189,63.412,107.948,125.939,59.971,203.902c-47.977,77.962-103.45,133.436-103.45,133.436l-85.459-79.462l74.964-116.944
					L1920.634,337.612z"/>
				<path style="fill:#3A6BEA;" d="M1894.147,349.607c0,0-105.949,56.973-159.923,179.913h369.822l-101.951-161.922
					L1894.147,349.607z"/>
				<path style="fill:#E28B6D;" d="M1789.822,529.02c0,0,36.358,6.372,49.101,0c12.744-6.372-27.737-24.738-62.595-33.359
					c-34.858-8.621-75.714-23.988-109.447,23.988c-33.734,47.977-30.36,51.35-19.491,50.601c10.87-0.75,36.732-32.984,36.732-32.984
					s-27.737,34.858-14.618,38.606c13.119,3.748,44.604-43.854,44.604-43.854s-26.987,38.606-13.119,43.104
					c13.868,4.498,43.854-42.729,43.854-42.729s-30.36,47.602-11.994,46.478c11.95-0.732,25.646-21.616,33.756-36.119
					C1771.323,534.317,1780.157,529.02,1789.822,529.02L1789.822,529.02z"/>
				<path style="fill:#102048;" d="M1920.02,401.947c-14.405,0-25.773-6.179-25.986-6.299l2.215-3.968
					c1.5,0.83,37.088,20.06,60.051-15.721l3.826,2.455C1948.19,397.011,1932.889,401.947,1920.02,401.947z"/>
				<polygon style="fill:#102048;" points="1981.008,647.704 1977.199,645.223 2073.881,496.687 2036.797,438.831 2040.624,436.376 
					2079.296,496.705 				"/>
			</g>
			<g>
				<path style="fill:#E28B6D;" d="M1941.82,354.334c-6.105,21.74-35.191,26.307-48.593,8.14l-3.574-4.814l-23.081-31.27
					l23.775-30.923l2.283-2.978l5.41,4.02l3.921,2.929l41.545,31.072C1944.352,340.138,1943.607,347.981,1941.82,354.334z"/>
				<path style="fill:#102048;" d="M1889.654,357.66l-23.081-31.27l23.775-30.923l7.694,1.042l3.673,0.496
					c0,0,0.099,0.844,0.248,2.432C1902.559,307.479,1903.353,334.083,1889.654,357.66z"/>
				<path style="fill:#E28B6D;" d="M1800.806,277.168c0,0,51.476,92.447,88.516,53.772c28.127-29.368,8.273-69.903,8.273-69.903
					l-27.3-26.472l-60.803,18.2L1800.806,277.168z"/>
				<path style="fill:#FBC343;" d="M1880.223,281.718c0,0-17.372-27.61-36.296-14.58c-18.923,13.029-41.156,48.084-67.111,27.816
					c-18.065-14.106-5.791-54.185,18.096-50.773c0,0,26.369-50.566,71.661-37.227c45.292,13.34,27.92,40.329,52.117,44.362
					c24.197,4.033,102.555,9.66,89.526,92.489c0,0-33.523-8.949-61.507-5.824c-34.98,3.906-58.627-53.782-58.627-53.782
					C1885.807,284.82,1880.223,281.718,1880.223,281.718z"/>
				<ellipse style="fill:#E28B6D;" cx="1884.566" cy="279.546" rx="13.65" ry="17.683"/>
			</g>
		</g>
		<rect x="123.519" y="1795.001" style="fill:#102048;" width="2740.963" height="6.818"/>
		<g>
			<g>
				<rect x="2228.107" y="1549.369" style="fill:#1F3C88;" width="187.504" height="109.093"/>
				<polygon style="fill:#102048;" points="2437.43,1798.199 2537.337,1848.385 2503.353,1718.447 2459.409,1710.004 
					2413.396,1726.443 				"/>
				<path style="fill:#3A6BEA;" d="M2459.429,1710.008l-22,88.184c0,0-94.865-12.5-187.822-33.137
					c-42.864-9.455-85.32-20.682-117.866-33.228c-17.137-6.591-31.546-13.546-41.819-20.773
					c-72.229-50.91-46.455-168.14,76.047-148.094c47.456,7.773,98.638,28.909,144.821,52.865
					c21.046,10.864,41.001,22.364,59.092,33.41C2422.701,1681.417,2459.429,1710.008,2459.429,1710.008z"/>
				<path style="opacity:0.3;fill:#102048;" d="M2369.882,1649.234l-120.275,115.821c-42.864-9.455-85.32-20.682-117.866-33.228
					l179.049-116.002C2331.836,1626.688,2351.791,1638.188,2369.882,1649.234z"/>
				<g>
					<polygon style="fill:#102048;" points="2122.536,1725.943 2001.595,1796.16 2179.579,1795.42 2191.004,1727.943 					"/>
					<polygon style="fill:#F9B384;" points="2228.486,1710.451 2191.004,1727.943 2179.579,1795.42 2182.008,1795.41 
						2256.472,1796.409 2282.459,1763.925 					"/>
				</g>
				<path style="fill:#3A6BEA;" d="M2228.486,1710.451c0,0,141.931-138.933,264.872-171.917
					c113.98-30.58,147.929,83.96,83.959,140.932c-63.969,56.973-320.845,116.944-320.845,116.944L2228.486,1710.451z"/>
				<path style="fill:#102048;" d="M2257.025,1798.61l-1.11-4.404c88.15-22.262,178.728-46.427,244.083-72.325l1.678,4.226
					C2436.077,1752.098,2345.326,1776.313,2257.025,1798.61z"/>
			</g>
			<g>
				<path style="fill:#102048;" d="M2314.249,1163.942c-12.767,1.042-24.811,4.184-35.437,11.744
					c-8.872,6.311-15.672,15.053-20.037,24.999c-6.771,15.428-5.205,32.656-10.397,48.464
					c-4.998,15.218-17.244,23.068-28.651,33.243c-10.978,9.792-18.876,25.991-14.963,40.864c1.086,4.129,3.093,7.953,5.754,11.283
					c2.038,2.55,8.259,9.903,11.766,9.919c0.003,0,193.042,0.854,193.042,0.854s35.875-33.597-5.409-72.889
					c-11.458-10.905-24.291-22.114-30.118-37.43c-3.601-9.464-5.407-19.439-8.118-29.152c-3.457-12.385-11.078-25.027-21.358-32.891
					C2339.968,1165.028,2326.99,1162.901,2314.249,1163.942z"/>
				<path style="fill:#102048;" d="M2298.019,1175.616c0,0-32.174-24.486-0.285-35.59c24.39-8.493,47.264,1.139,32.747,32.743
					L2298.019,1175.616z"/>
			</g>
			<g>
				<path style="fill:#EB5D60;" d="M2306.448,1298.4c0,0-181.413,30.735-217.395,155.925s182.994,133.303,182.994,133.303
					s215.064-7.363,253.296-41.847s57.722-209.149-197.905-245.881L2306.448,1298.4z"/>
				<path style="fill:#AB4446;" d="M2318.142,1366.868c-1.176,0-2.348-0.049-3.516-0.142c-13.037-1.061-23.363-7.799-29.071-18.977
					l4.048-2.069c4.963,9.721,13.983,15.59,25.391,16.513c13.974,1.176,29.04-5.318,36.666-15.687l3.658,2.69
					C2347.452,1359.899,2332.555,1366.868,2318.142,1366.868z"/>
				
					<rect x="2197.139" y="1422.167" transform="matrix(0.6287 -0.7777 0.7777 0.6287 -336.7084 2261.1924)" style="fill:#AB4446;" width="4.545" height="122.015"/>
				
					<rect x="2379.906" y="1481.85" transform="matrix(0.7561 -0.6545 0.6545 0.7561 -376.868 1957.0416)" style="fill:#AB4446;" width="114.402" height="4.544"/>
			</g>
			<path style="fill:#FFFFFF;" d="M2410.859,1596.006h-188.824c-6.347,0-11.493-5.146-11.493-11.493v-131.685
				c0-6.347,5.146-11.493,11.493-11.493h188.824c6.347,0,11.493,5.146,11.493,11.493v131.685
				C2422.352,1590.86,2417.206,1596.006,2410.859,1596.006z"/>
			<g>
				<path style="fill:#F9B384;" d="M2296.492,1259.625l-4.931,46.97c-0.946,9.008,2.625,17.892,9.476,23.578l0,0
					c9.372,7.778,22.718,7.863,32.183,0.205l0.433-0.35c7.195-5.821,10.864-15.126,9.647-24.464l-6.097-46.77L2296.492,1259.625z"/>
				<path style="fill:#102048;" d="M2295.599,1269.29c14.378,28.188,30.608,28.757,42.993,0.712l-25.483-3.274L2295.599,1269.29z"/>
				<ellipse style="fill:#F9B384;" cx="2317.47" cy="1234.553" rx="34.377" ry="44.986"/>
				<path style="fill:#102048;" d="M2357.527,1227.151c0,0-34.452-0.569-45.841-28.472c0,0-18.507,6.549-23.347,30.465
					l-13.097,4.556l-0.285-37.583l29.042-18.507l25.91,0.569l22.778,19.077L2357.527,1227.151z"/>
				<path style="fill:#F9B384;" d="M2293.164,1230.933c3.837,7.398,1.855,16.037-4.427,19.295
					c-6.282,3.258-14.484-0.099-18.321-7.498c-3.837-7.398-1.855-16.037,4.427-19.295
					C2281.125,1220.177,2289.327,1223.534,2293.164,1230.933z"/>
				<path style="fill:#F9B384;" d="M2343.021,1230.933c-3.837,7.398-1.855,16.037,4.427,19.295
					c6.281,3.258,14.484-0.099,18.321-7.498s1.855-16.037-4.427-19.295C2355.06,1220.177,2346.857,1223.534,2343.021,1230.933z"/>
			</g>
		</g>
	</g>
</g>
</svg>
