<?xml version="1.0" encoding="utf-8"?>
<!-- Generator: Adobe Illustrator 27.5.0, SVG Export Plug-In . SVG Version: 6.00 Build 0)  -->
<svg version="1.1" xmlns="http://www.w3.org/2000/svg" xmlns:xlink="http://www.w3.org/1999/xlink" x="0px" y="0px"
	 viewBox="0 0 2000 2000" style="enable-background:new 0 0 2000 2000;" xml:space="preserve">
<g id="BACKGROUND">
	<rect style="fill:#FFFFFF;" width="2000" height="2000"/>
</g>
<g id="OBJECTS">
	<g>
		<g style="opacity:0.4;">
			<path style="fill:#E0E0FF;" d="M1766.438,1333.957c33.48-164.349,21.386-316.239-64.402-460.834
				c-61.12-103.017-167.288-189.074-288.725-191.344c-114.549-2.141-217.656,68.295-330.828,86.109
				c-186.167,29.304-378.587-85.881-559.403-33.226c-96.759,28.177-175.441,103.159-219.876,192.23
				c-44.435,89.071-57.023,191.015-50.029,289.874c12.429,175.686,91.254,350.404,225.898,464.067H1575.85
				C1667.983,1575.337,1744.781,1440.264,1766.438,1333.957z"/>
		</g>
		<g>
			<path style="fill:#E0E0FF;" d="M861.034,1527.5h-89.248c-3.747,0-6.786-3.038-6.786-6.786v-24.004
				c0-3.748,3.038-6.786,6.786-6.786h89.248c3.747,0,6.785,3.038,6.785,6.786v24.004
				C867.819,1524.462,864.781,1527.5,861.034,1527.5z"/>
			<path style="fill:#E0E0FF;" d="M977.7,1527.5h-89.248c-3.747,0-6.786-3.038-6.786-6.786v-24.004c0-3.748,3.038-6.786,6.786-6.786
				H977.7c3.747,0,6.786,3.038,6.786,6.786v24.004C984.486,1524.462,981.448,1527.5,977.7,1527.5z"/>
			<path style="fill:#E0E0FF;" d="M918.534,1475.833h-89.248c-3.747,0-6.786-3.038-6.786-6.785v-24.004
				c0-3.748,3.038-6.785,6.786-6.785h89.248c3.747,0,6.785,3.038,6.785,6.785v24.004
				C925.319,1472.795,922.281,1475.833,918.534,1475.833z"/>
		</g>
		<g>
			<g>
				<g>
					<g>
						<path style="fill:#FFFFFF;" d="M1415.314,594.998c0-12.913-10.468-23.381-23.381-23.381H613.695
							c-12.913,0-23.381,10.468-23.381,23.381v19.169h825V594.998z"/>
						<path style="fill:#5254CF;" d="M1416.55,615.403H589.077v-20.406c0-13.574,11.044-24.618,24.618-24.618h778.238
							c13.574,0,24.617,11.044,24.617,24.618V615.403z M591.55,612.93h822.527v-17.932c0-12.21-9.934-22.145-22.144-22.145H613.695
							c-12.21,0-22.145,9.934-22.145,22.145V612.93z"/>
					</g>
					<g>
						<path style="fill:#FFFFFF;" d="M590.314,614.167v496.475c0,12.913,10.468,23.381,23.381,23.381h778.237
							c12.913,0,23.381-10.468,23.381-23.381V614.167H590.314z"/>
						<path style="fill:#5254CF;" d="M1391.933,1135.26H613.695c-13.574,0-24.618-11.043-24.618-24.617V612.93h827.473v497.713
							C1416.55,1124.217,1405.507,1135.26,1391.933,1135.26z M591.55,615.403v495.239c0,12.21,9.934,22.145,22.145,22.145h778.238
							c12.21,0,22.144-9.935,22.144-22.145V615.403H591.55z"/>
					</g>
					<g>
						<g>
							
								<ellipse transform="matrix(0.996 -0.0898 0.0898 0.996 -50.6985 59.002)" style="fill:#FFFFFF;" cx="630.314" cy="592.891" rx="8.333" ry="8.333"/>
							<path style="fill:#5254CF;" d="M630.313,602.475c-5.284,0-9.583-4.299-9.583-9.583s4.299-9.583,9.583-9.583
								c5.284,0,9.583,4.299,9.583,9.583S635.598,602.475,630.313,602.475z M630.313,585.808c-3.906,0-7.083,3.178-7.083,7.083
								c0,3.906,3.177,7.083,7.083,7.083c3.906,0,7.083-3.177,7.083-7.083C637.397,588.986,634.219,585.808,630.313,585.808z"/>
						</g>
						<g>
							
								<ellipse transform="matrix(0.996 -0.0898 0.0898 0.996 -50.5672 61.9207)" style="fill:#FFFFFF;" cx="662.814" cy="592.891" rx="8.333" ry="8.333"/>
							<path style="fill:#5254CF;" d="M662.813,602.475c-5.284,0-9.583-4.299-9.583-9.583s4.299-9.583,9.583-9.583
								c5.284,0,9.583,4.299,9.583,9.583S668.098,602.475,662.813,602.475z M662.813,585.808c-3.906,0-7.083,3.178-7.083,7.083
								c0,3.906,3.177,7.083,7.083,7.083c3.906,0,7.083-3.177,7.083-7.083C669.897,588.986,666.719,585.808,662.813,585.808z"/>
						</g>
						<g>
							
								<ellipse transform="matrix(0.996 -0.0898 0.0898 0.996 -50.4359 64.8394)" style="fill:#FFFFFF;" cx="695.314" cy="592.891" rx="8.333" ry="8.333"/>
							<path style="fill:#5254CF;" d="M695.313,602.475c-5.284,0-9.583-4.299-9.583-9.583s4.299-9.583,9.583-9.583
								c5.284,0,9.583,4.299,9.583,9.583S700.598,602.475,695.313,602.475z M695.313,585.808c-3.906,0-7.083,3.178-7.083,7.083
								c0,3.906,3.177,7.083,7.083,7.083c3.906,0,7.083-3.177,7.083-7.083C702.397,588.986,699.219,585.808,695.313,585.808z"/>
						</g>
					</g>
				</g>
				<rect x="676.299" y="668.302" style="opacity:0.4;fill:#E0E0FF;" width="653.029" height="392.015"/>
			</g>
			<g>
				<path style="fill:#FFB147;" d="M1121.514,1132.6h-213.2c-7.875-73.625-9.9-139.625-2.85-183.5
					c1.925-11.95,4.5-22.25,7.825-30.625l89.775-18.275l104.375,9.35C1124.989,954.95,1127.739,1036.575,1121.514,1132.6z"/>
				<rect x="1008.438" y="920.625" style="fill:#1B1B43;" width="2.5" height="85"/>
				<path style="opacity:0.2;fill:#1B1B43;" d="M1107.439,909.55c0,0-84.05,58.95-201.975,39.55c1.925-11.95,4.5-22.25,7.825-30.625
					l89.775-18.275L1107.439,909.55z"/>
				<path style="fill:#1B1B43;" d="M960.741,576.378c0,0-40.488,51.63-30.74,95.497l142.235-5.935c0,0,1.219-85.905-29.854-93.217
					L960.741,576.378z"/>
				<path style="fill:#1B1B43;" d="M1083.23,660.833h-2.5c0-56.276-29.27-82.132-29.565-82.386l1.631-1.895
					C1053.101,576.815,1083.23,603.424,1083.23,660.833z"/>
				<g>
					<path style="fill:#FFBC96;" d="M926.114,869.7c-0.175,5.875-1.325,11.525-3.3,16.825c-5.15,13.95-15.95,25.275-29.875,30.825
						c-3.35,1.375-6.9,2.375-10.6,3c-6.7,1.15-14.5,1.8-23.675,1.8c-46,0-79.4-34.938-83.35-45.588
						c-3.95-10.675,7.188-6.875,7.188-6.875c4.063-9.063,13.112-1.763,13.112-1.763c2.725-9.45,11.275-0.625,11.275-0.625
						s0.3-5.175,5.175-4.875c3,0.2,12.825,6.175,19.925,10.725c3.65,2.325,7.85,3.525,12.1,3.525c1.7,0,3.4-0.175,5.075-0.575
						c8.725-2,15.425-9.025,17.05-17.825l13.775-75.05h32.6l10.45,13.4C927.139,813.15,926.889,847,926.114,869.7z"/>
					<path style="opacity:0.4;fill:#FE5B52;" d="M922.814,886.525c-5.15,13.95-15.95,25.275-29.875,30.825
						c-1.15-2.775-1.8-5.825-1.8-9.025c0-12.875,10.45-23.325,23.35-23.325C917.414,885,920.214,885.55,922.814,886.525z"/>
					<path style="fill:#5254CF;" d="M996.563,639.445l-67.04,13.661c-24.648,5.023-43.964,24.195-49.17,48.805l-18.233,86.193
						l60.926,8.53L996.563,639.445z"/>
					<path style="fill:#5254CF;" d="M1019.917,639.445l67.04,13.661c24.648,5.023,43.964,24.195,49.17,48.805l8.282,61.213
						l-59.098,10.357L1019.917,639.445z"/>
					<path style="fill:#5254CF;" d="M923.045,796.633c0,0-3.249,98.294-9.748,121.852c0,0,90.983,31.682,194.15-8.936
						l-8.124-181.153l-79.407-88.952h-23.355l-79.204,102.762L923.045,796.633z"/>
					<path style="fill:#FFBC96;" d="M1222.389,641.875c0.375,6.425-10.2,25.875-18.325,39.8c-5.975,10.225-9.8,21.6-11.2,33.375
						c-10.475,88-17.4,161.625-48.025,182.25c-7.1,4.775-15.45,6.725-25.4,5.35c-7.025-0.975-12.8-3.8-17.525-8.025
						c-32.25-28.7-16.6-121.15-16.6-121.15l40-6.9c0,0,8.95-75.55,14.625-101.55c5.7-25.975,14.625-12.175,14.625-12.175
						c3.25-8.125,12.175-3.25,12.175-3.25c6.5-10.55,14.625-2.45,14.625-2.45c4.875-9.725,18.7,7.325,18.7,7.325
						C1208.989,650.4,1221.589,628.375,1222.389,641.875z"/>
					
						<rect x="883.733" y="754.15" transform="matrix(0.0477 -0.9989 0.9989 0.0477 126.3649 1643.3409)" style="fill:#1B1B43;" width="82.561" height="2.5"/>
					<polygon style="fill:#1B1B43;" points="1084.172,774.947 1079.067,709.263 1081.56,709.07 1086.451,772.016 1125.106,765.345 
						1125.532,767.809 					"/>
					
						<rect x="1055.959" y="764.583" transform="matrix(0.1313 -0.9913 0.9913 0.1313 218.7466 1781.2888)" style="fill:#D28572;" width="139.543" height="2.5"/>
					<path style="opacity:0.4;fill:#FE5B52;" d="M1144.839,897.3c-7.1,4.775-15.45,6.725-25.4,5.35
						c-7.025-0.975-12.8-3.8-17.525-8.025c3.825-7.675,11.75-12.95,20.9-12.95C1132.989,881.675,1141.664,888.2,1144.839,897.3z"/>
					<g>
						
							<rect x="1154.47" y="652.761" transform="matrix(0.9883 -0.1527 0.1527 0.9883 -87.2985 184.2734)" style="fill:#D28572;" width="2.5" height="15.14"/>
						
							<rect x="1168.22" y="649.34" transform="matrix(0.9501 -0.3121 0.3121 0.9501 -146.6472 397.8001)" style="fill:#D28572;" width="2.5" height="15.42"/>
						
							<rect x="1182.907" y="645.506" transform="matrix(0.9421 -0.3354 0.3354 0.9421 -150.6214 434.9716)" style="fill:#D28572;" width="2.5" height="16.214"/>
					</g>
					<path style="fill:#CBCBFF;" d="M1060.058,713.125h-26.052c-0.831,0-1.505-0.674-1.505-1.505v-6.052
						c0-0.831,0.674-1.505,1.505-1.505h26.052c0.831,0,1.505,0.674,1.505,1.505v6.052
						C1061.564,712.451,1060.89,713.125,1060.058,713.125z"/>
					<path style="fill:#1B1B43;" d="M1006.2,684.892c-17.161,0-29.047-10.471-29.225-10.63l1.675-1.856
						c1.026,0.922,25.454,22.346,55.076-0.068l1.508,1.993C1024.771,682.248,1014.819,684.892,1006.2,684.892z"/>
					<g>
						<path style="fill:#D28572;" d="M822.048,880.54c-5.322-2.07-11.108-6.508-16.731-12.834l1.868-1.661
							c5.362,6.032,10.815,10.239,15.769,12.166L822.048,880.54z"/>
						<path style="fill:#D28572;" d="M807.771,884.182c-5.113-3.229-9.648-8.487-13.863-16.075l2.186-1.214
							c4.006,7.211,8.263,12.175,13.012,15.175L807.771,884.182z"/>
						<path style="fill:#D28572;" d="M797.692,888.815c-6.105-4.543-11.725-10.885-17.181-19.391l2.105-1.35
							c5.291,8.247,10.71,14.375,16.569,18.734L797.692,888.815z"/>
					</g>
				</g>
				<g>
					<path style="fill:#FFBC96;" d="M1006.123,668.689L1006.123,668.689c-14.02,0-25.386-11.366-25.386-25.386v-42.851h50.771
						v42.851C1031.509,657.323,1020.143,668.689,1006.123,668.689z"/>
					<path style="fill:#D28572;" d="M980.73,604.792c15.696,26.377,32.541,28.543,50.833,0.208L980.73,604.792z"/>
					<path style="fill:#FFBC96;" d="M1006.123,615.684L1006.123,615.684c-19.45,0-35.217-15.767-35.217-35.217V521.06h70.434v59.407
						C1041.34,599.917,1025.573,615.684,1006.123,615.684z"/>
					<path style="fill:#1B1B43;" d="M1005.452,581.357c-4.117-3.889-5.666-6.962-4.734-9.395c0.895-2.337,3.756-3.081,5.446-3.316
						l-0.088-7.679l2.5-0.028l0.115,10.067l-1.232,0.031c-1.223,0.035-3.913,0.527-4.407,1.822
						c-0.235,0.618-0.305,2.505,4.117,6.682L1005.452,581.357z"/>
					<g>
						<path style="fill:#FFFFFF;" d="M1018.636,589.022c1.545-2.362,2.297-4.41,2.297-4.41c-8.53,0.711-26.604,0.711-26.604,0.711
							s0.522,2.105,2.025,4.453C1001.752,589.995,1010.602,590.097,1018.636,589.022z"/>
						<path style="fill:#1B1B43;" d="M996.353,589.775c1.844,2.88,5.168,6.127,10.871,6.31c5.511,0.178,9.246-3.754,11.411-7.064
							C1010.602,590.097,1001.752,589.995,996.353,589.775z"/>
					</g>
					<path style="fill:#1B1B43;" d="M1040.939,558.438c0.031,1.354,1.25-28.125-44.688-34.375c0,0-25.937,14.844-22.969,36.25
						l-14.088-2.661c-5.443-14.839-3.568-54.527,28.307-51.714c0,0,6.872-9.815,18.125-10c57.188-0.938,48.156,62.476,46.785,64.304
						L1040.939,558.438z"/>
					<g>
						
							<ellipse transform="matrix(0.3132 -0.9497 0.9497 0.3132 179.5033 1384.2839)" style="fill:#FFBC96;" cx="1046.834" cy="568.035" rx="15.561" ry="12.904"/>
						<path style="fill:#1B1B43;" d="M1045.021,572.48l-2.48-0.311c0.431-3.447,2.906-10.065,9.188-10.434l0.146,2.496
							C1046.076,564.572,1045.03,572.401,1045.021,572.48z"/>
					</g>
					<g>
						<path style="fill:#FFBC96;" d="M952.923,572.076c2.692,8.162,10.36,12.969,17.129,10.737
							c6.768-2.232,10.073-10.658,7.381-18.82c-2.692-8.162-10.36-12.969-17.128-10.737
							C953.536,555.489,950.231,563.915,952.923,572.076z"/>
						<path style="fill:#1B1B43;" d="M966.992,572.482c-0.042-0.323-1.082-7.912-6.855-8.251l0.146-2.496
							c6.283,0.37,8.758,6.987,9.189,10.435L966.992,572.482z"/>
					</g>
					<path style="fill:#1B1B43;" d="M1024.284,553.621c0,2.254-1.699,4.082-3.794,4.082c-2.096,0-3.794-1.827-3.794-4.082
						s1.699-4.081,3.794-4.081C1022.585,549.539,1024.284,551.367,1024.284,553.621z"/>
					<path style="fill:#1B1B43;" d="M1027.285,544.686l-11.707-1.409c-1.11-0.134-1.902-1.142-1.768-2.252l0.066-0.552
						c0.134-1.11,1.142-1.902,2.252-1.768l11.707,1.409c1.11,0.134,1.902,1.142,1.768,2.252l-0.066,0.552
						C1029.403,544.028,1028.395,544.82,1027.285,544.686z"/>
					<path style="fill:#1B1B43;" d="M987.728,553.621c0,2.254,1.699,4.082,3.794,4.082s3.794-1.827,3.794-4.082
						s-1.699-4.081-3.794-4.081S987.728,551.367,987.728,553.621z"/>
					<path style="fill:#1B1B43;" d="M984.727,544.686l11.707-1.409c1.11-0.134,1.902-1.142,1.768-2.252l-0.066-0.552
						c-0.134-1.11-1.142-1.902-2.252-1.768l-11.707,1.409c-1.11,0.134-1.902,1.142-1.768,2.252l0.066,0.552
						C982.609,544.028,983.617,544.82,984.727,544.686z"/>
					<circle style="opacity:0.4;fill:#FE5B52;" cx="1027.578" cy="569.742" r="8.18"/>
					<circle style="opacity:0.4;fill:#FE5B52;" cx="984.434" cy="569.742" r="8.18"/>
				</g>
			</g>
			<g>
				<g>
					<path style="fill:#FFFFFF;" d="M775.167,830.833H531.046c-6.952,0-12.588-5.636-12.588-12.588V717.861
						c0-6.952,5.636-12.588,12.588-12.588h244.121c6.952,0,12.588,5.636,12.588,12.588v100.384
						C787.755,825.198,782.119,830.833,775.167,830.833z"/>
					<path style="fill:#5254CF;" d="M775.167,832.036H531.046c-7.604,0-13.791-6.186-13.791-13.79V717.861
						c0-7.604,6.187-13.791,13.791-13.791h244.121c7.604,0,13.791,6.187,13.791,13.791v100.384
						C788.958,825.85,782.771,832.036,775.167,832.036z M531.046,706.476c-6.278,0-11.385,5.107-11.385,11.385v100.384
						c0,6.278,5.108,11.385,11.385,11.385h244.121c6.278,0,11.385-5.108,11.385-11.385V717.861c0-6.278-5.107-11.385-11.385-11.385
						H531.046z"/>
				</g>
				<g>
					<rect x="548.419" y="736.178" style="fill:#E0E0FF;" width="209.375" height="2.5"/>
					<rect x="548.419" y="766.803" style="fill:#E0E0FF;" width="209.375" height="2.5"/>
					<rect x="548.419" y="797.428" style="fill:#E0E0FF;" width="209.375" height="2.5"/>
				</g>
				<polygon style="fill:#5254CF;" points="551.918,800.152 549.959,798.598 564.882,779.782 590.571,788.554 612.687,764.542 
					635.173,782.657 661.578,753.108 685.521,780.735 706.915,725.366 729.108,760.242 754.911,723.038 756.966,724.462 
					729.019,764.758 707.462,730.884 686.356,785.515 661.549,756.892 635.454,786.093 612.94,767.958 591.306,791.446 
					565.745,782.718 				"/>
			</g>
			<g>
				<g>
					<path style="fill:#FFFFFF;" d="M1226.879,490.101l-12.052-97.47c-48.563,5.946-86.181,47.301-86.181,97.47
						c0,54.252,43.98,98.232,98.233,98.232c54.252,0,98.232-43.98,98.232-98.232c0-2.872-0.15-5.708-0.391-8.518L1226.879,490.101z"
						/>
					<path style="fill:#5254CF;" d="M1226.879,589.583c-54.854,0-99.482-44.627-99.482-99.482c0-50.183,37.521-92.62,87.278-98.711
						l1.239-0.152l12.058,97.513l97.888-8.522l0.106,1.247c0.267,3.098,0.396,5.919,0.396,8.625
						C1326.361,544.956,1281.733,589.583,1226.879,589.583z M1213.741,394.031c-47.887,6.486-83.845,47.566-83.845,96.07
						c0,53.476,43.506,96.982,96.982,96.982s96.982-43.506,96.982-96.982c0-2.268-0.094-4.622-0.285-7.164l-97.79,8.513
						L1213.741,394.031z"/>
				</g>
				<path style="fill:#9192FF;" d="M1278.129,470.101l97.841-8.518c-1.576-18.334-8.179-35.223-18.437-49.289L1278.129,470.101z"/>
				<g>
					<path style="fill:#E0E0FF;" d="M1306.284,432.294c-17.863-24.495-46.767-40.425-79.405-40.425
						c-4.083,0-8.099,0.279-12.052,0.762l12.052,97.47L1306.284,432.294z"/>
					<path style="fill:#5254CF;" d="M1225.898,492.361l-12.466-100.819l1.242-0.152c4.241-0.519,8.233-0.771,12.204-0.771
						c31.659,0,61.722,15.304,80.415,40.939l0.737,1.011L1225.898,492.361z M1216.222,393.727l11.638,94.115l76.671-55.817
						c-18.272-24.385-47.204-38.906-77.651-38.906C1223.4,393.119,1219.901,393.318,1216.222,393.727z"/>
				</g>
			</g>
			<g>
				<g>
					<path style="fill:#FFFFFF;" d="M1473.394,998.353h-179.443c-8.567,0-15.512-6.945-15.512-15.512V785.972
						c0-8.567,6.945-15.512,15.512-15.512h179.443c8.567,0,15.512,6.945,15.512,15.512v196.868
						C1488.907,991.408,1481.961,998.353,1473.394,998.353z"/>
					<path style="fill:#5254CF;" d="M1473.395,999.553h-179.443c-9.215,0-16.713-7.497-16.713-16.712V785.972
						c0-9.215,7.498-16.712,16.713-16.712h179.443c9.215,0,16.712,7.497,16.712,16.712v196.869
						C1490.106,992.056,1482.609,999.553,1473.395,999.553z M1293.951,771.66c-7.893,0-14.313,6.42-14.313,14.313v196.869
						c0,7.892,6.42,14.313,14.313,14.313h179.443c7.892,0,14.312-6.42,14.312-14.313V785.972c0-7.892-6.42-14.313-14.312-14.313
						H1293.951z"/>
				</g>
				<g>
					<rect x="1302.423" y="803.09" style="fill:#E0E0FF;" width="162.5" height="2.632"/>
					<rect x="1302.423" y="843.09" style="fill:#E0E0FF;" width="162.5" height="2.632"/>
					<rect x="1302.423" y="883.09" style="fill:#E0E0FF;" width="162.5" height="2.632"/>
					<rect x="1302.423" y="923.09" style="fill:#E0E0FF;" width="162.5" height="2.632"/>
					<rect x="1302.423" y="963.09" style="fill:#E0E0FF;" width="162.5" height="2.632"/>
				</g>
				<g>
					<rect x="1302.423" y="856.848" style="fill:#CBCBFF;" width="13.84" height="108.874"/>
					<rect x="1332.512" y="897.304" style="fill:#E0E0FF;" width="13.84" height="68.418"/>
					<rect x="1362.603" y="872.168" style="fill:#CBCBFF;" width="13.84" height="93.554"/>
					<rect x="1392.692" y="855.278" style="fill:#E0E0FF;" width="13.84" height="110.444"/>
					<rect x="1422.782" y="834.889" style="fill:#CBCBFF;" width="13.84" height="130.833"/>
					<rect x="1452.872" y="813.178" style="fill:#E0E0FF;" width="13.84" height="152.544"/>
				</g>
			</g>
			<g>
				<g>
					<path style="fill:#FFFFFF;" d="M875.747,406.25H753.178c-8.045,0-14.567,6.522-14.567,14.567v49.616
						c0,8.045,6.522,14.567,14.567,14.567h83.705l32.181,27.5V485h6.683c8.045,0,14.567-6.522,14.567-14.567v-49.616
						C890.314,412.772,883.792,406.25,875.747,406.25z"/>
					<path style="fill:#5254CF;" d="M870.376,515.349l-33.978-29.036h-83.22c-8.756,0-15.88-7.123-15.88-15.88v-49.616
						c0-8.756,7.124-15.88,15.88-15.88h122.568c8.756,0,15.88,7.124,15.88,15.88v49.616c0,8.756-7.124,15.88-15.88,15.88h-5.37
						V515.349z M753.178,407.563c-7.308,0-13.254,5.946-13.254,13.254v49.616c0,7.308,5.946,13.254,13.254,13.254h84.189
						l30.383,25.964v-25.964h7.996c7.308,0,13.254-5.946,13.254-13.254v-49.616c0-7.308-5.946-13.254-13.254-13.254H753.178z"/>
				</g>
				<g>
					<rect x="757.188" y="426.25" style="fill:#9192FF;" width="98.125" height="2.5"/>
					<rect x="757.188" y="443.125" style="fill:#9192FF;" width="111.25" height="2.5"/>
					<rect x="757.188" y="460" style="fill:#9192FF;" width="78.125" height="2.5"/>
				</g>
			</g>
		</g>
		<g>
			<rect x="808.056" y="1255.741" style="fill:#B0B0D2;" width="35" height="425"/>
			<rect x="1164.306" y="1255.741" style="fill:#B0B0D2;" width="35" height="425"/>
			<rect x="808.056" y="1254.576" style="opacity:0.3;fill:#1B1B43;" width="35" height="74.913"/>
			<rect x="1164.306" y="1254.576" style="opacity:0.3;fill:#1B1B43;" width="35" height="74.913"/>
			<rect x="610.653" y="1241.25" style="fill:#B0B0D2;" width="786.056" height="35.218"/>
		</g>
		<g>
			<rect x="1213.236" y="1229.22" style="fill:#1B1B43;" width="91.028" height="12.07"/>
			<path style="fill:#1B1B43;" d="M1226.703,1241.29h-13.467l-53.652-141.551c-1.561-4.12,1.482-8.528,5.888-8.528l0,0
				c2.617,0,4.96,1.618,5.888,4.065L1226.703,1241.29z"/>
		</g>
		<g>
			
				<rect x="723.844" y="1229.22" transform="matrix(-1 -1.224647e-16 1.224647e-16 -1 1538.7147 2470.5098)" style="fill:#1B1B43;" width="91.027" height="12.07"/>
			<path style="fill:#1B1B43;" d="M801.404,1241.29h13.467l53.653-141.551c1.561-4.12-1.482-8.528-5.888-8.528l0,0
				c-2.617,0-4.96,1.618-5.888,4.065L801.404,1241.29z"/>
		</g>
		<g>
			<g>
				<g>
					<polygon style="fill:#D28572;" points="544.891,1078.313 594.551,1086.295 595.097,1059.085 595.62,1031.997 596.075,1008.839 
						582.303,1002.339 558.708,1029.986 					"/>
					<path style="fill:#925D4F;" d="M574.81,1031.714c0,0,5.993,12.576,20.287,27.37l0.523-27.087L574.81,1031.714z"/>
					<path style="fill:#925D4F;" d="M630.021,998.224c0.577,0.325,15.724,23.519,8.918,25.617
						c-6.806,2.099-15.397,1.292-15.397,1.292L630.021,998.224z"/>
					<path style="fill:#D28572;" d="M635.006,978.493l-6.265,57.653c-0.531,4.891-3.742,9.078-8.326,10.862l0,0
						c-3.203,1.246-6.766,1.192-9.93-0.15l-35.684-15.141l-4.814-32.505l28.888-30.26L635.006,978.493z"/>
					<polygon style="fill:#FED3D1;" points="549.167,1046.667 532.083,1084.583 598.333,1095 602.917,1065.417 					"/>
					<path style="fill:#1B1B43;" d="M592.682,999.135c0,0,29.29-4.943,42.325-20.642c0,0,4.831-30.36-39.831-34.383
						c-48.454-4.364-93.889,64.195-93.889,64.195l59.193,51.702L592.682,999.135z"/>
					<path style="fill:#D28572;" d="M581.786,1006.38c3.333,6.482,10.065,9.664,15.036,7.107c4.972-2.556,6.3-9.883,2.967-16.365
						c-3.333-6.482-10.065-9.664-15.036-7.107C579.782,992.572,578.454,999.898,581.786,1006.38z"/>
					<path style="fill:#1B1B43;" d="M592.826,1006.431c-0.204-1.383-1.202-5.296-3.341-6.763c-0.82-0.563-1.737-0.722-2.804-0.479
						l-0.549-2.439c1.761-0.396,3.367-0.106,4.774,0.861c3.477,2.393,4.358,8.214,4.394,8.46L592.826,1006.431z"/>
					<circle style="opacity:0.3;fill:#BE443D;" cx="613.906" cy="1013.594" r="9.688"/>
				</g>
				<g>
					<path style="fill:#FE5B52;" d="M619.95,1169.6c-3.875,14.375-13.975,26.7-28.3,32.625c-0.85,0.35-1.7,0.675-2.575,1
						c-0.85,0.3-1.675,0.625-2.5,0.925c-26.725,10.5-47.65,32.5-56,60.05c-0.475,1.6-0.875,3.125-1.2,4.55
						c0,0-55.625,8.125-111.875-23.125c0,0,31-109.975,99.425-162.3c15.825-12.1,36.6-15.6,55.6-9.575
						c8.325,2.65,16.1,6.575,23.1,11.6c6.975,5.05,13.175,11.175,18.325,18.225l1.225,1.7l6.05,44.15
						C622.175,1156.3,621.675,1163.15,619.95,1169.6z"/>
					<path style="fill:#BE443D;" d="M619.95,1169.6c-3.875,14.375-13.975,26.7-28.3,32.625c-0.85,0.35-1.7,0.675-2.575,1
						c-0.85,0.3-1.675,0.625-2.5,0.925c-8.65-21.225-15.75-54.975-15.75-54.975l41.675,5.525L619.95,1169.6z"/>
					<path style="fill:#D28572;" d="M710,1122.5c0,0,36.605-39.13,48.125-36.25c5,1.25-10,16.875-10,16.875
						s14.306,0.275,37.24-11.565c2.507-1.294,5.597-0.188,6.683,2.416l0,0c0.683,1.64,0.413,3.511-0.703,4.894
						c-4.855,6.016-19.32,22.203-39.47,29.256l-8.55,11.05l-21.45,10.2L710,1122.5z"/>
					<path style="fill:#FE5B52;" d="M743.325,1139.175l-47.875,85.35c-5.95,10.575-17.125,17.15-29.275,17.15
						c-4.875,0-9.625-1.075-13.95-3.05c-4.325-1.975-8.225-4.875-11.425-8.575l-69.975-80.875l44.35-43.9l48.575,66.6L710,1122.5
						L743.325,1139.175z"/>
					<path style="fill:#1B1B43;" d="M677.385,1196.611c-28.083-43.843-65.376-95.739-85.385-112.849l1.625-1.9
						c23.086,19.741,64.836,80.57,85.865,113.401L677.385,1196.611z"/>
					<path style="fill:#1B1B43;" d="M667.422,1244.037c-5.114,0-10.448-1.427-15.792-4.313
						c-15.317-8.272-79.068-86.438-81.775-89.761l1.938-1.578c0.66,0.81,66.141,81.101,81.025,89.14
						c16.931,9.145,28.421,0.831,33.764-4.938c8.512-9.192,55.179-93.173,55.649-94.02l2.186,1.213
						c-1.927,3.471-47.286,85.093-56.001,94.506C682.434,1240.749,675.183,1244.037,667.422,1244.037z"/>
				</g>
				<g>
					<path style="fill:#1B1B43;" d="M588.75,1582.082l-43.114,85.017l9.418,1.333l15.631-22.194l49.003,34.594l28.732-0.12
						c0,0,5.83-5.785-9.094-21.295c-17.546-18.235-27.579-42.146-27.119-67.1l0.04-2.151l-11.752-11.99L588.75,1582.082z"/>
					<path style="fill:#393A8F;" d="M590.553,1608.65l-9.512,72.034h9.512l12.365-24.166l45.656,23.237h36.144
						c0,0,4.961-6.545-11.99-19.81c-19.929-15.596-33.215-37.864-36.257-62.636l-0.262-2.135l-13.316-10.224L590.553,1608.65z"/>
					<path style="fill:#1B1B43;" d="M641.25,1617.5l66.914-235.296c5.395-18.972-3.647-39.074-21.422-47.623l-60.259-28.983
						l-3.591,279.351L641.25,1617.5z"/>
					<path style="fill:#5254CF;" d="M417.5,1245.625l-13.48,64.175c-7.871,37.474,20.724,72.7,59.016,72.7h126.13
						c-12.618,61.66-4.417,146.477,0,233.75l52.083,1.25l35.928-224.31c6.01-37.525-15.164-74.11-50.695-87.593l-97.108-36.848
						L417.5,1245.625z"/>
					<path style="opacity:0.4;fill:#FFFFFF;" d="M626.24,1617.661l-2.479-0.322c0.275-2.114,27.389-211.914,20.012-250.437
						c-7.622-39.805-84.358-51.295-125.583-57.468c-3.669-0.549-7.045-1.055-10.052-1.533c-10.328-1.644-17.674-6.102-21.835-13.251
						c-8.208-14.102-1.112-33.44-0.806-34.256l2.341,0.877c-0.07,0.189-6.984,19.062,0.63,32.13
						c3.767,6.465,10.517,10.513,20.063,12.031c3.001,0.478,6.369,0.981,10.029,1.529c41.837,6.265,119.714,17.926,127.668,59.47
						c3.133,16.362,0.721,63.623-7.171,140.467C633.185,1564.066,626.309,1617.132,626.24,1617.661z"/>
				</g>
			</g>
			<g>
				<g>
					<polygon style="fill:#B0B0D2;" points="446.15,1392.65 437.525,1442.5 396.25,1681.075 378.9,1681.075 420.175,1442.5 
						428.8,1392.65 					"/>
					<polygon style="fill:#B0B0D2;" points="561.15,1681.075 543.8,1681.075 502.525,1442.5 493.9,1392.65 511.25,1392.65 
						519.875,1442.5 					"/>
					<polygon style="opacity:0.3;fill:#1B1B43;" points="446.15,1392.65 437.525,1442.5 420.175,1442.5 428.8,1392.65 					"/>
					<polygon style="opacity:0.3;fill:#1B1B43;" points="519.875,1442.5 502.525,1442.5 493.9,1392.65 511.25,1392.65 					"/>
				</g>
				<path style="fill:#CBCBFF;" d="M546.654,1406.25H384.295v-23.75h162.358c6.558,0,11.875,5.317,11.875,11.875l0,0
					C558.529,1400.933,553.212,1406.25,546.654,1406.25z"/>
				<path style="fill:#CBCBFF;" d="M407.212,1406.25h-22.917l-77.406-189.743c-2.155-5.283,0.201-11.329,5.362-13.761v0
					c5.568-2.623,12.197-0.036,14.515,5.666L407.212,1406.25z"/>
			</g>
		</g>
		<g>
			<g>
				<g>
					<path style="fill:#D28572;" d="M1461.774,996.588c-0.588,0.298-16.647,22.685-9.976,25.066
						c6.671,2.381,15.243,1.954,15.243,1.954L1461.774,996.588z"/>
					<polygon style="fill:#FFBC96;" points="1542.877,1079.871 1489.392,1086.203 1490.382,1059.091 1491.39,1032.101 
						1492.243,1009.027 1507.324,1003.002 1530.918,1031.299 					"/>
					<path style="fill:#D28572;" d="M1513.626,1032.497c0,0-7.126,12.328-23.244,26.594l1.008-26.989L1513.626,1032.497z"/>
					<path style="fill:#FFBC96;" d="M1457.678,976.766l3.717,57.558c0.315,4.883,3.323,9.184,7.8,11.156h0
						c3.128,1.378,6.671,1.479,9.873,0.283l36.115-13.492l6.197-32.088l-27.387-31.324L1457.678,976.766z"/>
					<path style="fill:#1B1B43;" d="M1499.476,1000.163c0,0-8.87-17.219-18.105-19.853c0,0-35.561,11.587-43.392-15.685
						c0,0,20.036,0.19,37.21-11.831c17.173-12.022,35.088-6.252,47.491,4.968c0,0,40.522,1.999,8.573,73.496
						c0,0-8.03,2.664-28.478-25.898L1499.476,1000.163z"/>
					<path style="fill:#FFBC96;" d="M1509.437,1006.05c-3.594,6.295-10.388,9.183-15.177,6.45
						c-4.788-2.733-5.757-10.052-2.163-16.348s10.388-9.183,15.177-6.45C1512.062,992.436,1513.031,999.755,1509.437,1006.05z"/>
					<ellipse style="opacity:0.4;fill:#FE5B52;" cx="1478.594" cy="1010.625" rx="9.844" ry="10"/>
					<path style="fill:#1B1B43;" d="M1497.826,1005.499c-0.488-3.24,0.407-9.888,7.299-11.857l0.688,2.404
						c-6.525,1.864-5.559,8.786-5.514,9.08L1497.826,1005.499z"/>
				</g>
				<polygon style="fill:#CBCBFF;" points="1489.392,1086.203 1490,1058.333 1537.083,1046.25 1550.833,1080.833 				"/>
				<path style="fill:#1B1B43;" d="M1496.667,1075c-23.633,23.001-40.833,57.5-62.5,92.5c0,0-73.438,18.958-94.479,40l37.813,19.167
					l129.167-35.833L1496.667,1075z"/>
				<g>
					<path style="fill:#1B1B43;" d="M1305.708,1596.952l-29.458,83.643l-92.174-22.997c0,0,14.341-19.612,57.596-13.973
						l22.999-64.641L1305.708,1596.952z"/>
					<path style="fill:#393A8F;" d="M1490,1266.25l-133.126,43.266c-31.257,10.159-55.129,35.626-63.247,67.474L1240,1598.75
						l72.5,18.75c28.419-67.372,56.026-147.77,75-225.833L1490,1266.25z"/>
					<path style="fill:#1B1B43;" d="M1441.667,1603.286l10.833,77.5h-100.833c0,0,9.167-22.5,52.5-27.5l-2.5-46.667
						L1441.667,1603.286z"/>
					<path style="fill:#5254CF;" d="M1610.687,1244.159l13.48,64.175c7.871,37.474-20.25,74.792-58.542,74.792h-121.25
						c6.813,62.3,13.376,144.386,8.958,231.659l-66.396,1.25l-35.928-224.31c-6.01-37.525,15.164-74.11,50.695-87.593L1490,1266.25
						L1610.687,1244.159z"/>
				</g>
				<path style="fill:#1B1B43;" d="M1615,1265c-10.916-104.31-26.54-202.735-105.112-198.207c-4.66,0.269-9.036,2.356-12.337,5.656
					l0,0c-13.515,13.515-20.426,32.276-18.907,51.329L1490,1266.25C1490,1266.25,1551.25,1277.5,1615,1265z"/>
				<g>
					<path style="fill:#FFBC96;" d="M1339.688,1206.563c0,0-46.25,8.75-53.75,35h65.625l12.5-8.75L1339.688,1206.563z"/>
					<path style="fill:#1B1B43;" d="M1510.313,1089.688l-60,93.125l-110.625,23.75l11.875,35l92.752-0.474
						c24.905-0.486,46.215-13.506,60.06-34.213l51.563-74.063L1510.313,1089.688z"/>
				</g>
				<path style="fill:#5254CF;" d="M1339.95,1207.784l-0.525-2.443l109.943-23.604c2.929-8.267,5.838-16.828,8.653-25.115
					c11.55-33.991,22.46-66.098,35.989-83.636l1.979,1.527c-13.275,17.209-24.119,49.124-35.601,82.913
					c-2.893,8.515-5.885,17.319-8.898,25.804l-0.233,0.658l-0.682,0.146L1339.95,1207.784z"/>
				<path style="fill:#5254CF;" d="M1405.99,1243.3c-25.726,0-52.437-0.453-54.449-0.487l0.043-2.5
					c0.901,0.016,90.291,1.532,101.27-0.908l0.337-0.074c26.516-5.904,48.529-24.471,58.888-49.667l12.391-30.139l2.313,0.951
					l-12.391,30.139c-10.669,25.95-33.344,45.074-60.655,51.155l-0.335,0.074C1448.272,1242.984,1427.474,1243.3,1405.99,1243.3z"/>
			</g>
			<g>
				<g>
					<polygon style="fill:#B0B0D2;" points="1637.407,1681.067 1654.761,1681.067 1604.859,1392.644 1587.504,1392.644 					"/>
					<polygon style="fill:#B0B0D2;" points="1489.859,1681.067 1472.504,1681.067 1522.407,1392.644 1539.761,1392.644 					"/>
					<g>
						<polygon style="opacity:0.3;fill:#1B1B43;" points="1539.729,1392.644 1531.104,1442.494 1513.754,1442.494 
							1522.379,1392.644 						"/>
						<polygon style="opacity:0.3;fill:#1B1B43;" points="1613.454,1442.494 1596.104,1442.494 1587.479,1392.644 
							1604.829,1392.644 						"/>
					</g>
				</g>
				<path style="fill:#CBCBFF;" d="M1487.003,1406.25h162.358v-23.75h-162.358c-6.558,0-11.875,5.317-11.875,11.875l0,0
					C1475.128,1400.933,1480.445,1406.25,1487.003,1406.25z"/>
				<path style="fill:#CBCBFF;" d="M1626.445,1406.25h22.917l77.406-189.743c2.155-5.283-0.201-11.329-5.362-13.761v0
					c-5.568-2.623-12.197-0.036-14.515,5.666L1626.445,1406.25z"/>
			</g>
		</g>
		<rect x="217.766" y="1679.583" style="fill:#1B1B43;" width="1592.419" height="2.5"/>
	</g>
</g>
</svg>
