<svg xmlns="http://www.w3.org/2000/svg" xmlns:xlink="http://www.w3.org/1999/xlink" xmlns:v="http://vecta.io" width="3010" height="2010" viewBox="0 0 3010 2010">
    <style>
        <![CDATA[svg{stroke:#000;stroke-linecap:round;stroke-linejoin:round;fill:#fff;fill-rule:evenodd;font-family:Roboto;font-size:14px;text-anchor:middle;}svg text{paint-order:stroke;white-space:pre;}svg .Text\.cls{stroke:none;}]]>
    </style>
    <defs>
        <linearGradient id="L17-68210605A62C3504D55BD1003940AB.grad" x1="17.37%" x2="82.45%" y1="-6.50%" y2="106.62%">
            <stop stop-color="#5A62C3" offset="0%"/>
            <stop offset="50%" stop-color="#4D55BD"/>
            <stop offset="100%" stop-color="#3940AB"/>
        </linearGradient>
    </defs>
    <g transform="translate(10 10)">
        <g>
            <g>
                <g>
                    <g transform="translate(-10 -10)" class="BACKGROUND.lay" v:layer_name="BACKGROUND">
                        <path d="M 0 0 L 3000 0 L 3000 2000 L 0 2000 Z" stroke="none" stroke-linejoin="miter" stroke-linecap="butt" fill-rule="nonzero"/>
                    </g>
                    <g transform="translate(885.8776 1035.5524)" class="OBJECTS.lay" v:layer_name="OBJECTS">
                        <path d="M 1049.2644 680.1086 C 1057.7734 675.0886 1066.1974 669.9096 1074.5284 664.5576 C 1180.6883 596.3576 1271.7865 495.8776 1301.8724 373.3376 C 1331.9584 250.7975 1288.9044 106.4346 1181.1075 40.8526 C 1087.3865 -16.1654 967.3915 -5.4844 861.8335 24.3875 C 756.2765 54.2596 654.5945 101.4776 545.4754 112.7836 C 416.2384 126.1746 277.6744 89.4516 160.3044 145.1816 C 30.0344 207.0366 -28.6876 376.0666 13.5194 513.9605 C 32.8664 577.1696 69.8184 632.8546 117.5524 678.3555 L 1049.2644 680.1086 Z" stroke="none" stroke-linejoin="miter" stroke-linecap="butt" fill="#ebebff" opacity="0.3" fill-rule="nonzero"/>
                    </g>
                    <g transform="translate(869.7779 1002.9391)" class="OBJECTS.lay" v:layer_name="OBJECTS">
                        <path d="M 254.5681 712.19 L 254.1751 711.94 C 245.8512 706.6549 237.6121 701.194 229.6892 695.7059 C 113.9681 615.632 35.6772 507.5259 9.2381 391.2999 C -21.8639 254.585 27.6131 108.1049 126.8811 43.007 C 204.2362 -7.7201 308.6041 -13.6041 437.0802 25.523 C 470.4901 35.6989 504.0191 47.996 536.4452 59.8899 C 603.0501 84.3239 671.9221 109.585 742.7892 117.4679 C 786.6522 122.3389 832.3712 120.7529 876.5862 119.2059 C 957.9022 116.366 1041.9841 113.4329 1115.9301 151.241 C 1237.477 213.3859 1301.4651 386.6279 1258.5752 537.4249 C 1240.059 602.5189 1202.3991 654.0189 1132.6491 709.6279 L 1132.2152 709.9719 L 1131.6601 709.976 L 254.5681 712.19 Z M 283.3591 3.1859 C 223.5482 3.1859 171.8061 17.354 128.6272 45.6699 C 30.4322 110.065 -18.4729 255.127 12.3441 390.596 C 38.6081 506.0369 116.4402 613.4669 231.5022 693.0879 C 239.2682 698.4629 247.3361 703.815 255.4901 709.002 L 1131.0971 706.7909 C 1200.0112 651.7559 1237.2302 600.8219 1255.5112 536.549 C 1298.007 387.143 1234.7382 215.565 1114.4762 154.0759 C 1041.2691 116.6499 957.6091 119.58 876.6952 122.388 C 832.3672 123.939 786.5351 125.5399 742.4371 120.6299 C 671.1871 112.7079 602.1301 87.3759 535.3491 62.8799 C 502.9641 51.0009 469.4762 38.716 436.1501 28.5669 C 380.5761 11.6429 329.5582 3.1859 283.3591 3.1859 Z" stroke="none" stroke-linejoin="miter" stroke-linecap="butt" fill="#9192ff" opacity="0.6" fill-rule="nonzero"/>
                    </g>
                    <g transform="translate(2272.271 1540.863)" class="OBJECTS.lay" v:layer_name="OBJECTS">
                        <path d="M 56.771 106.0659 C 25.4661 106.0659 0 82.277 0 53.033 C 0 23.7889 25.4651 0 56.771 0 C 88.077 0 113.546 23.7889 113.546 53.033 C 113.546 82.277 88.077 106.0659 56.771 106.0659 Z M 56.771 19.7689 C 36.3711 19.7689 19.77 34.6899 19.77 53.032 C 19.77 71.374 36.3711 86.2949 56.771 86.2949 C 77.175 86.2949 93.7762 71.374 93.7762 53.032 C 93.7762 34.6899 77.176 19.7689 56.771 19.7689 Z" stroke="none" stroke-linejoin="miter" stroke-linecap="butt" fill="#3335cf" fill-rule="nonzero"/>
                    </g>
                    <g transform="translate(2163.551 1497.017)" class="OBJECTS.lay" v:layer_name="OBJECTS">
                        <path d="M 145.481 215.566 L 21.238 215.566 L 0 0 L 166.719 0 Z" stroke="none" stroke-linejoin="miter" stroke-linecap="butt" fill-rule="nonzero"/>
                    </g>
                    <g transform="translate(2161.207 1494.891)" class="OBJECTS.lay" v:layer_name="OBJECTS">
                        <path d="M 149.75 219.816 L 21.656 219.816 L 0 0 L 171.406 0 L 149.75 219.816 Z M 25.5081 215.566 L 145.8989 215.566 L 166.719 4.25 L 4.688 4.25 L 25.5081 215.566 Z" stroke="none" stroke-linejoin="miter" stroke-linecap="butt" fill="#3335cf" fill-rule="nonzero"/>
                    </g>
                    <g transform="translate(2192.554 1559.533)" class="OBJECTS.lay" v:layer_name="OBJECTS">
                        <path d="M 94.864 135.134 L 13.8491 135.134 L 0 0 L 108.7131 0 Z" stroke="none" stroke-linejoin="miter" stroke-linecap="butt" fill="#ebebff" fill-rule="nonzero"/>
                    </g>
                    <g transform="translate(1379.5285 416.5364)" class="OBJECTS.lay" v:layer_name="OBJECTS">
                        <path d="M 63.3086 0.2176 C 33.2955 14.1116 -6.6565 36.4696 0.9425 76.2157 C 8.3975 115.2066 55.4525 108.1696 82.9226 98.8496 C 103.2716 91.9467 122.9245 82.6686 141.0216 71.0656 C 152.7735 63.5306 169.3005 50.5146 165.2895 34.3756 C 161.8435 20.5126 145.7595 16.4606 133.3985 18.9996 C 115.4685 22.6836 95.0045 33.5986 80.9596 45.1126 C 68.2125 55.5616 58.2816 71.8316 60.7805 88.8956 C 63.0645 104.4926 75.9386 115.6106 90.2666 120.5036 C 108.1225 126.6016 132.3455 125.3516 150.2995 119.9016 C 161.2086 116.5907 171.2955 106.7096 164.1576 94.8956 C 155.7075 80.9106 138.1705 84.2927 126.0105 90.4497 C 109.5965 98.7606 90.1645 109.6187 82.0476 127.0437 C 75.8845 140.2746 76.8625 156.6817 88.8535 166.2636 C 100.6005 175.6516 117.5545 175.6876 131.7855 174.6016 C 143.5665 173.7027 162.7976 171.2417 164.6676 156.3866 C 166.5545 141.4036 148.1325 134.5916 136.4265 139.0147 C 118.2926 145.8667 106.9326 168.2246 101.4365 185.5396 C 94.9436 205.9956 95.0526 227.8817 101.3656 248.3416 C 102.1695 250.9456 106.2705 249.8346 105.4615 247.2127 C 97.2475 220.5936 100.1005 191.3466 114.1535 167.1586 C 120.8855 155.5716 134.1485 137.2556 149.9906 142.3806 C 158.4495 145.1176 164.4486 155.1326 156.9495 162.6726 C 151.6805 167.9707 142.7976 169.2616 135.7235 170.0177 C 125.4546 171.1156 114.4176 171.5567 104.3265 168.9606 C 86.9145 164.4796 78.2556 148.7337 84.7356 131.5466 C 90.0205 117.5277 102.9705 108.7257 115.3045 101.3646 C 127.0266 94.3696 150.3966 79.7306 160.4895 97.0396 C 171.7945 116.4276 135.0185 118.4837 124.9245 119.2456 C 110.0925 120.3656 94.3895 119.8316 81.4135 111.6666 C 67.6795 103.0256 61.5385 88.0966 66.5285 72.4456 C 71.5485 56.7027 84.6215 46.2126 98.5815 38.4986 C 109.4725 32.4806 122.2375 25.4666 134.5285 23.0956 C 143.1925 21.4246 154.1275 22.7926 159.2926 31.0166 C 165.4725 40.8576 158.1046 51.6006 150.9715 58.3166 C 130.9975 77.1236 100.8305 89.0067 75.0285 96.9426 C 48.1485 105.2106 4.0555 106.9976 4.4405 67.4376 C 4.7735 33.2236 38.6135 16.3096 65.4525 3.8846 C 67.9305 2.7386 65.7755 -0.9234 63.3086 0.2176 L 63.3086 0.2176 Z" stroke="none" stroke-linejoin="miter" stroke-linecap="butt" fill="#1b1b43" fill-rule="nonzero"/>
                    </g>
                    <g transform="translate(1128.058 617.064)" class="OBJECTS.lay" v:layer_name="OBJECTS">
                        <path d="M 6.254 0 C 13.135 14.475 19.397 29.17 25.489 43.926 L 34.4041 66.139 L 42.952 88.482 L 30.196 84.728 L 51.61 67.925 C 58.7581 62.337 66.053 56.94 73.2681 51.439 L 81.993 44.785 L 86.025 54.874 C 88.927 62.1349 91.6171 69.483 94.4241 76.783 C 97.204 84.094 99.7781 91.489 102.4661 98.838 C 104.994 106.252 107.634 113.621 110.0131 121.0959 C 112.478 128.5359 114.7791 136.043 116.9351 143.6089 L 110.788 146.123 C 107.0231 139.215 103.4041 132.2469 99.948 125.212 C 96.406 118.213 93.125 111.106 89.733 104.046 C 86.5 96.92 83.1531 89.841 80.0131 82.677 C 76.899 75.503 73.6691 68.375 70.65 61.162 L 83.406 64.597 C 76.245 70.1689 69.166 75.845 61.939 81.33 L 40.228 97.7469 L 31.009 104.718 L 27.4711 93.993 L 19.9771 71.274 L 12.85 48.425 C 8.2471 33.139 3.813 17.793 0 2.226 L 6.254 0 Z" stroke="none" stroke-linejoin="miter" stroke-linecap="butt" fill="#ffa121" fill-rule="nonzero"/>
                    </g>
                    <g transform="translate(1622.959 661.666)" class="OBJECTS.lay" v:layer_name="OBJECTS">
                        <path d="M 116.9351 2.225 C 113.1221 17.792 108.688 33.138 104.085 48.424 L 96.958 71.273 L 89.464 93.992 L 85.926 104.7179 L 76.707 97.747 L 54.996 81.33 C 47.769 75.845 40.689 70.168 33.5281 64.597 L 46.2841 61.162 C 43.265 68.375 40.035 75.503 36.921 82.677 C 33.78 89.841 30.434 96.92 27.201 104.0459 C 23.809 111.107 20.5281 118.213 16.986 125.212 C 13.531 132.247 9.911 139.215 6.147 146.123 L 0 143.609 C 2.156 136.042 4.457 128.536 6.922 121.096 C 9.301 113.621 11.9401 106.252 14.469 98.838 C 17.156 91.489 19.731 84.094 22.511 76.783 C 25.318 69.483 28.0081 62.135 30.91 54.874 L 34.942 44.785 L 43.667 51.439 C 50.881 56.941 58.177 62.338 65.3251 67.925 L 86.739 84.728 L 73.983 88.482 L 82.531 66.139 L 91.446 43.926 C 97.538 29.17 103.7991 14.475 110.681 0 L 116.9351 2.225 Z" stroke="none" stroke-linejoin="miter" stroke-linecap="butt" fill="#ffa121" fill-rule="nonzero"/>
                    </g>
                    <g transform="translate(1020.219 1093.738)" class="OBJECTS.lay" v:layer_name="OBJECTS">
                        <path d="M 607.792 8.963 L 460.187 0 L 267.6 50.887 C 200.063 68.7269 145.226 117.999 120.335 183.2429 L 0 498.374 L 236.465 288.839 L 301.595 618.7379 L 743.348 617.322 L 741.932 159.287 L 607.792 8.963 Z" stroke="none" stroke-linejoin="miter" stroke-linecap="butt" fill="#3335cf" fill-rule="nonzero"/>
                    </g>
                    <g transform="translate(1441.9981 1221.141)" class="OBJECTS.lay" v:layer_name="OBJECTS">
                        <path d="M 68.2519 52.574 C 41.5019 52.574 16.5229 42.156 0 23.746 L 3.1599 20.91 C 20.8419 40.609 48.7949 50.715 77.892 47.855 C 109.08 44.828 136.333 27.386 152.669 0 L 156.3169 2.1801 C 139.282 30.735 110.8479 48.926 78.3049 52.0861 C 74.9359 52.41 71.5759 52.574 68.2519 52.574 Z" stroke="none" stroke-linejoin="miter" stroke-linecap="butt" fill="#c5c5ff" fill-rule="nonzero"/>
                    </g>
                    <g transform="translate(1368.098 939.464)" class="OBJECTS.lay" v:layer_name="OBJECTS">
                        <path d="M 160.5179 276.606 C 132.229 290.283 97.483 276.776 83.254 246.533 L 78.454 236.296 L 29.776 132.866 L 0 69.534 L 143.8669 0 L 206.52 133.12 C 232.261 187.873 211.745 251.842 160.5179 276.606 Z" stroke="none" stroke-linejoin="miter" stroke-linecap="butt" fill="#ffbc96" fill-rule="nonzero"/>
                    </g>
                    <g transform="translate(1397.874 1045.613)" class="OBJECTS.lay" v:layer_name="OBJECTS">
                        <path d="M 127.811 0 C 115.153 61.6759 83.5079 103.9399 48.678 130.147 L 0 26.7169 L 127.811 0 Z" stroke="none" stroke-linejoin="miter" stroke-linecap="butt" fill="#1b1b43" fill-rule="nonzero"/>
                    </g>
                    <g transform="translate(1301.9067 847.375)" class="OBJECTS.lay" v:layer_name="OBJECTS">
                        <path d="M 240.6523 121.058 C 240.6523 195.54 198.6573 246.597 145.3894 272.916 C 90.5714 300.001 33.3314 195.937 5.9903 126.367 C -22.3876 54.157 55.7353 0 121.1384 0 C 186.5413 0.001 240.6523 46.576 240.6523 121.058 Z" stroke="none" stroke-linejoin="miter" stroke-linecap="butt" fill="#ffbc96" fill-rule="nonzero"/>
                    </g>
                    <g transform="translate(1210.668 772.2228)" class="OBJECTS.lay" v:layer_name="OBJECTS">
                        <path d="M 334.854 153.7341 C 328.483 77.2772 312.943 5.0012 242.114 23.4742 C 215.213 -14.0468 102.65 -13.3389 75.041 75.8612 C 57.23 133.4052 0 161.5212 0 161.5212 C 68.67 197.6262 131.974 184.1042 220.1691 116.9212 C 247.7781 157.2731 326.359 160.1052 326.359 160.1052 L 334.854 153.7341 Z" stroke="none" stroke-linejoin="miter" stroke-linecap="butt" fill="#1b1b43" fill-rule="nonzero"/>
                    </g>
                    <g transform="translate(1498.6733 913.5414)" class="OBJECTS.lay" v:layer_name="OBJECTS">
                        <path d="M 29.0323 87.6485 C 10.1011 85.2207 -2.6395 63.7707 0.466 39.5543 C 3.5715 15.3379 21.3122 -2.2033 40.2435 0.2244 C 59.1748 2.6522 71.9153 24.1022 68.8098 48.3186 C 65.7044 72.535 47.9636 90.0762 29.0323 87.6485 Z" stroke="none" stroke-linejoin="miter" stroke-linecap="butt" fill="#ffbc96" fill-rule="nonzero" stroke-width="1.0000556977429744"/>
                    </g>
                    <g transform="translate(1527.832 937.044)" class="OBJECTS.lay" v:layer_name="OBJECTS">
                        <path d="M 12.369 2.263 C 7.7949 6.035 6.293 11.147 6.3409 16.61 C 6.375 19.315 6.804 22.059 7.5919 24.672 C 8.421 27.283 9.536 29.749 11.4199 31.915 L 10.157 34.062 C 6.661 32.915 4.0499 29.971 2.442 26.861 C 0.799 23.702 0.001 20.181 0 16.627 C 0.026 13.09 0.823 9.421 2.797 6.286 C 4.705 3.141 7.8989 0.703 11.3319 0 L 12.369 2.263 Z" stroke="none" stroke-linejoin="miter" stroke-linecap="butt" fill="#1b1b43" fill-rule="nonzero"/>
                    </g>
                    <g transform="translate(1410.0489 973.3321)" class="OBJECTS.lay" v:layer_name="OBJECTS">
                        <path d="M 0.0304 12.741 C -0.411 6.0883 4.0127 0.4155 9.949 0.0216 C 15.8854 -0.3723 21.0197 4.6664 21.4611 11.3192 C 21.9025 17.9719 17.4788 23.6447 11.5425 24.0386 C 5.6061 24.4324 0.4717 19.3938 0.0304 12.741 Z" stroke="none" stroke-linejoin="miter" stroke-linecap="butt" fill="#1b1b43" fill-rule="nonzero" stroke-width="1.0000630043380572"/>
                    </g>
                    <g transform="translate(1354.6046 996.1985)" class="OBJECTS.lay" v:layer_name="OBJECTS">
                        <path d="M 0.825 14.2988 C -1.3579 8.6558 0.9385 2.5447 5.9739 0.5968 C 11.0092 -1.351 16.8204 1.6238 19.0033 7.2669 C 21.1862 12.9099 18.8898 19.021 13.8545 20.9689 C 8.8191 22.9167 3.0079 19.9419 0.825 14.2988 Z" stroke="none" stroke-linejoin="miter" stroke-linecap="butt" fill="#1b1b43" fill-rule="nonzero" stroke-width="1.0000888488375188"/>
                    </g>
                    <g transform="translate(1402.5797 946.4341)" class="OBJECTS.lay" v:layer_name="OBJECTS">
                        <path d="M 47.3163 7.9069 C 47.5393 11.2739 29.6534 10.1919 21.9673 11.8149 C 15.4053 13.2009 5.4113 19.5929 0.9053 13.2119 C -3.1587 7.4559 7.0523 0.9279 19.7044 0.0889 C 32.3573 -0.7501 47.0923 4.5399 47.3163 7.9069 Z" stroke="none" stroke-linejoin="miter" stroke-linecap="butt" fill="#1b1b43" fill-rule="nonzero"/>
                    </g>
                    <g transform="translate(1334.1463 968.0024)" class="OBJECTS.lay" v:layer_name="OBJECTS">
                        <path d="M 0.4637 23.3555 C 2.4737 26.1136 11.6057 16.6246 16.8518 14.1906 C 21.3308 12.1126 30.8657 12.3176 29.2967 5.1196 C 27.8817 -1.3724 18.1427 -1.5795 10.6667 3.8696 C 3.1898 9.3186 -1.5473 20.5975 0.4637 23.3555 Z" stroke="none" stroke-linejoin="miter" stroke-linecap="butt" fill="#1b1b43" fill-rule="nonzero"/>
                    </g>
                    <g transform="translate(1406.224 1054.5568)" class="OBJECTS.lay" v:layer_name="OBJECTS">
                        <path d="M 0 12.6012 C 4.093 7.6742 9.938 4.4802 15.8621 2.4852 C 21.849 0.5243 28.005 -0.3358 34.219 0.1192 L 34.677 2.5672 C 29.038 5.2433 23.323 6.7342 17.825 8.5152 C 12.2791 10.2302 7.068 12.2712 1.491 14.5962 L 0 12.6012 Z" stroke="none" stroke-linejoin="miter" stroke-linecap="butt" fill="#1b1b43" fill-rule="nonzero"/>
                    </g>
                    <g transform="translate(1372.5545 1013.563)" class="OBJECTS.lay" v:layer_name="OBJECTS">
                        <path d="M 17.5686 0.246 C 17.8806 4.871 17.1955 9.8 14.8065 14.301 C 13.6555 16.546 11.9975 18.573 10.3205 20.262 C 8.6715 21.953 6.9985 23.368 6.6025 24.38 C 6.4746 24.894 6.2485 25.293 6.3635 26.056 C 6.3375 26.5181 6.4646 26.543 6.4375 26.619 C 6.4515 26.733 6.6306 26.886 6.7406 27.085 C 7.5285 27.9771 9.4005 28.884 11.2725 29.574 C 15.1366 30.949 19.5065 31.876 23.8105 32.8981 L 23.7515 35.3881 C 19.1125 36.015 14.5015 35.986 9.7215 34.95 C 7.3365 34.358 4.8606 33.6691 2.3455 31.478 C 1.7666 30.823 1.1355 30.127 0.7385 29.214 C 0.3275 28.234 0.0615 27.205 0.0715 26.526 C -0.1515 25.056 0.1555 23.1901 0.8775 21.652 C 2.5295 18.6171 4.5955 17.275 6.1185 15.8521 C 7.7075 14.475 8.9956 13.072 10.1585 11.478 C 12.4555 8.285 13.8925 4.267 15.0896 0 L 17.5686 0.246 Z" stroke="none" stroke-linejoin="miter" stroke-linecap="butt" fill="#d28572" fill-rule="nonzero"/>
                    </g>
                    <g transform="translate(1451.6 975.5961)" class="OBJECTS.lay" v:layer_name="OBJECTS">
                        <path d="M 26.8329 54.3267 C 11.785 54.1431 -0.1815 41.8809 0.0021 26.833 C 0.1857 11.7851 12.4478 -0.1815 27.4958 0.0021 C 42.5437 0.1857 54.5102 12.4479 54.3266 27.4958 C 54.143 42.5438 41.8809 54.5103 26.8329 54.3267 Z" stroke="none" stroke-linejoin="miter" stroke-linecap="butt" fill="#fe5b52" opacity="0.2" fill-rule="nonzero" stroke-width="0.9999563862232714"/>
                    </g>
                    <g transform="translate(1628.011 1102.7)" class="OBJECTS.lay" v:layer_name="OBJECTS">
                        <path d="M 246.0639 153.8921 C 204.097 65.6271 117.489 7.1791 19.921 1.2321 L 0 0 L 146.933 334.583 L 307.76 274.8821 L 246.0639 153.8921 Z" stroke="none" stroke-linejoin="miter" stroke-linecap="butt" fill="#3335cf" fill-rule="nonzero"/>
                    </g>
                    <g transform="translate(1055.9179 920.434)" class="OBJECTS.lay" v:layer_name="OBJECTS">
                        <path d="M 304.8331 118.091 C 303.24 93.667 307.4881 36.324 292.621 42.696 C 277.7541 49.068 274.037 131.89 274.037 131.89 C 274.037 131.89 271.9131 -6.158 255.985 0.214 C 240.0561 6.586 240.0561 106.405 205.0141 212.595 L 8.204 628.241 C -15.4709 678.2399 14.354 737.145 68.667 747.6569 L 68.667 747.6569 C 108.505 755.367 148.204 733.743 163.3531 696.1 C 214.3271 569.441 307.9561 296.101 317.0451 242.866 C 324.4781 199.3279 322.5601 180.4999 319.6871 169.305 C 314.9391 150.805 306.0761 137.149 304.8331 118.091 Z" stroke="none" stroke-linejoin="miter" stroke-linecap="butt" fill="#ffbc96" fill-rule="nonzero"/>
                    </g>
                    <g transform="translate(1262.167 918.491)" class="OBJECTS.lay" v:layer_name="OBJECTS">
                        <path d="M 0 205.352 C 6.022 188.977 9.96 171.862 13.627 154.763 C 17.239 137.633 20.276 120.378 23.396 103.132 L 32.626 51.325 C 34.251 42.6949 35.937 34.0699 37.9561 25.478 C 38.972 21.183 40.0651 16.896 41.426 12.631 C 42.121 10.499 42.869 8.373 43.843 6.253 C 44.318 5.194 44.896 4.133 45.601 3.073 C 46.3671 2.069 47.1951 0.799 49.259 0.157 L 49.103 0.2 C 49.714 0.0779 50.369 0.008 50.996 0 C 51.59 0.092 52.174 0.316 52.7371 0.5359 C 53.634 1.072 54.491 1.757 54.959 2.431 C 56.1171 3.7939 56.764 5.1819 57.401 6.567 C 58.6219 9.3409 59.502 12.1299 60.2321 14.929 C 61.72 20.526 62.764 26.154 63.672 31.792 C 65.446 43.071 66.6591 54.389 67.606 65.72 C 69.444 88.3849 70.425 111.098 70.204 133.8599 L 65.3719 133.7559 C 65.903 120.903 66.868 108.1469 68.326 95.382 C 69.8719 82.64 71.6541 69.876 75.665 57.377 C 76.7631 54.27 77.967 51.166 79.812 48.196 C 80.786 46.733 81.8719 45.257 83.4921 44.059 C 85.021 42.767 87.4091 42.15 89.593 42.447 C 90.105 42.563 90.587 42.751 91.083 42.916 C 91.593 43.137 92.002 43.129 92.646 43.6949 C 92.939 43.928 93.2209 44.18 93.481 44.441 C 93.71 44.691 93.788 44.887 93.946 45.115 C 94.199 45.547 94.548 46.028 94.6951 46.433 C 95.447 48.113 95.9301 49.732 96.34 51.348 C 97.174 54.577 97.6541 57.78 98.1219 60.991 C 99.78 73.824 100.218 86.6689 100.11 99.502 C 100.069 105.9739 99.662 112.254 100.2209 118.4749 C 100.7271 124.718 101.8671 130.905 103.4771 136.991 C 105.099 143.076 107.155 149.064 109.402 155.003 C 111.701 160.884 114.006 167.114 115.293 173.4529 C 118.031 186.16 118.332 199.22 117.157 212.0159 C 115.969 224.831 113.469 237.461 110.124 249.8239 L 108.282 249.343 C 111.377 237.002 113.616 224.445 114.551 211.806 C 115.476 199.184 114.928 186.4219 112.051 174.1879 C 110.665 168.023 108.541 162.227 106.1431 156.2449 C 103.835 150.259 101.697 144.17 99.99 137.925 C 98.2941 131.679 97.068 125.273 96.501 118.7869 C 95.88 112.273 96.259 105.7659 96.255 99.478 C 96.2841 86.787 95.7581 74.046 94.062 61.558 C 93.5911 58.459 93.098 55.339 92.312 52.389 C 91.933 50.915 91.472 49.473 90.9141 48.24 C 90.788 47.892 90.613 47.7469 90.48 47.483 C 90.324 47.149 90.2161 47.127 90.2161 47.127 C 90.328 47.048 89.876 46.965 89.658 46.8799 C 89.396 46.801 89.1331 46.675 88.877 46.606 C 86.994 46.305 84.949 47.968 83.431 50.488 C 81.9141 52.957 80.7891 55.842 79.786 58.753 C 76.05 70.625 74.3201 83.314 72.887 95.894 C 71.526 108.509 70.646 121.2399 70.204 133.903 L 65.3719 133.799 C 65.584 111.232 64.842 88.602 63.116 66.081 C 62.2421 54.823 61.101 43.582 59.4191 32.459 C 58.5601 26.9059 57.561 21.371 56.167 16.006 C 55.488 13.321 54.657 10.684 53.61 8.2679 C 53.092 7.084 52.485 5.876 51.796 5.086 C 51.469 4.581 51.1171 4.431 50.861 4.201 C 50.752 4.211 50.675 4.1349 50.588 4.0909 C 50.51 4.155 50.4611 4.157 50.368 4.107 L 50.2111 4.151 C 50.135 4.1429 49.441 4.657 48.957 5.41 C 48.449 6.174 47.957 7.035 47.532 7.974 C 46.663 9.8329 45.9351 11.844 45.262 13.874 C 43.932 17.955 42.83 22.164 41.804 26.394 C 39.762 34.862 38.031 43.442 36.361 52.033 L 26.834 103.751 C 23.694 121.0109 20.26 138.231 16.3621 155.3589 C 12.3881 172.4579 8.152 189.569 1.7791 206.033 L 0 205.352 Z" stroke="none" stroke-linejoin="miter" stroke-linecap="butt" fill="#d28572" fill-rule="nonzero"/>
                    </g>
                    <g transform="translate(1774.937 1377.571)" class="OBJECTS.lay" v:layer_name="OBJECTS">
                        <path d="M 237.739 233.491 C 237.017 282.424 215.694 316.6169 188.976 336.3259 L 134.734 335.476 L 121.312 335.2639 L 121.015 335.2639 L 57.2579 190.1229 L 57.131 189.783 L 0 59.7209 L 160.8149 0 L 220.834 147.307 C 233.152 179.886 238.121 208.6 237.739 233.491 Z" stroke="none" stroke-linejoin="miter" stroke-linecap="butt" fill="#ffbc96" fill-rule="nonzero"/>
                    </g>
                    <g transform="translate(1309.6925 1552.488)" class="OBJECTS.lay" v:layer_name="OBJECTS">
                        <path d="M 658.4685 0 L 236.3106 47.2319 L 181.3796 29.485 C 156.5136 21.4509 129.2815 26.3939 108.8636 42.7019 C 60.9635 80.96 -16.9115 151.479 3.2715 157.156 C 37.2525 166.713 81.6325 148.83 121.4755 138.825 C 143.4826 133.299 166.7315 135.9099 186.9275 146.2539 L 214.5475 160.401 L 635.1065 160.3409 L 658.4685 0 Z" stroke="none" stroke-linejoin="miter" stroke-linecap="butt" fill="#ffbc96" fill-rule="nonzero"/>
                    </g>
                    <g transform="translate(1323.019 1651.033)" class="OBJECTS.lay" v:layer_name="OBJECTS">
                        <path d="M 0 51.136 C 11.3929 44.473 22.958 38.1481 34.563 31.901 C 46.135 25.589 57.908 19.671 69.5699 13.537 C 75.3199 10.52 81.4779 7.4191 87.9049 5.191 C 94.3309 2.983 100.9729 1.374 107.714 0.631 C 114.45 -0.126 121.2429 -0.2009 127.9559 0.401 C 134.6539 1.139 141.286 2.4351 147.614 4.6121 L 146.9619 7.016 C 140.567 5.764 134.131 4.9201 127.6799 4.8461 C 121.2439 4.6331 114.8059 5.0711 108.495 6.1431 C 102.183 7.2041 95.97 8.7941 89.9979 11.0441 C 83.965 13.162 78.403 16.172 72.437 19.162 C 60.62 24.993 48.9139 31.042 37.006 36.6951 C 25.131 42.4131 13.2169 48.0531 1.131 53.3561 L 0 51.136 Z" stroke="none" stroke-linejoin="miter" stroke-linecap="butt" fill="#d28572" fill-rule="nonzero"/>
                    </g>
                    <g transform="translate(1329.162 1612.837)" class="OBJECTS.lay" v:layer_name="OBJECTS">
                        <path d="M 0 68.2429 C 7.666 60.9819 15.6851 54.163 23.871 47.531 C 32.026 40.859 40.436 34.502 49.042 28.392 C 57.7001 22.3529 66.462 16.433 75.776 11.308 C 85.127 6.4 94.646 1.0449 105.819 0 L 106.026 2.4819 C 101.199 3.7539 96.493 5.636 92.0031 8.246 C 87.411 10.542 83.0081 13.3409 78.619 16.093 C 69.837 21.642 61.272 27.6229 52.6951 33.5759 C 44.115 39.5399 35.694 45.752 27.142 51.804 C 18.644 57.927 10.175 64.1219 1.588 70.163 L 0 68.2429 Z" stroke="none" stroke-linejoin="miter" stroke-linecap="butt" fill="#d28572" fill-rule="nonzero"/>
                    </g>
                    <g transform="translate(1831.3875 1562.8458)" class="OBJECTS.lay" v:layer_name="OBJECTS">
                        <path d="M 0 1.3881 L 56.6371 0 L 56.7931 6.3671 L 0.156 7.7551 Z" stroke="none" stroke-linejoin="miter" stroke-linecap="butt" fill="#d28572" fill-rule="nonzero" stroke-width="0.9999743588817873"/>
                    </g>
                    <g transform="translate(1731.9305 1352.5415)" class="OBJECTS.lay" v:layer_name="OBJECTS">
                        <path d="M 0 1.873 L 3.8139 0 L 44.93 83.7245 L 41.116 85.5975 Z" stroke="none" stroke-linejoin="miter" stroke-linecap="butt" fill="#ebebff" fill-rule="nonzero" stroke-width="0.9999939762600161"/>
                    </g>
                    <g transform="translate(1906.571 1607.707)" class="OBJECTS.lay" v:layer_name="OBJECTS">
                        <path d="M 106.105 3.355 C 105.3829 52.288 84.0599 86.481 57.3419 106.1899 L 3.1 105.34 C 3.058 105.255 3.058 105.2119 3.058 105.1279 C 1.062 98.0339 0 90.559 0 82.828 C 0 47.7 21.833 17.7119 52.713 5.6489 C 62.058 1.996 72.21 0 82.829 0 C 90.8979 0 98.714 1.146 106.105 3.355 Z" stroke="none" stroke-linejoin="miter" stroke-linecap="butt" fill="#fe5b52" opacity="0.2" fill-rule="nonzero"/>
                    </g>
                    <g transform="translate(1098.105 1661.6121)" class="OBJECTS.lay" v:layer_name="OBJECTS">
                        <path d="M 0 0 L 242.115 0 L 242.115 50.9709 L 0 50.9709 Z" stroke="none" stroke-linejoin="miter" stroke-linecap="butt" fill="#1b1b43" fill-rule="nonzero"/>
                    </g>
                    <g transform="translate(685.378 1328.174)" class="OBJECTS.lay" v:layer_name="OBJECTS">
                        <path d="M 494.848 384.4091 L 110.438 384.4091 L 0 0 L 384.41 0 Z" stroke="none" stroke-linejoin="miter" stroke-linecap="butt" fill="#ebebff" fill-rule="nonzero"/>
                    </g>
                    <g transform="translate(683.264 1326.578)" class="OBJECTS.lay" v:layer_name="OBJECTS">
                        <path d="M 111.021 386.4449 L 0 0 L 118.924 0 L 118.924 3.188 L 4.23 3.188 L 114.084 385.563 Z" stroke="none" stroke-linejoin="miter" stroke-linecap="butt" fill="#1b1b43" fill-rule="nonzero"/>
                    </g>
                    <g transform="translate(891.389 1326.578)" class="OBJECTS.lay" v:layer_name="OBJECTS">
                        <path d="M 247.664 245.469 L 177.2031 3.188 L 0 3.188 L 0 0 L 179.5931 0 L 250.722 244.578 Z" stroke="none" stroke-linejoin="miter" stroke-linecap="butt" fill="#1b1b43" fill-rule="nonzero"/>
                    </g>
                    <g transform="translate(1122.8572 358.8785)" class="OBJECTS.lay" v:layer_name="OBJECTS">
                        <path d="M 22.7921 62.4081 C 5.8763 57.3767 -3.6912 39.7079 1.3403 22.7921 C 6.3718 5.8763 24.0406 -3.6912 40.9564 1.3403 C 57.8722 6.3718 67.4397 24.0406 62.4082 40.9564 C 57.3767 57.8722 39.708 67.4397 22.7921 62.4081 Z" stroke="none" stroke-linejoin="miter" stroke-linecap="butt" fill="#ebebff" fill-rule="nonzero" stroke-width="1.0000029783828999"/>
                    </g>
                    <g transform="translate(438.2584 1110.0881)" class="OBJECTS.lay" v:layer_name="OBJECTS">
                        <path d="M 31.641 81.0362 C 9.5034 75.8089 -4.1104 53.7786 1.1169 31.641 C 6.3444 9.5033 28.3746 -4.1104 50.5123 1.117 C 72.6498 6.3443 86.2636 28.3745 81.0363 50.5122 C 75.809 72.6498 53.7786 86.2635 31.641 81.0362 Z" stroke="none" stroke-linejoin="miter" stroke-linecap="butt" fill="#ebebff" fill-rule="nonzero" stroke-width="0.9999359376826211"/>
                    </g>
                    <g transform="translate(2458.7642 1199.936)" class="OBJECTS.lay" v:layer_name="OBJECTS">
                        <path d="M 0 31.856 C 0 14.2078 14.2078 0 31.856 0 C 49.5042 0 63.7119 14.2078 63.7119 31.856 C 63.7119 49.5042 49.5042 63.7119 31.856 63.7119 C 14.2078 63.7119 0 49.5042 0 31.856 Z" stroke="none" stroke-linejoin="miter" stroke-linecap="butt" fill="#ebebff" fill-rule="nonzero"/>
                    </g>
                    <g transform="translate(2396.1331 1145.465)" class="OBJECTS.lay" v:layer_name="OBJECTS">
                        <path d="M 54.699 107.183 L 54.6208 102.933 C 59.7659 102.8351 64.8198 101.949 69.6479 100.296 L 71.0229 104.312 C 65.7769 106.109 60.2849 107.074 54.699 107.183 Z M 38.2769 104.9611 C 32.9448 103.3671 27.9141 100.9611 23.3198 97.8051 L 25.7258 94.3051 C 29.9529 97.207 34.585 99.426 39.4958 100.891 L 38.2769 104.9611 Z M 85.6829 96.578 L 83.144 93.172 C 87.2568 90.1021 90.855 86.4341 93.835 82.274 L 97.2878 84.743 C 94.0549 89.2621 90.1519 93.2461 85.6829 96.578 Z M 11.2581 86.4301 C 7.8359 82.024 5.1331 77.145 3.2271 71.922 L 7.219 70.469 C 8.9729 75.274 11.4609 79.77 14.6099 83.828 L 11.2581 86.4301 Z M 104.7339 69.933 L 100.687 68.636 C 102.2458 63.777 103.0349 58.698 103.0349 53.55 C 103.0391 52.2411 102.988 50.948 102.887 49.671 L 107.1208 49.3351 C 107.23 50.73 107.2891 52.14 107.2849 53.558 C 107.2849 59.14 106.426 64.652 104.7339 69.933 Z M 0.0469 55.6681 C 0.0159 54.973 0.0039 54.27 0 53.563 C 0 48.672 0.656 43.844 1.9448 39.196 L 6.0391 40.329 C 4.8508 44.61 4.25 49.056 4.25 53.552 C 4.2539 54.197 4.2659 54.849 4.2891 55.4971 L 0.0469 55.6681 Z M 99.3589 34.816 C 97.418 30.0861 94.7568 25.699 91.4529 21.769 L 94.7029 19.035 C 98.293 23.301 101.1829 28.066 103.2891 33.207 L 99.3589 34.816 Z M 12.3508 26.437 L 8.804 24.1011 C 11.863 19.453 15.6089 15.3201 19.937 11.824 L 22.6089 15.129 C 18.6208 18.348 15.1719 22.152 12.3508 26.437 Z M 79.9409 11.734 C 75.605 8.9961 70.8899 6.964 65.925 5.699 L 66.98 1.582 C 72.3708 2.9611 77.4958 5.1681 82.207 8.141 L 79.9409 11.734 Z M 35.812 7.473 L 34.281 3.5121 C 39.4609 1.504 44.9099 0.324 50.4839 0 L 50.7258 4.2421 C 45.6008 4.5391 40.582 5.625 35.812 7.473 Z" stroke="none" stroke-linejoin="miter" stroke-linecap="butt" fill="#9192ff" fill-rule="nonzero"/>
                    </g>
                    <g transform="translate(1713.301 437.489)" class="OBJECTS.lay" v:layer_name="OBJECTS">
                        <path d="M 23.3629 46.72 C 10.48 46.72 0 36.241 0 23.3589 C 0 10.478 10.48 0 23.3629 0 C 36.246 0 46.7259 10.478 46.7259 23.3589 C 46.7259 36.241 36.246 46.72 23.3629 46.72 Z M 23.3629 4.245 C 12.824 4.245 4.25 12.819 4.25 23.358 C 4.25 33.897 12.824 42.473 23.3629 42.473 C 33.902 42.473 42.476 33.897 42.476 23.358 C 42.476 12.8199 33.902 4.245 23.3629 4.245 Z" stroke="none" stroke-linejoin="miter" stroke-linecap="butt" fill="#9192ff" fill-rule="nonzero"/>
                    </g>
                    <g transform="translate(456.715 1709.2889)" class="OBJECTS.lay" v:layer_name="OBJECTS">
                        <path d="M 0 0 L 2092.66 0 L 2092.66 6.375 L 0 6.375 Z" stroke="none" stroke-linejoin="miter" stroke-linecap="butt" fill="#1b1b43" fill-rule="nonzero"/>
                    </g>
                </g>
            </g>
            <g transform="translate(370 770)" class="OBJECTS.lay" v:layer_name="OBJECTS">
                <path d="M 222.9437 91.3113 C 236.6236 93.1886 246.6058 105.1026 245.9714 118.7953 C 245.9999 130.8181 239.2 145.008 222.9437 145.008 L 91.0232 145.008 C 65.7401 145.008 56.5839 127.83 56.5839 110.1286 C 56.5839 80.2571 89.845 79.4338 89.845 79.4338 C 89.845 79.4338 92.5303 47.0244 121.5783 40.4526 C 139.7172 35.2943 159.1094 42.6614 169.1382 58.5267 C 179.6317 53.2121 191.9301 52.7745 202.7747 57.3304 C 216.175 63.1565 224.3032 76.8546 222.9722 91.3113 Z M 48.2098 111.2498 C 48.2098 78.2399 83.3533 73.3149 83.3533 73.3149 C 86.6989 54.1661 100.8889 38.6608 119.7735 33.5077 C 138.8368 27.5107 159.6506 34.3882 171.246 50.5359 C 176.5245 47.713 182.521 46.5175 188.4785 47.0995 C 186.0445 27.6325 173.0845 11.0421 154.6866 3.8564 C 130.3125 -6.1778 102.2561 3.9806 90.1195 27.2311 C 78.2274 20.4864 63.7331 20.206 51.589 26.4853 C 36.5056 34.7015 27.8699 51.103 29.6903 68.0843 C 12.2635 69.5861 -0.8338 84.5062 0.0414 101.84 C 0.5593 119.6343 14.9254 133.9667 32.8493 134.6218 L 54.9008 134.6218 C 50.3952 127.6305 48.0648 119.5257 48.202 111.2474 Z" fill="#004c99" stroke="none" stroke-width="2.586"/>
            </g>
            <g transform="translate(1310 50)">
                <g>
                    <g transform="translate(1.7859 103.2423)">
                        <path d="M 191.2462 56.0471 L 6.7839 56.0471 C 3.0449 56.0287 0.0181 52.968 0 49.1872 L 0 6.86 C 0.0181 3.0791 3.0449 0.0184 6.7839 0 L 191.2462 0 C 194.9852 0.0184 198.0119 3.0791 198.0301 6.86 L 198.0301 49.1786 C 198.0119 52.9598 194.9852 56.0202 191.2462 56.0386 Z" fill="#d0cfce" stroke="none" stroke-linejoin="miter" stroke-linecap="butt" fill-rule="nonzero" stroke-width="2.0833"/>
                    </g>
                    <g transform="translate(20.941 123.5304)">
                        <path d="M 0 8.1798 C 0 3.6481 3.6078 0 8.0889 0 C 12.5699 0 16.1771 3.6481 16.1771 8.1798 C 16.1771 12.7111 12.5699 16.359 8.0889 16.359 C 3.6078 16.359 0 12.7111 0 8.1798 Z" fill="#92d3f5" stroke="none" stroke-linejoin="miter" stroke-linecap="butt" fill-rule="nonzero" stroke-width="2.0833"/>
                    </g>
                    <g transform="translate(74.5462 0)">
                        <path d="M 25.8679 0.00001 L 25.8679 79.8078 M 51.6101 53.9154 L 25.9308 79.8838 M 0 53.9154 L 25.6798 79.8838" stroke-miterlimit="10" fill="none" fill-rule="nonzero" stroke-width="4.1667"/>
                    </g>
                    <g transform="translate(0 102.5825)">
                        <path d="M 187.453 57.4175 L 12.547 57.4175 C 5.6271 57.3943 0.0229 51.7272 0 44.7294 L 0 12.688 C 0.0229 5.6904 5.6271 0.0231 12.547 0 L 187.453 0 C 194.3729 0.0231 199.9771 5.6904 200 12.688 L 200 44.7294 C 199.9771 51.7272 194.3729 57.3943 187.453 57.4175 Z" stroke-miterlimit="10" stroke-linecap="butt" fill="none" fill-rule="nonzero" stroke-width="4.1667"/>
                    </g>
                    <g transform="translate(20.665 123.2513)">
                        <path d="M 0 8.4586 C 0 3.7726 3.7308 0 8.3649 0 C 12.9989 0 16.7292 3.7726 16.7292 8.4586 C 16.7292 13.1448 12.9989 16.9174 8.3649 16.9174 C 3.7308 16.9174 0 13.1448 0 8.4586 Z" stroke-linecap="butt" fill="none" fill-rule="nonzero" stroke-width="4.1667"/>
                    </g>
                </g>
            </g>
            <g transform="translate(2290 690)" fill="#e98520" stroke="#e98520" stroke-opacity="0.7" fill-opacity="0.7">
                <g>
                    <g>
                        <path fill="#e98520" d="M 180 156.5713 Q 180 160 175.6491 160 L 4.508 160 Q 0 160 0 154.848 L 0 5.7143 Q 0 0 5 0 L 55 0 Q 60 0 65 5.7143 L 80 22.857 L 175 22.857 Q 180 22.857 180 28.5713 Z" stroke="#e98520" fill-opacity="0.7" stroke-opacity="0.7" stroke-width="1"/>
                    </g>
                    <g transform="translate(0.6054 34.2857)">
                        <path fill="#e98520" d="M 25.3948 0 Q 19.3948 0 18.3948 5.7143 L 0.0939 121.7184 Q -0.6052 125.7143 3.9028 125.7143 L 175.0441 125.7143 Q 179.3949 125.7143 180.1609 121.3376 L 199.3948 5.7143 Q 199.3948 0 194.0441 0 Z" stroke="#e98520" fill-opacity="0.7" stroke-opacity="0.7" stroke-width="1"/>
                    </g>
                </g>
            </g>
            <g transform="translate(1930 250)">
                <g>
                    <g transform="translate(121.3972 18)">
                        <path d="M 4.153 49.4999 L 50.6443 49.4999 C 55.0417 49.4999 58.603 53.3217 58.603 58.0433 L 58.603 103.569 C 58.5958 111.9128 55.5115 119.9111 50.0287 125.8056 C 44.5459 131.7002 37.1128 135.0075 29.3656 134.9999 L 29.2369 134.9999 C 21.4897 135.0075 14.0568 131.7002 8.5738 125.8056 C 3.091 119.9111 0.0067 111.9128 0 103.569 L 0 53.9861 C 0 51.5075 1.8643 49.514 4.153 49.514 Z M 35.5882 40.5 C 45.9769 40.5 54.4117 31.4309 54.4117 20.2568 C 54.4117 9.069 45.9769 0 35.5756 0 C 25.1743 0 16.74 9.069 16.74 20.2568 C 16.74 31.4309 25.1743 40.5 35.5756 40.5 Z" stroke="none" stroke-linejoin="miter" stroke-linecap="butt" fill="#5059c9" fill-rule="nonzero" stroke-width="49.99885561701316"/>
                    </g>
                    <g transform="translate(50.2208 0)">
                        <path d="M 48.1492 58.4999 C 55.36 58.5109 62.2793 55.4356 67.3842 49.951 C 72.489 44.4664 75.3609 37.0225 75.3677 29.2564 C 75.3644 21.4867 72.4922 14.0365 67.3842 8.5483 C 62.2762 3.0606 55.3516 -0.0152 48.1363 0.0001 C 40.9277 -0.0079 34.0117 3.0691 28.9096 8.5537 C 23.8076 14.0374 20.9374 21.4795 20.9306 29.2429 C 20.9306 45.4015 33.1063 58.4999 48.1363 58.4999 Z M 84.432 67.4999 L 7.675 67.4999 C 3.3409 67.6133 -0.0885 71.4862 0.012 76.1536 L 0.012 128.0764 C -0.5699 156.0993 20.0333 179.3341 46.0536 179.9999 C 72.0786 179.3422 92.6898 156.1042 92.1077 128.0764 L 92.1077 76.1536 C 92.1562 73.9099 91.3744 71.7373 89.9349 70.1137 C 88.4951 68.491 86.5158 67.5505 84.432 67.4999 Z" stroke="none" stroke-linejoin="miter" stroke-linecap="butt" fill="#7b83eb" fill-rule="nonzero" stroke-width="49.99885561701316"/>
                    </g>
                    <g transform="translate(50.2179 67.5)">
                        <path d="M 50.2476 0 L 50.2476 72.7617 C 50.2267 77.3076 46.806 80.985 42.5849 80.9999 L 3.6921 80.9999 C 1.2586 74.5052 0.0059 67.5671 0.0021 60.5633 L 0.0021 8.654 C -0.0462 6.4112 0.7359 4.2404 2.1758 2.6194 C 3.6157 0.9986 5.5954 0.0609 7.6776 0.014 L 50.2349 0.014 Z" stroke="none" stroke-linejoin="miter" stroke-linecap="butt" fill="#000000" opacity="0.1" fill-rule="nonzero" stroke-width="49.99885561701316"/>
                    </g>
                    <g transform="translate(50.2436 67.4862)">
                        <path d="M 46.0306 0.014 L 46.0306 77.2754 C 45.9957 81.815 42.5832 85.4835 38.3679 85.5139 L 5.6464 85.5139 C 4.2006 82.6575 3.0495 79.6397 2.2134 76.5139 C 0.7513 71.3525 0.0061 65.9867 0.0021 60.5909 L 0.0021 8.64 C -0.0461 6.3996 0.7342 4.2305 2.1713 2.6104 C 3.6084 0.9896 5.5847 0.0509 7.6651 0 L 46.0434 0 Z" stroke="none" stroke-linejoin="miter" stroke-linecap="butt" fill="#000000" opacity="0.2" fill-rule="nonzero" stroke-width="49.99885561701316"/>
                    </g>
                    <g transform="translate(50.2436 67.4862)">
                        <path d="M 46.0306 0.014 L 46.0306 68.2754 C 45.9957 72.815 42.5832 76.4835 38.3679 76.5139 L 2.2134 76.5139 C 0.7513 71.3525 0.0061 65.9867 0.0021 60.5909 L 0.0021 8.64 C -0.0461 6.3996 0.7342 4.2305 2.1713 2.6104 C 3.6084 0.9896 5.5847 0.0509 7.6651 0 L 46.0434 0 Z" stroke="none" stroke-linejoin="miter" stroke-linecap="butt" fill="#000000" opacity="0.2" fill-rule="nonzero" stroke-width="49.99885561701316"/>
                    </g>
                    <g transform="translate(50.2307 67.4862)">
                        <path d="M 41.8649 0.014 L 41.8649 68.2754 C 41.8299 72.815 38.4175 76.4835 34.2021 76.5139 L 2.2134 76.5139 C 0.7513 71.3525 0.0061 65.9867 0.0021 60.5909 L 0.0021 8.64 C -0.0461 6.3996 0.7342 4.2305 2.1713 2.6104 C 3.6084 0.9896 5.5847 0.0509 7.6649 0 L 41.8649 0 Z" stroke="none" stroke-linejoin="miter" stroke-linecap="butt" fill="#000000" opacity="0.2" fill-rule="nonzero" stroke-width="49.99885561701316"/>
                    </g>
                    <g transform="translate(71.91 36)">
                        <path d="M 28.5556 8.2383 L 28.5556 22.4167 C 27.8482 22.4583 27.18 22.5 26.46 22.5 C 25.753 22.5 25.0843 22.4583 24.3643 22.4167 C 12.5827 21.4394 2.7364 12.3793 0 0 L 20.893 0 C 25.1091 0.0149 28.5277 3.6842 28.5556 8.2247 Z" stroke="none" stroke-linejoin="miter" stroke-linecap="butt" fill="#000000" opacity="0.1" fill-rule="nonzero" stroke-width="49.99885561701316"/>
                    </g>
                    <g transform="translate(73.26 40.5139)">
                        <path d="M 23.0143 8.2247 L 23.0143 17.9033 C 12.829 17.0642 3.9402 10.1489 0 0 L 15.3643 0 C 19.5754 0.023 22.9864 3.6896 23.0143 8.2247 Z" stroke="none" stroke-linejoin="miter" stroke-linecap="butt" fill="#000000" opacity="0.2" fill-rule="nonzero" stroke-width="49.99885561701316"/>
                    </g>
                    <g transform="translate(73.26 40.5139)">
                        <path d="M 23.0143 8.2247 L 23.0143 17.9033 C 12.829 17.0642 3.9402 10.1489 0 0 L 15.3643 0 C 19.5754 0.023 22.9864 3.6896 23.0143 8.2247 Z" stroke="none" stroke-linejoin="miter" stroke-linecap="butt" fill="#000000" opacity="0.2" fill-rule="nonzero" stroke-width="49.99885561701316"/>
                    </g>
                    <g transform="translate(73.26 40.5)">
                        <path d="M 18.8356 8.2383 L 18.8356 17.1967 C 10.363 15.0422 3.3601 8.6487 0 0 L 11.1856 0 C 15.4021 0.023 18.8149 3.6977 18.8356 8.2383 Z" stroke="none" stroke-linejoin="miter" stroke-linecap="butt" fill="#000000" opacity="0.2" fill-rule="nonzero" stroke-width="49.99885561701316"/>
                    </g>
                    <g transform="translate(0 40.5)">
                        <path d="M 7.6756 0 L 84.42 0 C 88.663 0 92.0956 3.6968 92.0956 8.2526 L 92.0956 90.7475 C 92.0956 92.9389 91.2865 95.0396 89.8465 96.5875 C 88.4067 98.1356 86.4544 99.0038 84.42 98.9999 L 7.663 98.9999 C 3.4307 98.9999 0 95.3051 0 90.7475 L 0 8.2526 C 0 3.6833 3.433 0 7.6756 0 Z" stroke="none" stroke-linejoin="miter" stroke-linecap="butt" fill="url(#L17-68210605A62C3504D55BD1003940AB.grad)" fill-rule="nonzero" stroke-width="49.99885561701316"/>
                    </g>
                    <g transform="translate(25.8429 63.18)">
                        <path d="M 40.3969 8.7233 L 25.0582 8.7233 L 25.0582 53.6261 L 15.2869 53.6261 L 15.2869 8.7233 L 0 8.7233 L 0 0 L 40.3843 0 L 40.3843 8.7233 Z" stroke="none" stroke-linejoin="miter" stroke-linecap="butt" fill-rule="nonzero" stroke-width="49.99885561701316"/>
                    </g>
                </g>
            </g>
            <g transform="translate(670 350)">
                <path d="M 140.5183 59.2127 C 135.5441 49.5537 128.0831 41.575 118.5495 36.9553 C 117.3056 26.0368 108.1866 17.2177 96.5805 17.2177 C 95.337 17.2177 94.0935 17.2177 92.4352 17.6377 L 92.4352 0 L 0 16.3782 L 0 143.6222 L 92.4352 160 L 92.4352 144.0422 C 93.6789 144.4617 94.9224 144.4617 96.5805 144.4617 C 107.7722 144.4617 117.3056 136.0631 118.5495 124.7246 C 128.0831 120.1049 135.9585 112.1262 140.5183 102.4672 C 151.2954 101.2073 160 91.9686 160 80.6302 C 160 69.7113 151.7101 60.4726 140.5183 59.2127 Z M 92.4352 60.8926 C 93.6789 61.3126 94.9224 61.3126 96.5805 61.3126 C 102.3834 61.3126 107.3576 59.2127 111.5025 55.4334 C 115.6479 57.9527 119.3783 61.7326 121.8654 65.9319 C 118.1349 70.1312 116.0623 75.1705 116.0623 81.0497 C 116.0623 86.5094 118.1349 91.9686 121.8654 96.168 C 119.3783 100.3673 115.6479 104.1471 111.5025 106.6665 C 107.3576 102.8872 102.3834 100.7873 96.5805 100.7873 C 95.337 100.7873 94.0935 100.7873 92.4352 101.2073 L 92.4352 60.8926 Z M 60.1037 98.6878 C 55.9586 110.4463 40.2074 111.2862 30.6736 106.2465 C 29.0157 105.407 28.601 105.407 28.601 103.7271 C 28.601 102.0472 28.601 100.7873 28.601 99.1078 C 28.601 96.588 28.601 94.4881 28.601 91.9686 C 31.5026 95.3281 34.8186 97.4279 38.9637 98.2678 C 41.8653 99.1078 46.0104 98.6878 47.6685 95.3281 C 51.8135 87.7689 40.2074 83.9895 36.0623 80.6302 C 29.8447 75.5905 26.9431 68.0318 29.0157 60.0526 C 31.088 52.4935 38.1349 48.2938 46.0104 47.8742 C 49.7408 47.4542 53.4717 47.8742 57.2021 49.1342 C 58.0311 49.5537 58.4456 49.5537 58.4456 50.3936 C 58.4456 51.2336 58.4456 52.0735 58.4456 52.9135 C 58.4456 56.2729 58.4456 59.6327 58.4456 62.5721 C 54.3005 59.2127 46.0104 56.6929 41.4509 60.4726 C 39.3783 62.1521 38.9637 65.0919 39.7928 67.1914 C 40.6218 69.7113 43.109 70.9711 45.1815 72.2311 C 49.7408 75.1705 54.7152 77.2704 57.6168 81.8897 C 61.7618 86.9294 62.1762 93.6481 60.1037 98.6878 Z M 138.0311 97.4279 C 137.6168 97.4279 137.2023 97.4279 136.7877 97.4279 C 132.228 108.3464 123.9381 117.1655 113.1607 121.3648 C 113.1607 121.7848 113.1607 122.2048 113.1607 122.6248 C 113.1607 131.8633 105.6997 139.4225 96.5805 139.4225 C 95.337 139.4225 94.0935 139.4225 92.4352 139.0025 L 92.4352 106.6665 C 93.6789 106.2465 94.9224 106.2465 96.5805 106.2465 C 102.3834 106.2465 107.3576 109.1864 110.2592 113.3857 C 118.5495 109.6064 125.1816 103.3071 128.4976 94.9081 C 123.9381 91.9686 121.4509 86.9294 121.4509 81.4697 C 121.4509 75.5905 124.3525 70.9711 128.4976 68.0318 C 124.7671 59.6327 118.5495 52.9135 110.2592 49.5537 C 107.3576 54.1734 102.3834 56.6929 96.5805 56.6929 C 95.337 56.6929 94.0935 56.6929 92.4352 56.2729 L 92.4352 23.9369 C 93.6789 23.5169 94.9224 23.5169 96.5805 23.5169 C 105.6997 23.5169 113.1607 31.076 113.1607 40.3151 C 113.1607 40.7351 113.1607 41.155 113.1607 41.575 C 123.9381 46.1943 132.6425 54.5934 136.7877 65.5119 C 137.2023 65.5119 137.6168 65.5119 138.0311 65.5119 C 147.1504 65.5119 154.6115 73.071 154.6115 82.3097 C 154.6115 89.8688 147.1504 97.4279 138.0311 97.4279 Z" fill="#2372ba" stroke="none"/>
            </g>
        </g>
    </g>
</svg>