<?xml version="1.0" encoding="utf-8"?>
<!-- Generator: Adobe Illustrator 27.5.0, SVG Export Plug-In . SVG Version: 6.00 Build 0)  -->
<svg version="1.1" xmlns="http://www.w3.org/2000/svg" xmlns:xlink="http://www.w3.org/1999/xlink" x="0px" y="0px"
	 viewBox="0 0 500 500" style="enable-background:new 0 0 500 500;" xml:space="preserve">
<g id="BACKGROUND">
	<rect style="fill:#FFFFFF;" width="500" height="500"/>
</g>
<g id="OBJECT">
	<g>
		<path style="fill:#E8A600;" d="M294.768,344.344c-1.496-5.711-2.264-10.31-2.306-13.794c-0.041-3.484,0.815-6.679,2.572-9.583
			c0.996-1.743,2.248-3.242,3.759-4.501c1.509-1.257,2.854-2.589,4.036-3.993c1.18-1.402,2.074-2.977,2.684-4.719
			c0.608-1.742,0.546-4.016-0.189-6.824c-1.242-4.742-3.417-8.059-6.525-9.946c-3.108-1.888-6.454-2.832-10.034-2.832
			c-5.132,0-8.29,1.43-9.478,4.284c-1.189,2.856-1.392,6.704-0.607,11.544h-18.73c-1.242-4.742-1.597-9.05-1.061-12.923
			c0.534-3.871,1.875-7.163,4.021-9.874c2.145-2.709,5.036-4.792,8.674-6.243c3.635-1.452,7.874-2.178,12.715-2.178
			c10.454,0,19.263,2.13,26.43,6.389c7.164,4.261,12.003,11.18,14.513,20.764c0.812,3.099,1.205,5.808,1.186,8.131
			c-0.022,2.323-0.415,4.429-1.177,6.316c-0.765,1.887-1.852,3.655-3.259,5.3c-1.409,1.647-3.046,3.34-4.913,5.082
			c-1.699,1.647-3.018,3.172-3.957,4.574c-0.939,1.404-1.546,2.881-1.816,4.429c-0.272,1.549-0.283,3.172-0.033,4.864
			c0.249,1.695,0.655,3.608,1.212,5.735H294.768z M301.527,372.368l-4.981-19.021l19.601,0l4.981,19.021H301.527z"/>
	</g>		
	<g>
		<path style="fill:#4450E4;" d="M143.201,96.444c0.615-3.192,1.354-5.715,2.216-7.568c0.862-1.854,2.153-3.456,3.872-4.808
			c0.999-0.817,2.08-1.478,3.244-1.984c1.162-0.505,2.252-1.066,3.27-1.684c1.015-0.617,1.915-1.356,2.699-2.215
			c0.783-0.859,1.326-2.072,1.628-3.642c0.511-2.65,0.138-4.644-1.12-5.981c-1.258-1.336-2.888-2.198-4.888-2.583
			c-2.868-0.553-4.997-0.134-6.385,1.252c-1.391,1.388-2.481,3.408-3.273,6.06l-10.468-2.018c0.511-2.65,1.407-4.975,2.69-6.972
			c1.282-1.996,2.868-3.599,4.756-4.806c1.887-1.207,4.032-2,6.434-2.379c2.4-0.379,4.954-0.308,7.66,0.214
			c5.842,1.126,10.224,3.206,13.147,6.237c2.921,3.033,3.867,7.226,2.835,12.582c-0.334,1.732-0.802,3.212-1.403,4.443
			c-0.603,1.23-1.357,2.305-2.263,3.225c-0.907,0.919-1.963,1.74-3.168,2.461c-1.206,0.722-2.551,1.444-4.037,2.168
			c-1.368,0.691-2.492,1.358-3.374,2.001c-0.882,0.644-1.596,1.362-2.14,2.154c-0.546,0.793-0.964,1.653-1.254,2.578
			c-0.291,0.926-0.551,1.985-0.78,3.174L143.201,96.444z M139.858,112.043l2.049-10.63l10.955,2.111l-2.049,10.63L139.858,112.043z"
			/>
	</g>	
</g>
</svg>
