<svg xmlns="http://www.w3.org/2000/svg" xmlns:xlink="http://www.w3.org/1999/xlink" xmlns:v="http://vecta.io" width="1123" height="794" viewBox="0 0 1123 794">
    <style>
        <![CDATA[svg{stroke:#000;stroke-linecap:round;stroke-linejoin:round;fill:#fff;fill-rule:evenodd;font-family:Roboto;font-size:14px;text-anchor:middle;}svg text{paint-order:stroke;white-space:pre;}svg .Text\.cls{stroke:none;}]]>
    </style>
    <defs>
        <style>@import url("https://vecta.io/fonts/open-sans.css");</style>
    </defs>
    <ellipse cx="182.5" cy="182.5" rx="182.5" ry="182.5" stroke="#262626" fill="#000000" transform="translate(334.5 194.5)"/>
    <g class="OBJECTS.lay" transform="translate(341.5 290.871)" v:layer_name="OBJECTS">
        <g>
            <g class="OBJECTS.lay" v:layer_name="OBJECTS">
                <g>
                    <g transform="translate(113 56.51)" class="OBJECTS.lay" v:layer_name="OBJECTS">
                        <path d="M 61.696 30.829 L 8.227 61.696 C 2.991 52.631 0 42.115 0 30.904 C 0 19.643 3.015 9.089 8.295 0 L 61.696 30.829 Z" stroke="#00991a" stroke-linejoin="miter" stroke-linecap="butt" fill="#00991a" fill-rule="nonzero" stroke-opacity="1"/>
                    </g>
                    <g class="OBJECTS.lay" v:layer_name="OBJECTS">
                        <path d="M 23.471 0.031 L 121.295 56.509 C 116.015 65.598 113 76.152 113 87.413 C 113 98.624 115.991 109.141 121.227 118.205 L 23.471 174.646 L 23.353 174.714 C 8.5 149.029 0 119.21 0 87.413 C 0 55.566 8.525 25.711 23.415 0 L 23.471 0.031 Z" stroke="none" stroke-linejoin="miter" stroke-linecap="butt" fill-rule="nonzero" fill="#00991a"/>
                    </g>
                </g>
            </g>
            <g transform="translate(-7 12.629) rotate(270 35.5122 5.5)" class="OBJECTS.lay" v:layer_name="OBJECTS">
                <rect x="0" y="0" width="71.0245" height="11" stroke="none" stroke-linejoin="miter" stroke-linecap="butt" fill="none" fill-rule="nonzero"/>
                <g class="Text.cls">
                    <rect width="71.0245" height="11" x="0" y="0" fill="none" stroke="none"/>
                    <text fill="#000000" fill-opacity="1" font-size="24px" font-family="Open Sans" font-weight="bold">
                        <tspan x="35.5123" y="13.42">5</tspan>
                    </text>
                </g>
            </g>
        </g>
    </g>
    <g class="OBJECTS.lay" transform="translate(519.81 289.945)" v:layer_name="OBJECTS">
        <g>
            <g transform="translate(0 56.509)" class="OBJECTS.lay" v:layer_name="OBJECTS">
                <path d="M 53.401 0 C 58.675 9.089 61.69 19.643 61.69 30.904 C 61.69 42.115 58.699 52.632 53.469 61.696 L 0 30.829 L 53.401 0 Z" stroke="#00991a" stroke-linejoin="miter" stroke-linecap="butt" fill="#00991a" fill-rule="nonzero"/>
            </g>
            <g transform="translate(53.401 0)" class="OBJECTS.lay" v:layer_name="OBJECTS">
                <path d="M 97.88 0 C 112.77 25.71 121.289 55.566 121.289 87.413 C 121.289 119.21 112.795 149.029 97.942 174.715 L 97.824 174.647 L 0.068 118.206 C 5.298 109.141 8.289 98.625 8.289 87.414 C 8.289 76.153 5.274 65.599 0 56.51 L 97.824 0.032 L 97.88 0 Z" stroke="none" stroke-linejoin="miter" stroke-linecap="butt" fill-rule="nonzero" fill="#00991a"/>
            </g>
            <g transform="translate(109.69 152.629) rotate(90 35.5122 0.5)" class="OBJECTS.lay" v:layer_name="OBJECTS">
                <rect x="0" y="0" width="71.0245" height="1" stroke="none" stroke-linejoin="miter" stroke-linecap="butt" fill="none" fill-rule="nonzero"/>
                <g class="Text.cls">
                    <rect width="71.0245" height="1" x="0" y="0" fill="none" stroke="none"/>
                    <text fill="#000000" fill-opacity="1" font-size="24px" font-family="Open Sans" font-weight="bold">
                        <tspan x="35.5123" y="8.42">2</tspan>
                    </text>
                </g>
            </g>
        </g>
    </g>
    <g class="OBJECTS.lay" transform="translate(519.846 379.729)" v:layer_name="OBJECTS">
        <g>
            <g transform="translate(0.001 30.866)" class="OBJECTS.lay" v:layer_name="OBJECTS">
                <path d="M 151.225 56.442 L 151.343 56.51 C 121.146 108.751 64.68 143.905 0 143.905 L 0 143.756 L 0 30.898 C 22.857 30.898 42.81 18.471 53.469 0 L 151.225 56.442 Z" stroke="none" stroke-linejoin="miter" stroke-linecap="butt" fill="#fff266" fill-rule="nonzero"/>
            </g>
            <g class="OBJECTS.lay" v:layer_name="OBJECTS">
                <path d="M 0 0 L 53.469 30.867 C 42.81 49.337 22.857 61.765 0 61.765 L 0 0 Z" stroke="#ffea00" stroke-linejoin="miter" stroke-linecap="butt" fill="#fff266" fill-rule="nonzero" stroke-opacity="1"/>
            </g>
            <g transform="translate(-25.346 157.845) rotate(150 35.5122 3)" class="OBJECTS.lay" v:layer_name="OBJECTS">
                <rect x="0" y="0" width="71.0245" height="6" stroke="none" stroke-linejoin="miter" stroke-linecap="butt" fill="none" fill-rule="nonzero"/>
                <g class="Text.cls">
                    <rect width="71.0245" height="6" x="0" y="0" fill="none" stroke="none"/>
                    <text fill="#000000" fill-opacity="1" font-size="24px" font-family="Open Sans" font-weight="bold">
                        <tspan x="35.5123" y="10.92">3</tspan>
                    </text>
                </g>
            </g>
        </g>
    </g>
    <g class="OBJECTS.lay" transform="translate(364.817 380.655)" v:layer_name="OBJECTS">
        <g>
            <g transform="translate(0 30.867)" class="OBJECTS.lay" v:layer_name="OBJECTS">
                <path d="M 151.343 143.755 L 151.343 143.904 C 86.662 143.904 30.19 108.75 0 56.509 L 0.118 56.441 L 97.874 0 C 108.527 18.47 128.48 30.898 151.343 30.898 L 151.343 143.755 Z" stroke="none" stroke-linejoin="miter" stroke-linecap="butt" fill="#ff0000" fill-rule="nonzero"/>
            </g>
            <g transform="translate(97.874 0)" class="OBJECTS.lay" v:layer_name="OBJECTS">
                <path d="M 53.469 0 L 53.469 61.764 C 30.606 61.764 10.653 49.337 0 30.866 L 53.469 0 Z" stroke="none" stroke-linejoin="miter" stroke-linecap="butt" fill="#ff0000" fill-rule="nonzero"/>
            </g>
            <g transform="translate(-15.317 87.845) rotate(210 35.5122 5.5)" class="OBJECTS.lay" v:layer_name="OBJECTS">
                <rect x="0" y="0" width="71.0245" height="11" stroke="none" stroke-linejoin="miter" stroke-linecap="butt" fill="none" fill-rule="nonzero"/>
                <g class="Text.cls">
                    <rect width="71.0245" height="11" x="0" y="0" fill="none" stroke="none"/>
                    <text fill="#000000" fill-opacity="1" font-size="24px" font-family="Open Sans" font-weight="bold">
                        <tspan x="35.5123" y="13.42">4</tspan>
                    </text>
                </g>
            </g>
        </g>
    </g>
    <g transform="translate(519.846 200.216)">
        <g>
            <g class="OBJECTS.lay" v:layer_name="OBJECTS">
                <path d="M 151.281 87.283 L 151.225 87.314 L 53.401 143.792 C 42.723 125.384 22.807 113.006 0 113.006 L 0 0 C 64.631 0 121.066 35.105 151.281 87.283 Z" stroke="none" stroke-linejoin="miter" stroke-linecap="butt" fill-rule="nonzero" fill="#ff0000"/>
            </g>
            <g transform="translate(0 113.006)" class="OBJECTS.lay" v:layer_name="OBJECTS">
                <path d="M 53.401 30.787 L 0 61.616 L 0 0 C 22.807 0.001 42.723 12.378 53.401 30.787 Z" stroke="none" stroke-linejoin="miter" stroke-linecap="butt" fill="#ff0000" fill-rule="nonzero"/>
            </g>
            <g transform="translate(94.654 67.358) rotate(30 35.5122 5.5)" class="OBJECTS.lay" v:layer_name="OBJECTS">
                <rect x="0" y="0" width="71.0245" height="11" stroke="none" stroke-linejoin="miter" stroke-linecap="butt" fill="none" fill-rule="nonzero"/>
                <g class="Text.cls">
                    <rect width="71.0245" height="11" x="0" y="0" fill="none" stroke="none"/>
                    <text fill="#000000" fill-opacity="1" font-size="24px" font-family="Open Sans" font-weight="bold">
                        <tspan x="35.5123" y="13.42">1</tspan>
                    </text>
                </g>
            </g>
        </g>
    </g>
    <g transform="translate(364.879 201.142)">
        <g>
            <g class="OBJECTS.lay" v:layer_name="OBJECTS">
                <g>
                    <g transform="translate(97.88 113.007)" class="OBJECTS.lay" v:layer_name="OBJECTS">
                        <path d="M 53.401 0 L 53.401 61.616 L 0 30.787 C 10.671 12.377 30.588 0 53.401 0 Z" stroke="#ffea00" stroke-linejoin="miter" stroke-linecap="butt" fill="#fff266" fill-rule="nonzero" stroke-opacity="1"/>
                    </g>
                    <g class="OBJECTS.lay" v:layer_name="OBJECTS">
                        <path d="M 151.281 0 L 151.281 113.007 C 128.468 113.007 108.551 125.385 97.88 143.793 L 0.056 87.314 L 0 87.283 C 30.209 35.105 86.644 0 151.281 0 Z" stroke="none" stroke-linejoin="miter" stroke-linecap="butt" fill="#fff266" fill-rule="nonzero"/>
                    </g>
                    <g transform="translate(119.621 2.358) rotate(330 35.5122 5.5)" class="OBJECTS.lay" v:layer_name="OBJECTS">
                        <rect x="0" y="0" width="71.0245" height="11" stroke="none" stroke-linejoin="miter" stroke-linecap="butt" fill="none" fill-rule="nonzero"/>
                        <g class="Text.cls">
                            <rect width="71.0245" height="11" x="0" y="0" fill="none" stroke="none"/>
                            <text fill="#000000" fill-opacity="1" font-size="24px" font-family="Open Sans" font-weight="bold">
                                <tspan x="35.5123" y="13.42">6</tspan>
                            </text>
                        </g>
                    </g>
                </g>
            </g>
            <g transform="translate(68.3138 91.5202) rotate(215 13.8183 7.5001)">
                <path d="M 27.3909 7.8114 L 24.5795 6.343 L 26.0098 3.4572 C 26.0955 3.2844 26.0666 3.0747 25.9371 2.9331 C 25.808 2.7915 25.6065 2.748 25.4324 2.8242 L 21.2775 4.6494 C 20.7425 3.2934 19.8156 2.1533 18.5712 1.3322 C 17.217 0.4382 15.5779 -0.0226 13.8251 0.0008 L 13.8246 0.0008 C 13.8227 0.0008 13.8208 0.0008 13.8188 0.0008 C 13.8164 0.0008 13.8144 0.0008 13.8119 0.0008 L 13.8114 0.0008 C 12.06 -0.0214 10.4197 0.4382 9.0653 1.3322 C 7.821 2.1534 6.8935 3.2934 6.3586 4.6492 L 2.2042 2.8245 C 2.0301 2.7483 1.8284 2.7918 1.6995 2.9334 C 1.5702 3.075 1.5414 3.2844 1.6271 3.4575 L 3.0571 6.3432 L 0.2458 7.8114 C 0.0828 7.8966 -0.0139 8.0745 0.0016 8.2614 C 0.0175 8.4483 0.1419 8.6073 0.3166 8.6625 L 2.658 9.4059 L 1.6756 11.4886 C 1.5912 11.6674 1.6278 11.8818 1.7669 12.0201 C 1.8526 12.1057 1.9657 12.1504 2.0799 12.1504 C 2.1505 12.1504 2.2218 12.1333 2.2871 12.0984 L 6.25 9.9828 C 7.2706 12.9372 10.0899 14.9479 13.6041 14.9982 C 13.6063 14.9982 13.6082 14.9982 13.6104 14.9982 C 13.6408 14.9982 13.6707 14.995 13.6994 14.989 C 13.7252 14.9943 13.7517 14.9976 13.7786 14.998 C 13.8539 14.9994 13.9286 15.0001 14.0034 15.0001 C 16.3343 15.0001 18.2757 14.3245 19.6284 13.0402 C 20.4731 12.2383 21.0832 11.2108 21.4382 10.0101 L 25.3493 12.0982 C 25.4147 12.1332 25.4858 12.1503 25.5567 12.1503 C 25.6706 12.1503 25.7839 12.1056 25.8696 12.0199 C 26.0085 11.8815 26.0454 11.6673 25.9613 11.4885 L 24.9786 9.4056 L 27.32 8.6622 C 27.4946 8.607 27.6195 8.4483 27.635 8.2611 C 27.6502 8.0742 27.5539 7.8963 27.3909 7.8114 Z M 24.2136 8.6835 C 24.0882 8.7234 23.9864 8.817 23.934 8.94 C 23.882 9.0633 23.8847 9.204 23.9419 9.3249 L 24.5618 10.6386 L 21.6844 9.1023 C 21.6744 9.0972 21.6645 9.0927 21.6543 9.0882 C 21.7243 8.6928 21.77 8.2824 21.79 7.8576 C 21.8019 7.6033 21.6108 7.3875 21.363 7.3752 C 21.1148 7.3624 20.9047 7.5594 20.8928 7.8132 C 20.703 11.8729 18.1143 14.1546 13.7945 14.0761 C 13.7919 14.0761 13.7891 14.0761 13.7862 14.0761 C 13.7558 14.0761 13.7263 14.0791 13.6972 14.085 C 13.671 14.0796 13.6439 14.0766 13.6165 14.0761 C 9.801 14.0215 6.9107 11.3877 6.7437 7.8132 C 6.7317 7.5592 6.5194 7.3632 6.2733 7.3752 C 6.0256 7.3873 5.8343 7.6032 5.8462 7.8576 C 5.8659 8.2761 5.9181 8.6829 6.0003 9.0765 L 3.0747 10.6386 L 3.6943 9.3249 C 3.7513 9.204 3.7541 9.0633 3.702 8.94 C 3.6501 8.817 3.5479 8.7234 3.4229 8.6835 L 1.6398 8.1174 L 3.8647 6.9556 C 4.0857 6.8401 4.1737 6.5626 4.0613 6.3358 L 2.989 4.1723 L 6.4403 5.688 C 6.9351 5.9013 7.0395 5.4205 7.0436 5.4079 C 7.0438 5.4073 7.044 5.4069 7.0444 5.4064 C 7.92 2.6361 10.5757 0.8742 13.8116 0.923 C 13.8136 0.9231 13.8158 0.9231 13.8179 0.9231 L 13.8179 0.9231 L 13.8184 0.9231 L 13.8184 0.9231 L 13.8184 0.9231 C 13.8202 0.9231 13.8224 0.9231 13.8245 0.923 C 17.0597 0.8787 19.7162 2.6361 20.5922 5.4064 C 20.6536 5.6013 20.9208 5.8297 21.193 5.689 C 21.1939 5.6886 24.6475 4.1723 24.6475 4.1723 L 23.5749 6.3358 C 23.4623 6.5626 23.5503 6.8403 23.7715 6.9556 L 25.9964 8.1174 L 24.2136 8.6835 Z" stroke="none" stroke-linejoin="miter" stroke-linecap="butt" fill="#000000" fill-rule="nonzero"/>
            </g>
            <g transform="translate(102.896 74.0991) rotate(80 13.8183 7.8752)">
                <path d="M 27.3909 8.2019 L 24.5795 6.6601 L 26.0098 3.6301 C 26.0955 3.4485 26.0666 3.2286 25.9371 3.0797 C 25.808 2.9311 25.6065 2.8854 25.4324 2.9655 L 21.2775 4.8818 C 20.7425 3.458 19.8156 2.2608 18.5712 1.3987 C 17.217 0.4599 15.5779 -0.0238 13.8251 0.0009 L 13.8246 0.0009 C 13.8227 0.0009 13.8208 0.0009 13.8188 0.0009 C 13.8164 0.0009 13.8144 0.0009 13.8119 0.0009 L 13.8114 0.0009 C 12.06 -0.0222 10.4197 0.4599 9.0653 1.3987 C 7.821 2.2608 6.8935 3.458 6.3586 4.8815 L 2.2042 2.9658 C 2.0301 2.8857 1.8284 2.9311 1.6995 3.08 C 1.5702 3.2286 1.5414 3.4485 1.6271 3.6304 L 3.0571 6.6604 L 0.2458 8.2019 C 0.0828 8.2917 -0.0139 8.4782 0.0016 8.6747 C 0.0175 8.8705 0.1419 9.0375 0.3166 9.0954 L 2.658 9.8761 L 1.6756 12.0631 C 1.5912 12.251 1.6278 12.4759 1.7669 12.6211 C 1.8526 12.7108 1.9657 12.7581 2.0799 12.7581 C 2.1505 12.7581 2.2218 12.7399 2.2871 12.7037 L 6.25 10.4819 C 7.2706 13.5842 10.0899 15.6954 13.6041 15.7479 C 13.6063 15.7479 13.6082 15.7479 13.6104 15.7479 C 13.6408 15.7479 13.6707 15.7449 13.6994 15.7383 C 13.7252 15.744 13.7517 15.7473 13.7786 15.7479 C 13.8539 15.7492 13.9286 15.7503 14.0034 15.7503 C 16.3343 15.7503 18.2757 15.0409 19.6284 13.6921 C 20.4731 12.8504 21.0832 11.7713 21.4382 10.5107 L 25.3493 12.7033 C 25.4147 12.7399 25.4858 12.7581 25.5567 12.7581 C 25.6706 12.7581 25.7839 12.7108 25.8696 12.6211 C 26.0085 12.4756 26.0454 12.2505 25.9613 12.0631 L 24.9786 9.8758 L 27.32 9.0954 C 27.4946 9.0373 27.6195 8.8705 27.635 8.6743 C 27.6502 8.4779 27.5539 8.2911 27.3909 8.2019 Z M 24.2136 9.1177 C 24.0882 9.1596 23.9864 9.2578 23.934 9.3871 C 23.882 9.5163 23.8847 9.6643 23.9419 9.791 L 24.5618 11.1705 L 21.6844 9.5576 C 21.6744 9.5523 21.6645 9.5473 21.6543 9.5427 C 21.7243 9.1275 21.77 8.6965 21.79 8.2503 C 21.8019 7.9835 21.6108 7.7567 21.363 7.7438 C 21.1148 7.7307 20.9047 7.9376 20.8928 8.2038 C 20.703 12.4664 18.1143 14.8622 13.7945 14.7799 C 13.7919 14.7799 13.7891 14.7799 13.7862 14.7799 C 13.7558 14.7799 13.7263 14.7831 13.6972 14.7893 C 13.671 14.7837 13.6439 14.7806 13.6165 14.7799 C 9.801 14.7227 6.9107 11.9571 6.7437 8.2038 C 6.7317 7.9373 6.5194 7.7313 6.2733 7.7438 C 6.0256 7.7567 5.8343 7.9835 5.8462 8.2503 C 5.8659 8.69 5.9181 9.1171 6.0003 9.5304 L 3.0747 11.1705 L 3.6943 9.791 C 3.7513 9.6643 3.7541 9.5163 3.702 9.3871 C 3.6501 9.2578 3.5479 9.1596 3.4229 9.1177 L 1.6398 8.5233 L 3.8647 7.3034 C 4.0857 7.1819 4.1737 6.8911 4.0613 6.6525 L 2.989 4.3808 L 6.4403 5.9722 C 6.9351 6.1966 7.0395 5.6916 7.0436 5.6782 C 7.0438 5.6776 7.044 5.6772 7.0444 5.6766 C 7.92 2.7681 10.5757 0.9177 13.8116 0.9689 C 13.8136 0.9692 13.8158 0.9692 13.8179 0.9692 L 13.8179 0.9692 L 13.8184 0.9692 L 13.8184 0.9692 L 13.8184 0.9692 C 13.8202 0.9692 13.8224 0.9692 13.8245 0.9689 C 17.0597 0.9227 19.7162 2.7681 20.5922 5.6766 C 20.6536 5.8813 20.9208 6.1212 21.193 5.9732 C 21.1939 5.9732 24.6475 4.3808 24.6475 4.3808 L 23.5749 6.6525 C 23.4623 6.8911 23.5503 7.1822 23.7715 7.3034 L 25.9964 8.5233 L 24.2136 9.1177 Z" stroke="none" stroke-linejoin="miter" stroke-linecap="butt" fill="#000000" fill-rule="nonzero"/>
            </g>
        </g>
    </g>
    <g transform="translate(544.4096 256.9451)">
        <g>
            <g transform="translate(-6.1996 5.6765) rotate(285 13.8183 7.5001)">
                <path d="M 27.3909 7.8114 L 24.5795 6.343 L 26.0098 3.4572 C 26.0955 3.2844 26.0666 3.0747 25.9371 2.9331 C 25.808 2.7915 25.6065 2.748 25.4324 2.8242 L 21.2775 4.6494 C 20.7425 3.2934 19.8156 2.1533 18.5712 1.3322 C 17.217 0.4382 15.5779 -0.0226 13.8251 0.0008 L 13.8246 0.0008 C 13.8227 0.0008 13.8208 0.0008 13.8188 0.0008 C 13.8164 0.0008 13.8144 0.0008 13.8119 0.0008 L 13.8114 0.0008 C 12.06 -0.0214 10.4197 0.4382 9.0653 1.3322 C 7.821 2.1534 6.8935 3.2934 6.3586 4.6492 L 2.2042 2.8245 C 2.0301 2.7483 1.8284 2.7918 1.6995 2.9334 C 1.5702 3.075 1.5414 3.2844 1.6271 3.4575 L 3.0571 6.3432 L 0.2458 7.8114 C 0.0828 7.8966 -0.0139 8.0745 0.0016 8.2614 C 0.0175 8.4483 0.1419 8.6073 0.3166 8.6625 L 2.658 9.4059 L 1.6756 11.4886 C 1.5912 11.6674 1.6278 11.8818 1.7669 12.0201 C 1.8526 12.1057 1.9657 12.1504 2.0799 12.1504 C 2.1505 12.1504 2.2218 12.1333 2.2871 12.0984 L 6.25 9.9828 C 7.2706 12.9372 10.0899 14.9479 13.6041 14.9982 C 13.6063 14.9982 13.6082 14.9982 13.6104 14.9982 C 13.6408 14.9982 13.6707 14.995 13.6994 14.989 C 13.7252 14.9943 13.7517 14.9976 13.7786 14.998 C 13.8539 14.9994 13.9286 15.0001 14.0034 15.0001 C 16.3343 15.0001 18.2757 14.3245 19.6284 13.0402 C 20.4731 12.2383 21.0832 11.2108 21.4382 10.0101 L 25.3493 12.0982 C 25.4147 12.1332 25.4858 12.1503 25.5567 12.1503 C 25.6706 12.1503 25.7839 12.1056 25.8696 12.0199 C 26.0085 11.8815 26.0454 11.6673 25.9613 11.4885 L 24.9786 9.4056 L 27.32 8.6622 C 27.4946 8.607 27.6195 8.4483 27.635 8.2611 C 27.6502 8.0742 27.5539 7.8963 27.3909 7.8114 Z M 24.2136 8.6835 C 24.0882 8.7234 23.9864 8.817 23.934 8.94 C 23.882 9.0633 23.8847 9.204 23.9419 9.3249 L 24.5618 10.6386 L 21.6844 9.1023 C 21.6744 9.0972 21.6645 9.0927 21.6543 9.0882 C 21.7243 8.6928 21.77 8.2824 21.79 7.8576 C 21.8019 7.6033 21.6108 7.3875 21.363 7.3752 C 21.1148 7.3624 20.9047 7.5594 20.8928 7.8132 C 20.703 11.8729 18.1143 14.1546 13.7945 14.0761 C 13.7919 14.0761 13.7891 14.0761 13.7862 14.0761 C 13.7558 14.0761 13.7263 14.0791 13.6972 14.085 C 13.671 14.0796 13.6439 14.0766 13.6165 14.0761 C 9.801 14.0215 6.9107 11.3877 6.7437 7.8132 C 6.7317 7.5592 6.5194 7.3632 6.2733 7.3752 C 6.0256 7.3873 5.8343 7.6032 5.8462 7.8576 C 5.8659 8.2761 5.9181 8.6829 6.0003 9.0765 L 3.0747 10.6386 L 3.6943 9.3249 C 3.7513 9.204 3.7541 9.0633 3.702 8.94 C 3.6501 8.817 3.5479 8.7234 3.4229 8.6835 L 1.6398 8.1174 L 3.8647 6.9556 C 4.0857 6.8401 4.1737 6.5626 4.0613 6.3358 L 2.989 4.1723 L 6.4403 5.688 C 6.9351 5.9013 7.0395 5.4205 7.0436 5.4079 C 7.0438 5.4073 7.044 5.4069 7.0444 5.4064 C 7.92 2.6361 10.5757 0.8742 13.8116 0.923 C 13.8136 0.9231 13.8158 0.9231 13.8179 0.9231 L 13.8179 0.9231 L 13.8184 0.9231 L 13.8184 0.9231 L 13.8184 0.9231 C 13.8202 0.9231 13.8224 0.9231 13.8245 0.923 C 17.0597 0.8787 19.7162 2.6361 20.5922 5.4064 C 20.6536 5.6013 20.9208 5.8297 21.193 5.689 C 21.1939 5.6886 24.6475 4.1723 24.6475 4.1723 L 23.5749 6.3358 C 23.4623 6.5626 23.5503 6.8403 23.7715 6.9556 L 25.9964 8.1174 L 24.2136 8.6835 Z" stroke="none" stroke-linejoin="miter" stroke-linecap="butt" fill="#000000" fill-rule="nonzero"/>
            </g>
            <g transform="translate(29.1332 26.3472) rotate(310 13.8183 7.5001)">
                <path d="M 27.3909 7.8114 L 24.5795 6.343 L 26.0098 3.4572 C 26.0955 3.2844 26.0666 3.0747 25.9371 2.9331 C 25.808 2.7915 25.6065 2.748 25.4324 2.8242 L 21.2775 4.6494 C 20.7425 3.2934 19.8156 2.1533 18.5712 1.3322 C 17.217 0.4382 15.5779 -0.0226 13.8251 0.0008 L 13.8246 0.0008 C 13.8227 0.0008 13.8208 0.0008 13.8188 0.0008 C 13.8164 0.0008 13.8144 0.0008 13.8119 0.0008 L 13.8114 0.0008 C 12.06 -0.0214 10.4197 0.4382 9.0653 1.3322 C 7.821 2.1534 6.8935 3.2934 6.3586 4.6492 L 2.2042 2.8245 C 2.0301 2.7483 1.8284 2.7918 1.6995 2.9334 C 1.5702 3.075 1.5414 3.2844 1.6271 3.4575 L 3.0571 6.3432 L 0.2458 7.8114 C 0.0828 7.8966 -0.0139 8.0745 0.0016 8.2614 C 0.0175 8.4483 0.1419 8.6073 0.3166 8.6625 L 2.658 9.4059 L 1.6756 11.4886 C 1.5912 11.6674 1.6278 11.8818 1.7669 12.0201 C 1.8526 12.1057 1.9657 12.1504 2.0799 12.1504 C 2.1505 12.1504 2.2218 12.1333 2.2871 12.0984 L 6.25 9.9828 C 7.2706 12.9372 10.0899 14.9479 13.6041 14.9982 C 13.6063 14.9982 13.6082 14.9982 13.6104 14.9982 C 13.6408 14.9982 13.6707 14.995 13.6994 14.989 C 13.7252 14.9943 13.7517 14.9976 13.7786 14.998 C 13.8539 14.9994 13.9286 15.0001 14.0034 15.0001 C 16.3343 15.0001 18.2757 14.3245 19.6284 13.0402 C 20.4731 12.2383 21.0832 11.2108 21.4382 10.0101 L 25.3493 12.0982 C 25.4147 12.1332 25.4858 12.1503 25.5567 12.1503 C 25.6706 12.1503 25.7839 12.1056 25.8696 12.0199 C 26.0085 11.8815 26.0454 11.6673 25.9613 11.4885 L 24.9786 9.4056 L 27.32 8.6622 C 27.4946 8.607 27.6195 8.4483 27.635 8.2611 C 27.6502 8.0742 27.5539 7.8963 27.3909 7.8114 Z M 24.2136 8.6835 C 24.0882 8.7234 23.9864 8.817 23.934 8.94 C 23.882 9.0633 23.8847 9.204 23.9419 9.3249 L 24.5618 10.6386 L 21.6844 9.1023 C 21.6744 9.0972 21.6645 9.0927 21.6543 9.0882 C 21.7243 8.6928 21.77 8.2824 21.79 7.8576 C 21.8019 7.6033 21.6108 7.3875 21.363 7.3752 C 21.1148 7.3624 20.9047 7.5594 20.8928 7.8132 C 20.703 11.8729 18.1143 14.1546 13.7945 14.0761 C 13.7919 14.0761 13.7891 14.0761 13.7862 14.0761 C 13.7558 14.0761 13.7263 14.0791 13.6972 14.085 C 13.671 14.0796 13.6439 14.0766 13.6165 14.0761 C 9.801 14.0215 6.9107 11.3877 6.7437 7.8132 C 6.7317 7.5592 6.5194 7.3632 6.2733 7.3752 C 6.0256 7.3873 5.8343 7.6032 5.8462 7.8576 C 5.8659 8.2761 5.9181 8.6829 6.0003 9.0765 L 3.0747 10.6386 L 3.6943 9.3249 C 3.7513 9.204 3.7541 9.0633 3.702 8.94 C 3.6501 8.817 3.5479 8.7234 3.4229 8.6835 L 1.6398 8.1174 L 3.8647 6.9556 C 4.0857 6.8401 4.1737 6.5626 4.0613 6.3358 L 2.989 4.1723 L 6.4403 5.688 C 6.9351 5.9013 7.0395 5.4205 7.0436 5.4079 C 7.0438 5.4073 7.044 5.4069 7.0444 5.4064 C 7.92 2.6361 10.5757 0.8742 13.8116 0.923 C 13.8136 0.9231 13.8158 0.9231 13.8179 0.9231 L 13.8179 0.9231 L 13.8184 0.9231 L 13.8184 0.9231 L 13.8184 0.9231 C 13.8202 0.9231 13.8224 0.9231 13.8245 0.923 C 17.0597 0.8787 19.7162 2.6361 20.5922 5.4064 C 20.6536 5.6013 20.9208 5.8297 21.193 5.689 C 21.1939 5.6886 24.6475 4.1723 24.6475 4.1723 L 23.5749 6.3358 C 23.4623 6.5626 23.5503 6.8403 23.7715 6.9556 L 25.9964 8.1174 L 24.2136 8.6835 Z" stroke="none" stroke-linejoin="miter" stroke-linecap="butt" fill="#000000" fill-rule="nonzero"/>
            </g>
            <g transform="translate(-1.1092 41.5045) rotate(295 13.8183 7.5001)">
                <path d="M 27.3909 7.8114 L 24.5795 6.343 L 26.0098 3.4572 C 26.0955 3.2844 26.0666 3.0747 25.9371 2.9331 C 25.808 2.7915 25.6065 2.748 25.4324 2.8242 L 21.2775 4.6494 C 20.7425 3.2934 19.8156 2.1533 18.5712 1.3322 C 17.217 0.4382 15.5779 -0.0226 13.8251 0.0008 L 13.8246 0.0008 C 13.8227 0.0008 13.8208 0.0008 13.8188 0.0008 C 13.8164 0.0008 13.8144 0.0008 13.8119 0.0008 L 13.8114 0.0008 C 12.06 -0.0214 10.4197 0.4382 9.0653 1.3322 C 7.821 2.1534 6.8935 3.2934 6.3586 4.6492 L 2.2042 2.8245 C 2.0301 2.7483 1.8284 2.7918 1.6995 2.9334 C 1.5702 3.075 1.5414 3.2844 1.6271 3.4575 L 3.0571 6.3432 L 0.2458 7.8114 C 0.0828 7.8966 -0.0139 8.0745 0.0016 8.2614 C 0.0175 8.4483 0.1419 8.6073 0.3166 8.6625 L 2.658 9.4059 L 1.6756 11.4886 C 1.5912 11.6674 1.6278 11.8818 1.7669 12.0201 C 1.8526 12.1057 1.9657 12.1504 2.0799 12.1504 C 2.1505 12.1504 2.2218 12.1333 2.2871 12.0984 L 6.25 9.9828 C 7.2706 12.9372 10.0899 14.9479 13.6041 14.9982 C 13.6063 14.9982 13.6082 14.9982 13.6104 14.9982 C 13.6408 14.9982 13.6707 14.995 13.6994 14.989 C 13.7252 14.9943 13.7517 14.9976 13.7786 14.998 C 13.8539 14.9994 13.9286 15.0001 14.0034 15.0001 C 16.3343 15.0001 18.2757 14.3245 19.6284 13.0402 C 20.4731 12.2383 21.0832 11.2108 21.4382 10.0101 L 25.3493 12.0982 C 25.4147 12.1332 25.4858 12.1503 25.5567 12.1503 C 25.6706 12.1503 25.7839 12.1056 25.8696 12.0199 C 26.0085 11.8815 26.0454 11.6673 25.9613 11.4885 L 24.9786 9.4056 L 27.32 8.6622 C 27.4946 8.607 27.6195 8.4483 27.635 8.2611 C 27.6502 8.0742 27.5539 7.8963 27.3909 7.8114 Z M 24.2136 8.6835 C 24.0882 8.7234 23.9864 8.817 23.934 8.94 C 23.882 9.0633 23.8847 9.204 23.9419 9.3249 L 24.5618 10.6386 L 21.6844 9.1023 C 21.6744 9.0972 21.6645 9.0927 21.6543 9.0882 C 21.7243 8.6928 21.77 8.2824 21.79 7.8576 C 21.8019 7.6033 21.6108 7.3875 21.363 7.3752 C 21.1148 7.3624 20.9047 7.5594 20.8928 7.8132 C 20.703 11.8729 18.1143 14.1546 13.7945 14.0761 C 13.7919 14.0761 13.7891 14.0761 13.7862 14.0761 C 13.7558 14.0761 13.7263 14.0791 13.6972 14.085 C 13.671 14.0796 13.6439 14.0766 13.6165 14.0761 C 9.801 14.0215 6.9107 11.3877 6.7437 7.8132 C 6.7317 7.5592 6.5194 7.3632 6.2733 7.3752 C 6.0256 7.3873 5.8343 7.6032 5.8462 7.8576 C 5.8659 8.2761 5.9181 8.6829 6.0003 9.0765 L 3.0747 10.6386 L 3.6943 9.3249 C 3.7513 9.204 3.7541 9.0633 3.702 8.94 C 3.6501 8.817 3.5479 8.7234 3.4229 8.6835 L 1.6398 8.1174 L 3.8647 6.9556 C 4.0857 6.8401 4.1737 6.5626 4.0613 6.3358 L 2.989 4.1723 L 6.4403 5.688 C 6.9351 5.9013 7.0395 5.4205 7.0436 5.4079 C 7.0438 5.4073 7.044 5.4069 7.0444 5.4064 C 7.92 2.6361 10.5757 0.8742 13.8116 0.923 C 13.8136 0.9231 13.8158 0.9231 13.8179 0.9231 L 13.8179 0.9231 L 13.8184 0.9231 L 13.8184 0.9231 L 13.8184 0.9231 C 13.8202 0.9231 13.8224 0.9231 13.8245 0.923 C 17.0597 0.8787 19.7162 2.6361 20.5922 5.4064 C 20.6536 5.6013 20.9208 5.8297 21.193 5.689 C 21.1939 5.6886 24.6475 4.1723 24.6475 4.1723 L 23.5749 6.3358 C 23.4623 6.5626 23.5503 6.8403 23.7715 6.9556 L 25.9964 8.1174 L 24.2136 8.6835 Z" stroke="none" stroke-linejoin="miter" stroke-linecap="butt" fill="#000000" fill-rule="nonzero"/>
            </g>
        </g>
    </g>
    <g transform="translate(543.6866 439.5)">
        <g>
            <g transform="translate(24.5234 3.1215) rotate(215 13.8183 7.5001)">
                <path d="M 27.3909 7.8114 L 24.5795 6.343 L 26.0098 3.4572 C 26.0955 3.2844 26.0666 3.0747 25.9371 2.9331 C 25.808 2.7915 25.6065 2.748 25.4324 2.8242 L 21.2775 4.6494 C 20.7425 3.2934 19.8156 2.1533 18.5712 1.3322 C 17.217 0.4382 15.5779 -0.0226 13.8251 0.0008 L 13.8246 0.0008 C 13.8227 0.0008 13.8208 0.0008 13.8188 0.0008 C 13.8164 0.0008 13.8144 0.0008 13.8119 0.0008 L 13.8114 0.0008 C 12.06 -0.0214 10.4197 0.4382 9.0653 1.3322 C 7.821 2.1534 6.8935 3.2934 6.3586 4.6492 L 2.2042 2.8245 C 2.0301 2.7483 1.8284 2.7918 1.6995 2.9334 C 1.5702 3.075 1.5414 3.2844 1.6271 3.4575 L 3.0571 6.3432 L 0.2458 7.8114 C 0.0828 7.8966 -0.0139 8.0745 0.0016 8.2614 C 0.0175 8.4483 0.1419 8.6073 0.3166 8.6625 L 2.658 9.4059 L 1.6756 11.4886 C 1.5912 11.6674 1.6278 11.8818 1.7669 12.0201 C 1.8526 12.1057 1.9657 12.1504 2.0799 12.1504 C 2.1505 12.1504 2.2218 12.1333 2.2871 12.0984 L 6.25 9.9828 C 7.2706 12.9372 10.0899 14.9479 13.6041 14.9982 C 13.6063 14.9982 13.6082 14.9982 13.6104 14.9982 C 13.6408 14.9982 13.6707 14.995 13.6994 14.989 C 13.7252 14.9943 13.7517 14.9976 13.7786 14.998 C 13.8539 14.9994 13.9286 15.0001 14.0034 15.0001 C 16.3343 15.0001 18.2757 14.3245 19.6284 13.0402 C 20.4731 12.2383 21.0832 11.2108 21.4382 10.0101 L 25.3493 12.0982 C 25.4147 12.1332 25.4858 12.1503 25.5567 12.1503 C 25.6706 12.1503 25.7839 12.1056 25.8696 12.0199 C 26.0085 11.8815 26.0454 11.6673 25.9613 11.4885 L 24.9786 9.4056 L 27.32 8.6622 C 27.4946 8.607 27.6195 8.4483 27.635 8.2611 C 27.6502 8.0742 27.5539 7.8963 27.3909 7.8114 Z M 24.2136 8.6835 C 24.0882 8.7234 23.9864 8.817 23.934 8.94 C 23.882 9.0633 23.8847 9.204 23.9419 9.3249 L 24.5618 10.6386 L 21.6844 9.1023 C 21.6744 9.0972 21.6645 9.0927 21.6543 9.0882 C 21.7243 8.6928 21.77 8.2824 21.79 7.8576 C 21.8019 7.6033 21.6108 7.3875 21.363 7.3752 C 21.1148 7.3624 20.9047 7.5594 20.8928 7.8132 C 20.703 11.8729 18.1143 14.1546 13.7945 14.0761 C 13.7919 14.0761 13.7891 14.0761 13.7862 14.0761 C 13.7558 14.0761 13.7263 14.0791 13.6972 14.085 C 13.671 14.0796 13.6439 14.0766 13.6165 14.0761 C 9.801 14.0215 6.9107 11.3877 6.7437 7.8132 C 6.7317 7.5592 6.5194 7.3632 6.2733 7.3752 C 6.0256 7.3873 5.8343 7.6032 5.8462 7.8576 C 5.8659 8.2761 5.9181 8.6829 6.0003 9.0765 L 3.0747 10.6386 L 3.6943 9.3249 C 3.7513 9.204 3.7541 9.0633 3.702 8.94 C 3.6501 8.817 3.5479 8.7234 3.4229 8.6835 L 1.6398 8.1174 L 3.8647 6.9556 C 4.0857 6.8401 4.1737 6.5626 4.0613 6.3358 L 2.989 4.1723 L 6.4403 5.688 C 6.9351 5.9013 7.0395 5.4205 7.0436 5.4079 C 7.0438 5.4073 7.044 5.4069 7.0444 5.4064 C 7.92 2.6361 10.5757 0.8742 13.8116 0.923 C 13.8136 0.9231 13.8158 0.9231 13.8179 0.9231 L 13.8179 0.9231 L 13.8184 0.9231 L 13.8184 0.9231 L 13.8184 0.9231 C 13.8202 0.9231 13.8224 0.9231 13.8245 0.923 C 17.0597 0.8787 19.7162 2.6361 20.5922 5.4064 C 20.6536 5.6013 20.9208 5.8297 21.193 5.689 C 21.1939 5.6886 24.6475 4.1723 24.6475 4.1723 L 23.5749 6.3358 C 23.4623 6.5626 23.5503 6.8403 23.7715 6.9556 L 25.9964 8.1174 L 24.2136 8.6835 Z" stroke="none" stroke-linejoin="miter" stroke-linecap="butt" fill="#000000" fill-rule="nonzero"/>
            </g>
            <g transform="translate(-5.9171 20.6094) rotate(80 13.8183 7.8752)">
                <path d="M 27.3909 8.2019 L 24.5795 6.6601 L 26.0098 3.6301 C 26.0955 3.4485 26.0666 3.2286 25.9371 3.0797 C 25.808 2.9311 25.6065 2.8854 25.4324 2.9655 L 21.2775 4.8818 C 20.7425 3.458 19.8156 2.2608 18.5712 1.3987 C 17.217 0.4599 15.5779 -0.0238 13.8251 0.0009 L 13.8246 0.0009 C 13.8227 0.0009 13.8208 0.0009 13.8188 0.0009 C 13.8164 0.0009 13.8144 0.0009 13.8119 0.0009 L 13.8114 0.0009 C 12.06 -0.0222 10.4197 0.4599 9.0653 1.3987 C 7.821 2.2608 6.8935 3.458 6.3586 4.8815 L 2.2042 2.9658 C 2.0301 2.8857 1.8284 2.9311 1.6995 3.08 C 1.5702 3.2286 1.5414 3.4485 1.6271 3.6304 L 3.0571 6.6604 L 0.2458 8.2019 C 0.0828 8.2917 -0.0139 8.4782 0.0016 8.6747 C 0.0175 8.8705 0.1419 9.0375 0.3166 9.0954 L 2.658 9.8761 L 1.6756 12.0631 C 1.5912 12.251 1.6278 12.4759 1.7669 12.6211 C 1.8526 12.7108 1.9657 12.7581 2.0799 12.7581 C 2.1505 12.7581 2.2218 12.7399 2.2871 12.7037 L 6.25 10.4819 C 7.2706 13.5842 10.0899 15.6954 13.6041 15.7479 C 13.6063 15.7479 13.6082 15.7479 13.6104 15.7479 C 13.6408 15.7479 13.6707 15.7449 13.6994 15.7383 C 13.7252 15.744 13.7517 15.7473 13.7786 15.7479 C 13.8539 15.7492 13.9286 15.7503 14.0034 15.7503 C 16.3343 15.7503 18.2757 15.0409 19.6284 13.6921 C 20.4731 12.8504 21.0832 11.7713 21.4382 10.5107 L 25.3493 12.7033 C 25.4147 12.7399 25.4858 12.7581 25.5567 12.7581 C 25.6706 12.7581 25.7839 12.7108 25.8696 12.6211 C 26.0085 12.4756 26.0454 12.2505 25.9613 12.0631 L 24.9786 9.8758 L 27.32 9.0954 C 27.4946 9.0373 27.6195 8.8705 27.635 8.6743 C 27.6502 8.4779 27.5539 8.2911 27.3909 8.2019 Z M 24.2136 9.1177 C 24.0882 9.1596 23.9864 9.2578 23.934 9.3871 C 23.882 9.5163 23.8847 9.6643 23.9419 9.791 L 24.5618 11.1705 L 21.6844 9.5576 C 21.6744 9.5523 21.6645 9.5473 21.6543 9.5427 C 21.7243 9.1275 21.77 8.6965 21.79 8.2503 C 21.8019 7.9835 21.6108 7.7567 21.363 7.7438 C 21.1148 7.7307 20.9047 7.9376 20.8928 8.2038 C 20.703 12.4664 18.1143 14.8622 13.7945 14.7799 C 13.7919 14.7799 13.7891 14.7799 13.7862 14.7799 C 13.7558 14.7799 13.7263 14.7831 13.6972 14.7893 C 13.671 14.7837 13.6439 14.7806 13.6165 14.7799 C 9.801 14.7227 6.9107 11.9571 6.7437 8.2038 C 6.7317 7.9373 6.5194 7.7313 6.2733 7.7438 C 6.0256 7.7567 5.8343 7.9835 5.8462 8.2503 C 5.8659 8.69 5.9181 9.1171 6.0003 9.5304 L 3.0747 11.1705 L 3.6943 9.791 C 3.7513 9.6643 3.7541 9.5163 3.702 9.3871 C 3.6501 9.2578 3.5479 9.1596 3.4229 9.1177 L 1.6398 8.5233 L 3.8647 7.3034 C 4.0857 7.1819 4.1737 6.8911 4.0613 6.6525 L 2.989 4.3808 L 6.4403 5.9722 C 6.9351 6.1966 7.0395 5.6916 7.0436 5.6782 C 7.0438 5.6776 7.044 5.6772 7.0444 5.6766 C 7.92 2.7681 10.5757 0.9177 13.8116 0.9689 C 13.8136 0.9692 13.8158 0.9692 13.8179 0.9692 L 13.8179 0.9692 L 13.8184 0.9692 L 13.8184 0.9692 L 13.8184 0.9692 C 13.8202 0.9692 13.8224 0.9692 13.8245 0.9689 C 17.0597 0.9227 19.7162 2.7681 20.5922 5.6766 C 20.6536 5.8813 20.9208 6.1212 21.193 5.9732 C 21.1939 5.9732 24.6475 4.3808 24.6475 4.3808 L 23.5749 6.6525 C 23.4623 6.8911 23.5503 7.1822 23.7715 7.3034 L 25.9964 8.5233 L 24.2136 9.1177 Z" stroke="none" stroke-linejoin="miter" stroke-linecap="butt" fill="#000000" fill-rule="nonzero"/>
            </g>
        </g>
    </g>
    <g transform="translate(438.2532 436.6677) rotate(185 27.081 30.9387)">
        <g>
            <g transform="translate(-6.1996 5.6765) rotate(285 13.8183 7.5001)">
                <path d="M 27.3909 7.8114 L 24.5795 6.343 L 26.0098 3.4572 C 26.0955 3.2844 26.0666 3.0747 25.9371 2.9331 C 25.808 2.7915 25.6065 2.748 25.4324 2.8242 L 21.2775 4.6494 C 20.7425 3.2934 19.8156 2.1533 18.5712 1.3322 C 17.217 0.4382 15.5779 -0.0226 13.8251 0.0008 L 13.8246 0.0008 C 13.8227 0.0008 13.8208 0.0008 13.8188 0.0008 C 13.8164 0.0008 13.8144 0.0008 13.8119 0.0008 L 13.8114 0.0008 C 12.06 -0.0214 10.4197 0.4382 9.0653 1.3322 C 7.821 2.1534 6.8935 3.2934 6.3586 4.6492 L 2.2042 2.8245 C 2.0301 2.7483 1.8284 2.7918 1.6995 2.9334 C 1.5702 3.075 1.5414 3.2844 1.6271 3.4575 L 3.0571 6.3432 L 0.2458 7.8114 C 0.0828 7.8966 -0.0139 8.0745 0.0016 8.2614 C 0.0175 8.4483 0.1419 8.6073 0.3166 8.6625 L 2.658 9.4059 L 1.6756 11.4886 C 1.5912 11.6674 1.6278 11.8818 1.7669 12.0201 C 1.8526 12.1057 1.9657 12.1504 2.0799 12.1504 C 2.1505 12.1504 2.2218 12.1333 2.2871 12.0984 L 6.25 9.9828 C 7.2706 12.9372 10.0899 14.9479 13.6041 14.9982 C 13.6063 14.9982 13.6082 14.9982 13.6104 14.9982 C 13.6408 14.9982 13.6707 14.995 13.6994 14.989 C 13.7252 14.9943 13.7517 14.9976 13.7786 14.998 C 13.8539 14.9994 13.9286 15.0001 14.0034 15.0001 C 16.3343 15.0001 18.2757 14.3245 19.6284 13.0402 C 20.4731 12.2383 21.0832 11.2108 21.4382 10.0101 L 25.3493 12.0982 C 25.4147 12.1332 25.4858 12.1503 25.5567 12.1503 C 25.6706 12.1503 25.7839 12.1056 25.8696 12.0199 C 26.0085 11.8815 26.0454 11.6673 25.9613 11.4885 L 24.9786 9.4056 L 27.32 8.6622 C 27.4946 8.607 27.6195 8.4483 27.635 8.2611 C 27.6502 8.0742 27.5539 7.8963 27.3909 7.8114 Z M 24.2136 8.6835 C 24.0882 8.7234 23.9864 8.817 23.934 8.94 C 23.882 9.0633 23.8847 9.204 23.9419 9.3249 L 24.5618 10.6386 L 21.6844 9.1023 C 21.6744 9.0972 21.6645 9.0927 21.6543 9.0882 C 21.7243 8.6928 21.77 8.2824 21.79 7.8576 C 21.8019 7.6033 21.6108 7.3875 21.363 7.3752 C 21.1148 7.3624 20.9047 7.5594 20.8928 7.8132 C 20.703 11.8729 18.1143 14.1546 13.7945 14.0761 C 13.7919 14.0761 13.7891 14.0761 13.7862 14.0761 C 13.7558 14.0761 13.7263 14.0791 13.6972 14.085 C 13.671 14.0796 13.6439 14.0766 13.6165 14.0761 C 9.801 14.0215 6.9107 11.3877 6.7437 7.8132 C 6.7317 7.5592 6.5194 7.3632 6.2733 7.3752 C 6.0256 7.3873 5.8343 7.6032 5.8462 7.8576 C 5.8659 8.2761 5.9181 8.6829 6.0003 9.0765 L 3.0747 10.6386 L 3.6943 9.3249 C 3.7513 9.204 3.7541 9.0633 3.702 8.94 C 3.6501 8.817 3.5479 8.7234 3.4229 8.6835 L 1.6398 8.1174 L 3.8647 6.9556 C 4.0857 6.8401 4.1737 6.5626 4.0613 6.3358 L 2.989 4.1723 L 6.4403 5.688 C 6.9351 5.9013 7.0395 5.4205 7.0436 5.4079 C 7.0438 5.4073 7.044 5.4069 7.0444 5.4064 C 7.92 2.6361 10.5757 0.8742 13.8116 0.923 C 13.8136 0.9231 13.8158 0.9231 13.8179 0.9231 L 13.8179 0.9231 L 13.8184 0.9231 L 13.8184 0.9231 L 13.8184 0.9231 C 13.8202 0.9231 13.8224 0.9231 13.8245 0.923 C 17.0597 0.8787 19.7162 2.6361 20.5922 5.4064 C 20.6536 5.6013 20.9208 5.8297 21.193 5.689 C 21.1939 5.6886 24.6475 4.1723 24.6475 4.1723 L 23.5749 6.3358 C 23.4623 6.5626 23.5503 6.8403 23.7715 6.9556 L 25.9964 8.1174 L 24.2136 8.6835 Z" stroke="none" stroke-linejoin="miter" stroke-linecap="butt" fill="#000000" fill-rule="nonzero"/>
            </g>
            <g transform="translate(29.1332 26.3472) rotate(310 13.8183 7.5001)">
                <path d="M 27.3909 7.8114 L 24.5795 6.343 L 26.0098 3.4572 C 26.0955 3.2844 26.0666 3.0747 25.9371 2.9331 C 25.808 2.7915 25.6065 2.748 25.4324 2.8242 L 21.2775 4.6494 C 20.7425 3.2934 19.8156 2.1533 18.5712 1.3322 C 17.217 0.4382 15.5779 -0.0226 13.8251 0.0008 L 13.8246 0.0008 C 13.8227 0.0008 13.8208 0.0008 13.8188 0.0008 C 13.8164 0.0008 13.8144 0.0008 13.8119 0.0008 L 13.8114 0.0008 C 12.06 -0.0214 10.4197 0.4382 9.0653 1.3322 C 7.821 2.1534 6.8935 3.2934 6.3586 4.6492 L 2.2042 2.8245 C 2.0301 2.7483 1.8284 2.7918 1.6995 2.9334 C 1.5702 3.075 1.5414 3.2844 1.6271 3.4575 L 3.0571 6.3432 L 0.2458 7.8114 C 0.0828 7.8966 -0.0139 8.0745 0.0016 8.2614 C 0.0175 8.4483 0.1419 8.6073 0.3166 8.6625 L 2.658 9.4059 L 1.6756 11.4886 C 1.5912 11.6674 1.6278 11.8818 1.7669 12.0201 C 1.8526 12.1057 1.9657 12.1504 2.0799 12.1504 C 2.1505 12.1504 2.2218 12.1333 2.2871 12.0984 L 6.25 9.9828 C 7.2706 12.9372 10.0899 14.9479 13.6041 14.9982 C 13.6063 14.9982 13.6082 14.9982 13.6104 14.9982 C 13.6408 14.9982 13.6707 14.995 13.6994 14.989 C 13.7252 14.9943 13.7517 14.9976 13.7786 14.998 C 13.8539 14.9994 13.9286 15.0001 14.0034 15.0001 C 16.3343 15.0001 18.2757 14.3245 19.6284 13.0402 C 20.4731 12.2383 21.0832 11.2108 21.4382 10.0101 L 25.3493 12.0982 C 25.4147 12.1332 25.4858 12.1503 25.5567 12.1503 C 25.6706 12.1503 25.7839 12.1056 25.8696 12.0199 C 26.0085 11.8815 26.0454 11.6673 25.9613 11.4885 L 24.9786 9.4056 L 27.32 8.6622 C 27.4946 8.607 27.6195 8.4483 27.635 8.2611 C 27.6502 8.0742 27.5539 7.8963 27.3909 7.8114 Z M 24.2136 8.6835 C 24.0882 8.7234 23.9864 8.817 23.934 8.94 C 23.882 9.0633 23.8847 9.204 23.9419 9.3249 L 24.5618 10.6386 L 21.6844 9.1023 C 21.6744 9.0972 21.6645 9.0927 21.6543 9.0882 C 21.7243 8.6928 21.77 8.2824 21.79 7.8576 C 21.8019 7.6033 21.6108 7.3875 21.363 7.3752 C 21.1148 7.3624 20.9047 7.5594 20.8928 7.8132 C 20.703 11.8729 18.1143 14.1546 13.7945 14.0761 C 13.7919 14.0761 13.7891 14.0761 13.7862 14.0761 C 13.7558 14.0761 13.7263 14.0791 13.6972 14.085 C 13.671 14.0796 13.6439 14.0766 13.6165 14.0761 C 9.801 14.0215 6.9107 11.3877 6.7437 7.8132 C 6.7317 7.5592 6.5194 7.3632 6.2733 7.3752 C 6.0256 7.3873 5.8343 7.6032 5.8462 7.8576 C 5.8659 8.2761 5.9181 8.6829 6.0003 9.0765 L 3.0747 10.6386 L 3.6943 9.3249 C 3.7513 9.204 3.7541 9.0633 3.702 8.94 C 3.6501 8.817 3.5479 8.7234 3.4229 8.6835 L 1.6398 8.1174 L 3.8647 6.9556 C 4.0857 6.8401 4.1737 6.5626 4.0613 6.3358 L 2.989 4.1723 L 6.4403 5.688 C 6.9351 5.9013 7.0395 5.4205 7.0436 5.4079 C 7.0438 5.4073 7.044 5.4069 7.0444 5.4064 C 7.92 2.6361 10.5757 0.8742 13.8116 0.923 C 13.8136 0.9231 13.8158 0.9231 13.8179 0.9231 L 13.8179 0.9231 L 13.8184 0.9231 L 13.8184 0.9231 L 13.8184 0.9231 C 13.8202 0.9231 13.8224 0.9231 13.8245 0.923 C 17.0597 0.8787 19.7162 2.6361 20.5922 5.4064 C 20.6536 5.6013 20.9208 5.8297 21.193 5.689 C 21.1939 5.6886 24.6475 4.1723 24.6475 4.1723 L 23.5749 6.3358 C 23.4623 6.5626 23.5503 6.8403 23.7715 6.9556 L 25.9964 8.1174 L 24.2136 8.6835 Z" stroke="none" stroke-linejoin="miter" stroke-linecap="butt" fill="#000000" fill-rule="nonzero"/>
            </g>
            <g transform="translate(-1.1092 41.5045) rotate(295 13.8183 7.5001)">
                <path d="M 27.3909 7.8114 L 24.5795 6.343 L 26.0098 3.4572 C 26.0955 3.2844 26.0666 3.0747 25.9371 2.9331 C 25.808 2.7915 25.6065 2.748 25.4324 2.8242 L 21.2775 4.6494 C 20.7425 3.2934 19.8156 2.1533 18.5712 1.3322 C 17.217 0.4382 15.5779 -0.0226 13.8251 0.0008 L 13.8246 0.0008 C 13.8227 0.0008 13.8208 0.0008 13.8188 0.0008 C 13.8164 0.0008 13.8144 0.0008 13.8119 0.0008 L 13.8114 0.0008 C 12.06 -0.0214 10.4197 0.4382 9.0653 1.3322 C 7.821 2.1534 6.8935 3.2934 6.3586 4.6492 L 2.2042 2.8245 C 2.0301 2.7483 1.8284 2.7918 1.6995 2.9334 C 1.5702 3.075 1.5414 3.2844 1.6271 3.4575 L 3.0571 6.3432 L 0.2458 7.8114 C 0.0828 7.8966 -0.0139 8.0745 0.0016 8.2614 C 0.0175 8.4483 0.1419 8.6073 0.3166 8.6625 L 2.658 9.4059 L 1.6756 11.4886 C 1.5912 11.6674 1.6278 11.8818 1.7669 12.0201 C 1.8526 12.1057 1.9657 12.1504 2.0799 12.1504 C 2.1505 12.1504 2.2218 12.1333 2.2871 12.0984 L 6.25 9.9828 C 7.2706 12.9372 10.0899 14.9479 13.6041 14.9982 C 13.6063 14.9982 13.6082 14.9982 13.6104 14.9982 C 13.6408 14.9982 13.6707 14.995 13.6994 14.989 C 13.7252 14.9943 13.7517 14.9976 13.7786 14.998 C 13.8539 14.9994 13.9286 15.0001 14.0034 15.0001 C 16.3343 15.0001 18.2757 14.3245 19.6284 13.0402 C 20.4731 12.2383 21.0832 11.2108 21.4382 10.0101 L 25.3493 12.0982 C 25.4147 12.1332 25.4858 12.1503 25.5567 12.1503 C 25.6706 12.1503 25.7839 12.1056 25.8696 12.0199 C 26.0085 11.8815 26.0454 11.6673 25.9613 11.4885 L 24.9786 9.4056 L 27.32 8.6622 C 27.4946 8.607 27.6195 8.4483 27.635 8.2611 C 27.6502 8.0742 27.5539 7.8963 27.3909 7.8114 Z M 24.2136 8.6835 C 24.0882 8.7234 23.9864 8.817 23.934 8.94 C 23.882 9.0633 23.8847 9.204 23.9419 9.3249 L 24.5618 10.6386 L 21.6844 9.1023 C 21.6744 9.0972 21.6645 9.0927 21.6543 9.0882 C 21.7243 8.6928 21.77 8.2824 21.79 7.8576 C 21.8019 7.6033 21.6108 7.3875 21.363 7.3752 C 21.1148 7.3624 20.9047 7.5594 20.8928 7.8132 C 20.703 11.8729 18.1143 14.1546 13.7945 14.0761 C 13.7919 14.0761 13.7891 14.0761 13.7862 14.0761 C 13.7558 14.0761 13.7263 14.0791 13.6972 14.085 C 13.671 14.0796 13.6439 14.0766 13.6165 14.0761 C 9.801 14.0215 6.9107 11.3877 6.7437 7.8132 C 6.7317 7.5592 6.5194 7.3632 6.2733 7.3752 C 6.0256 7.3873 5.8343 7.6032 5.8462 7.8576 C 5.8659 8.2761 5.9181 8.6829 6.0003 9.0765 L 3.0747 10.6386 L 3.6943 9.3249 C 3.7513 9.204 3.7541 9.0633 3.702 8.94 C 3.6501 8.817 3.5479 8.7234 3.4229 8.6835 L 1.6398 8.1174 L 3.8647 6.9556 C 4.0857 6.8401 4.1737 6.5626 4.0613 6.3358 L 2.989 4.1723 L 6.4403 5.688 C 6.9351 5.9013 7.0395 5.4205 7.0436 5.4079 C 7.0438 5.4073 7.044 5.4069 7.0444 5.4064 C 7.92 2.6361 10.5757 0.8742 13.8116 0.923 C 13.8136 0.9231 13.8158 0.9231 13.8179 0.9231 L 13.8179 0.9231 L 13.8184 0.9231 L 13.8184 0.9231 L 13.8184 0.9231 C 13.8202 0.9231 13.8224 0.9231 13.8245 0.923 C 17.0597 0.8787 19.7162 2.6361 20.5922 5.4064 C 20.6536 5.6013 20.9208 5.8297 21.193 5.689 C 21.1939 5.6886 24.6475 4.1723 24.6475 4.1723 L 23.5749 6.3358 C 23.4623 6.5626 23.5503 6.8403 23.7715 6.9556 L 25.9964 8.1174 L 24.2136 8.6835 Z" stroke="none" stroke-linejoin="miter" stroke-linecap="butt" fill="#000000" fill-rule="nonzero"/>
            </g>
        </g>
    </g>
    <path d="M 27.3909 7.8114 L 24.5795 6.343 L 26.0098 3.4572 C 26.0955 3.2844 26.0666 3.0747 25.9371 2.9331 C 25.808 2.7915 25.6065 2.748 25.4324 2.8242 L 21.2775 4.6494 C 20.7425 3.2934 19.8156 2.1533 18.5712 1.3322 C 17.217 0.4382 15.5779 -0.0226 13.8251 0.0008 L 13.8246 0.0008 C 13.8227 0.0008 13.8208 0.0008 13.8188 0.0008 C 13.8164 0.0008 13.8144 0.0008 13.8119 0.0008 L 13.8114 0.0008 C 12.06 -0.0214 10.4197 0.4382 9.0653 1.3322 C 7.821 2.1534 6.8935 3.2934 6.3586 4.6492 L 2.2042 2.8245 C 2.0301 2.7483 1.8284 2.7918 1.6995 2.9334 C 1.5702 3.075 1.5414 3.2844 1.6271 3.4575 L 3.0571 6.3432 L 0.2458 7.8114 C 0.0828 7.8966 -0.0139 8.0745 0.0016 8.2614 C 0.0175 8.4483 0.1419 8.6073 0.3166 8.6625 L 2.658 9.4059 L 1.6756 11.4886 C 1.5912 11.6674 1.6278 11.8818 1.7669 12.0201 C 1.8526 12.1057 1.9657 12.1504 2.0799 12.1504 C 2.1505 12.1504 2.2218 12.1333 2.2871 12.0984 L 6.25 9.9828 C 7.2706 12.9372 10.0899 14.9479 13.6041 14.9982 C 13.6063 14.9982 13.6082 14.9982 13.6104 14.9982 C 13.6408 14.9982 13.6707 14.995 13.6994 14.989 C 13.7252 14.9943 13.7517 14.9976 13.7786 14.998 C 13.8539 14.9994 13.9286 15.0001 14.0034 15.0001 C 16.3343 15.0001 18.2757 14.3245 19.6284 13.0402 C 20.4731 12.2383 21.0832 11.2108 21.4382 10.0101 L 25.3493 12.0982 C 25.4147 12.1332 25.4858 12.1503 25.5567 12.1503 C 25.6706 12.1503 25.7839 12.1056 25.8696 12.0199 C 26.0085 11.8815 26.0454 11.6673 25.9613 11.4885 L 24.9786 9.4056 L 27.32 8.6622 C 27.4946 8.607 27.6195 8.4483 27.635 8.2611 C 27.6502 8.0742 27.5539 7.8963 27.3909 7.8114 Z M 24.2136 8.6835 C 24.0882 8.7234 23.9864 8.817 23.934 8.94 C 23.882 9.0633 23.8847 9.204 23.9419 9.3249 L 24.5618 10.6386 L 21.6844 9.1023 C 21.6744 9.0972 21.6645 9.0927 21.6543 9.0882 C 21.7243 8.6928 21.77 8.2824 21.79 7.8576 C 21.8019 7.6033 21.6108 7.3875 21.363 7.3752 C 21.1148 7.3624 20.9047 7.5594 20.8928 7.8132 C 20.703 11.8729 18.1143 14.1546 13.7945 14.0761 C 13.7919 14.0761 13.7891 14.0761 13.7862 14.0761 C 13.7558 14.0761 13.7263 14.0791 13.6972 14.085 C 13.671 14.0796 13.6439 14.0766 13.6165 14.0761 C 9.801 14.0215 6.9107 11.3877 6.7437 7.8132 C 6.7317 7.5592 6.5194 7.3632 6.2733 7.3752 C 6.0256 7.3873 5.8343 7.6032 5.8462 7.8576 C 5.8659 8.2761 5.9181 8.6829 6.0003 9.0765 L 3.0747 10.6386 L 3.6943 9.3249 C 3.7513 9.204 3.7541 9.0633 3.702 8.94 C 3.6501 8.817 3.5479 8.7234 3.4229 8.6835 L 1.6398 8.1174 L 3.8647 6.9556 C 4.0857 6.8401 4.1737 6.5626 4.0613 6.3358 L 2.989 4.1723 L 6.4403 5.688 C 6.9351 5.9013 7.0395 5.4205 7.0436 5.4079 C 7.0438 5.4073 7.044 5.4069 7.0444 5.4064 C 7.92 2.6361 10.5757 0.8742 13.8116 0.923 C 13.8136 0.9231 13.8158 0.9231 13.8179 0.9231 L 13.8179 0.9231 L 13.8184 0.9231 L 13.8184 0.9231 L 13.8184 0.9231 C 13.8202 0.9231 13.8224 0.9231 13.8245 0.923 C 17.0597 0.8787 19.7162 2.6361 20.5922 5.4064 C 20.6536 5.6013 20.9208 5.8297 21.193 5.689 C 21.1939 5.6886 24.6475 4.1723 24.6475 4.1723 L 23.5749 6.3358 C 23.4623 6.5626 23.5503 6.8403 23.7715 6.9556 L 25.9964 8.1174 L 24.2136 8.6835 Z" stroke="none" stroke-linejoin="miter" stroke-linecap="butt" fill="#000000" fill-rule="nonzero" transform="translate(401.9771 374.4812) rotate(175 13.8183 7.5001)"/>
    <path d="M 27.3909 7.8114 L 24.5795 6.343 L 26.0098 3.4572 C 26.0955 3.2844 26.0666 3.0747 25.9371 2.9331 C 25.808 2.7915 25.6065 2.748 25.4324 2.8242 L 21.2775 4.6494 C 20.7425 3.2934 19.8156 2.1533 18.5712 1.3322 C 17.217 0.4382 15.5779 -0.0226 13.8251 0.0008 L 13.8246 0.0008 C 13.8227 0.0008 13.8208 0.0008 13.8188 0.0008 C 13.8164 0.0008 13.8144 0.0008 13.8119 0.0008 L 13.8114 0.0008 C 12.06 -0.0214 10.4197 0.4382 9.0653 1.3322 C 7.821 2.1534 6.8935 3.2934 6.3586 4.6492 L 2.2042 2.8245 C 2.0301 2.7483 1.8284 2.7918 1.6995 2.9334 C 1.5702 3.075 1.5414 3.2844 1.6271 3.4575 L 3.0571 6.3432 L 0.2458 7.8114 C 0.0828 7.8966 -0.0139 8.0745 0.0016 8.2614 C 0.0175 8.4483 0.1419 8.6073 0.3166 8.6625 L 2.658 9.4059 L 1.6756 11.4886 C 1.5912 11.6674 1.6278 11.8818 1.7669 12.0201 C 1.8526 12.1057 1.9657 12.1504 2.0799 12.1504 C 2.1505 12.1504 2.2218 12.1333 2.2871 12.0984 L 6.25 9.9828 C 7.2706 12.9372 10.0899 14.9479 13.6041 14.9982 C 13.6063 14.9982 13.6082 14.9982 13.6104 14.9982 C 13.6408 14.9982 13.6707 14.995 13.6994 14.989 C 13.7252 14.9943 13.7517 14.9976 13.7786 14.998 C 13.8539 14.9994 13.9286 15.0001 14.0034 15.0001 C 16.3343 15.0001 18.2757 14.3245 19.6284 13.0402 C 20.4731 12.2383 21.0832 11.2108 21.4382 10.0101 L 25.3493 12.0982 C 25.4147 12.1332 25.4858 12.1503 25.5567 12.1503 C 25.6706 12.1503 25.7839 12.1056 25.8696 12.0199 C 26.0085 11.8815 26.0454 11.6673 25.9613 11.4885 L 24.9786 9.4056 L 27.32 8.6622 C 27.4946 8.607 27.6195 8.4483 27.635 8.2611 C 27.6502 8.0742 27.5539 7.8963 27.3909 7.8114 Z M 24.2136 8.6835 C 24.0882 8.7234 23.9864 8.817 23.934 8.94 C 23.882 9.0633 23.8847 9.204 23.9419 9.3249 L 24.5618 10.6386 L 21.6844 9.1023 C 21.6744 9.0972 21.6645 9.0927 21.6543 9.0882 C 21.7243 8.6928 21.77 8.2824 21.79 7.8576 C 21.8019 7.6033 21.6108 7.3875 21.363 7.3752 C 21.1148 7.3624 20.9047 7.5594 20.8928 7.8132 C 20.703 11.8729 18.1143 14.1546 13.7945 14.0761 C 13.7919 14.0761 13.7891 14.0761 13.7862 14.0761 C 13.7558 14.0761 13.7263 14.0791 13.6972 14.085 C 13.671 14.0796 13.6439 14.0766 13.6165 14.0761 C 9.801 14.0215 6.9107 11.3877 6.7437 7.8132 C 6.7317 7.5592 6.5194 7.3632 6.2733 7.3752 C 6.0256 7.3873 5.8343 7.6032 5.8462 7.8576 C 5.8659 8.2761 5.9181 8.6829 6.0003 9.0765 L 3.0747 10.6386 L 3.6943 9.3249 C 3.7513 9.204 3.7541 9.0633 3.702 8.94 C 3.6501 8.817 3.5479 8.7234 3.4229 8.6835 L 1.6398 8.1174 L 3.8647 6.9556 C 4.0857 6.8401 4.1737 6.5626 4.0613 6.3358 L 2.989 4.1723 L 6.4403 5.688 C 6.9351 5.9013 7.0395 5.4205 7.0436 5.4079 C 7.0438 5.4073 7.044 5.4069 7.0444 5.4064 C 7.92 2.6361 10.5757 0.8742 13.8116 0.923 C 13.8136 0.9231 13.8158 0.9231 13.8179 0.9231 L 13.8179 0.9231 L 13.8184 0.9231 L 13.8184 0.9231 L 13.8184 0.9231 C 13.8202 0.9231 13.8224 0.9231 13.8245 0.923 C 17.0597 0.8787 19.7162 2.6361 20.5922 5.4064 C 20.6536 5.6013 20.9208 5.8297 21.193 5.689 C 21.1939 5.6886 24.6475 4.1723 24.6475 4.1723 L 23.5749 6.3358 C 23.4623 6.5626 23.5503 6.8403 23.7715 6.9556 L 25.9964 8.1174 L 24.2136 8.6835 Z" stroke="none" stroke-linejoin="miter" stroke-linecap="butt" fill="#000000" fill-rule="nonzero" transform="translate(606.9771 369.4812) rotate(175 13.8183 7.5001)"/>
</svg>